{
    "header": {
      "keySignatures": [
        {
          "key": "Ab",
          "scale": "major",
          "ticks": 0
        },
        {
          "key": "Ab",
          "scale": "major",
          "ticks": 0
        }
      ],
      "meta": [],
      "name": "",
      "ppq": 480,
      "tempos": [
        {
          "bpm": 40.00002666668444,
          "ticks": 0
        }
      ],
      "timeSignatures": [
        {
          "ticks": 0,
          "timeSignature": [
            8,
            8
          ],
          "measures": 0
        }
      ]
    },
    "tracks": [
      {
        "channel": 0,
        "controlChanges": {
          "7": [
            {
              "number": 7,
              "ticks": 0,
              "time": 0,
              "value": 0.7874015748031497
            }
          ],
          "10": [
            {
              "number": 10,
              "ticks": 0,
              "time": 0,
              "value": 0.5039370078740157
            }
          ],
          "91": [
            {
              "number": 91,
              "ticks": 0,
              "time": 0,
              "value": 0
            }
          ],
          "93": [
            {
              "number": 93,
              "ticks": 0,
              "time": 0,
              "value": 0
            }
          ],
          "121": [
            {
              "number": 121,
              "ticks": 0,
              "time": 0,
              "value": 0
            }
          ]
        },
        "pitchBends": [],
        "instrument": {
          "family": "piano",
          "name": "acoustic grand piano",
          "number": 0
        },
        "name": "",
        "notes": [
          {
            "duration": 0.7093745270833333,
            "durationTicks": 227,
            "midi": 60,
            "name": "C4",
            "ticks": 240,
            "time": 0.7499995,
            "velocity": 0.6299212598425197
          },
          {
            "duration": 0.7093745270833332,
            "durationTicks": 227,
            "midi": 60,
            "name": "C4",
            "ticks": 480,
            "time": 1.499999,
            "velocity": 0.6299212598425197
          },
          {
            "duration": 0.7093745270833334,
            "durationTicks": 227,
            "midi": 60,
            "name": "C4",
            "ticks": 720,
            "time": 2.2499985000000002,
            "velocity": 0.6299212598425197
          },
          {
            "duration": 0.7093745270833338,
            "durationTicks": 227,
            "midi": 53,
            "name": "F3",
            "ticks": 960,
            "time": 2.999998,
            "velocity": 0.6299212598425197
          },
          {
            "duration": 0.7093745270833338,
            "durationTicks": 227,
            "midi": 56,
            "name": "G#3",
            "ticks": 960,
            "time": 2.999998,
            "velocity": 0.6299212598425197
          },
          {
            "duration": 0.7093745270833338,
            "durationTicks": 227,
            "midi": 53,
            "name": "F3",
            "ticks": 1200,
            "time": 3.7499975,
            "velocity": 0.6299212598425197
          },
          {
            "duration": 0.7093745270833338,
            "durationTicks": 227,
            "midi": 56,
            "name": "G#3",
            "ticks": 1200,
            "time": 3.7499975,
            "velocity": 0.6299212598425197
          },
          {
            "duration": 0.7093745270833338,
            "durationTicks": 227,
            "midi": 53,
            "name": "F3",
            "ticks": 1440,
            "time": 4.4999970000000005,
            "velocity": 0.6299212598425197
          },
          {
            "duration": 0.7093745270833338,
            "durationTicks": 227,
            "midi": 56,
            "name": "G#3",
            "ticks": 1440,
            "time": 4.4999970000000005,
            "velocity": 0.6299212598425197
          },
          {
            "duration": 0.7093745270833338,
            "durationTicks": 227,
            "midi": 53,
            "name": "F3",
            "ticks": 1680,
            "time": 5.2499965,
            "velocity": 0.6299212598425197
          },
          {
            "duration": 0.7093745270833338,
            "durationTicks": 227,
            "midi": 56,
            "name": "G#3",
            "ticks": 1680,
            "time": 5.2499965,
            "velocity": 0.6299212598425197
          },
          {
            "duration": 0.7093745270833329,
            "durationTicks": 227,
            "midi": 49,
            "name": "C#3",
            "ticks": 1920,
            "time": 5.999996,
            "velocity": 0.6299212598425197
          },
          {
            "duration": 0.7093745270833329,
            "durationTicks": 227,
            "midi": 58,
            "name": "A#3",
            "ticks": 1920,
            "time": 5.999996,
            "velocity": 0.6299212598425197
          },
          {
            "duration": 0.7093745270833329,
            "durationTicks": 227,
            "midi": 49,
            "name": "C#3",
            "ticks": 2160,
            "time": 6.749995500000001,
            "velocity": 0.6299212598425197
          },
          {
            "duration": 0.7093745270833329,
            "durationTicks": 227,
            "midi": 58,
            "name": "A#3",
            "ticks": 2160,
            "time": 6.749995500000001,
            "velocity": 0.6299212598425197
          },
          {
            "duration": 0.7093745270833338,
            "durationTicks": 227,
            "midi": 49,
            "name": "C#3",
            "ticks": 2400,
            "time": 7.499995,
            "velocity": 0.6299212598425197
          },
          {
            "duration": 0.7093745270833338,
            "durationTicks": 227,
            "midi": 58,
            "name": "A#3",
            "ticks": 2400,
            "time": 7.499995,
            "velocity": 0.6299212598425197
          },
          {
            "duration": 0.7093745270833338,
            "durationTicks": 227,
            "midi": 49,
            "name": "C#3",
            "ticks": 2640,
            "time": 8.2499945,
            "velocity": 0.6299212598425197
          },
          {
            "duration": 0.7093745270833338,
            "durationTicks": 227,
            "midi": 58,
            "name": "A#3",
            "ticks": 2640,
            "time": 8.2499945,
            "velocity": 0.6299212598425197
          },
          {
            "duration": 0.709374527083332,
            "durationTicks": 227,
            "midi": 51,
            "name": "D#3",
            "ticks": 2880,
            "time": 8.999994000000001,
            "velocity": 0.6299212598425197
          },
          {
            "duration": 0.709374527083332,
            "durationTicks": 227,
            "midi": 55,
            "name": "G3",
            "ticks": 2880,
            "time": 8.999994000000001,
            "velocity": 0.6299212598425197
          },
          {
            "duration": 0.7093745270833338,
            "durationTicks": 227,
            "midi": 51,
            "name": "D#3",
            "ticks": 3120,
            "time": 9.7499935,
            "velocity": 0.6299212598425197
          },
          {
            "duration": 0.7093745270833338,
            "durationTicks": 227,
            "midi": 55,
            "name": "G3",
            "ticks": 3120,
            "time": 9.7499935,
            "velocity": 0.6299212598425197
          },
          {
            "duration": 0.7093745270833338,
            "durationTicks": 227,
            "midi": 51,
            "name": "D#3",
            "ticks": 3360,
            "time": 10.499993,
            "velocity": 0.6299212598425197
          },
          {
            "duration": 0.7093745270833338,
            "durationTicks": 227,
            "midi": 55,
            "name": "G3",
            "ticks": 3360,
            "time": 10.499993,
            "velocity": 0.6299212598425197
          },
          {
            "duration": 0.709374527083332,
            "durationTicks": 227,
            "midi": 51,
            "name": "D#3",
            "ticks": 3600,
            "time": 11.249992500000001,
            "velocity": 0.6299212598425197
          },
          {
            "duration": 0.709374527083332,
            "durationTicks": 227,
            "midi": 55,
            "name": "G3",
            "ticks": 3600,
            "time": 11.249992500000001,
            "velocity": 0.6299212598425197
          },
          {
            "duration": 0.7093745270833338,
            "durationTicks": 227,
            "midi": 48,
            "name": "C3",
            "ticks": 3840,
            "time": 11.999992,
            "velocity": 0.6299212598425197
          },
          {
            "duration": 0.7093745270833338,
            "durationTicks": 227,
            "midi": 56,
            "name": "G#3",
            "ticks": 3840,
            "time": 11.999992,
            "velocity": 0.6299212598425197
          },
          {
            "duration": 0.7093745270833338,
            "durationTicks": 227,
            "midi": 48,
            "name": "C3",
            "ticks": 4080,
            "time": 12.7499915,
            "velocity": 0.6299212598425197
          },
          {
            "duration": 0.7093745270833338,
            "durationTicks": 227,
            "midi": 56,
            "name": "G#3",
            "ticks": 4080,
            "time": 12.7499915,
            "velocity": 0.6299212598425197
          },
          {
            "duration": 0.7093745270833338,
            "durationTicks": 227,
            "midi": 60,
            "name": "C4",
            "ticks": 4080,
            "time": 12.7499915,
            "velocity": 0.6299212598425197
          },
          {
            "duration": 0.709374527083332,
            "durationTicks": 227,
            "midi": 48,
            "name": "C3",
            "ticks": 4320,
            "time": 13.499991000000001,
            "velocity": 0.6299212598425197
          },
          {
            "duration": 0.709374527083332,
            "durationTicks": 227,
            "midi": 56,
            "name": "G#3",
            "ticks": 4320,
            "time": 13.499991000000001,
            "velocity": 0.6299212598425197
          },
          {
            "duration": 0.709374527083332,
            "durationTicks": 227,
            "midi": 60,
            "name": "C4",
            "ticks": 4320,
            "time": 13.499991000000001,
            "velocity": 0.6299212598425197
          },
          {
            "duration": 0.709374527083332,
            "durationTicks": 227,
            "midi": 48,
            "name": "C3",
            "ticks": 4560,
            "time": 14.249990500000001,
            "velocity": 0.6299212598425197
          },
          {
            "duration": 0.709374527083332,
            "durationTicks": 227,
            "midi": 56,
            "name": "G#3",
            "ticks": 4560,
            "time": 14.249990500000001,
            "velocity": 0.6299212598425197
          },
          {
            "duration": 0.709374527083332,
            "durationTicks": 227,
            "midi": 60,
            "name": "C4",
            "ticks": 4560,
            "time": 14.249990500000001,
            "velocity": 0.6299212598425197
          },
          {
            "duration": 0.7093745270833338,
            "durationTicks": 227,
            "midi": 53,
            "name": "F3",
            "ticks": 4800,
            "time": 14.99999,
            "velocity": 0.6299212598425197
          },
          {
            "duration": 0.7093745270833338,
            "durationTicks": 227,
            "midi": 56,
            "name": "G#3",
            "ticks": 4800,
            "time": 14.99999,
            "velocity": 0.6299212598425197
          },
          {
            "duration": 0.7093745270833338,
            "durationTicks": 227,
            "midi": 53,
            "name": "F3",
            "ticks": 5040,
            "time": 15.749989500000002,
            "velocity": 0.6299212598425197
          },
          {
            "duration": 0.7093745270833338,
            "durationTicks": 227,
            "midi": 56,
            "name": "G#3",
            "ticks": 5040,
            "time": 15.749989500000002,
            "velocity": 0.6299212598425197
          },
          {
            "duration": 0.7093745270833338,
            "durationTicks": 227,
            "midi": 65,
            "name": "F4",
            "ticks": 5040,
            "time": 15.749989500000002,
            "velocity": 0.6299212598425197
          },
          {
            "duration": 0.7093745270833338,
            "durationTicks": 227,
            "midi": 53,
            "name": "F3",
            "ticks": 5280,
            "time": 16.499989,
            "velocity": 0.6299212598425197
          },
          {
            "duration": 0.7093745270833338,
            "durationTicks": 227,
            "midi": 56,
            "name": "G#3",
            "ticks": 5280,
            "time": 16.499989,
            "velocity": 0.6299212598425197
          },
          {
            "duration": 0.7093745270833338,
            "durationTicks": 227,
            "midi": 65,
            "name": "F4",
            "ticks": 5280,
            "time": 16.499989,
            "velocity": 0.6299212598425197
          },
          {
            "duration": 0.7093745270833338,
            "durationTicks": 227,
            "midi": 53,
            "name": "F3",
            "ticks": 5520,
            "time": 17.2499885,
            "velocity": 0.6299212598425197
          },
          {
            "duration": 0.7093745270833338,
            "durationTicks": 227,
            "midi": 56,
            "name": "G#3",
            "ticks": 5520,
            "time": 17.2499885,
            "velocity": 0.6299212598425197
          },
          {
            "duration": 0.7093745270833338,
            "durationTicks": 227,
            "midi": 65,
            "name": "F4",
            "ticks": 5520,
            "time": 17.2499885,
            "velocity": 0.6299212598425197
          },
          {
            "duration": 0.7093745270833338,
            "durationTicks": 227,
            "midi": 49,
            "name": "C#3",
            "ticks": 5760,
            "time": 17.999988000000002,
            "velocity": 0.6299212598425197
          },
          {
            "duration": 0.7093745270833338,
            "durationTicks": 227,
            "midi": 55,
            "name": "G3",
            "ticks": 5760,
            "time": 17.999988000000002,
            "velocity": 0.6299212598425197
          },
          {
            "duration": 0.7093745270833338,
            "durationTicks": 227,
            "midi": 61,
            "name": "C#4",
            "ticks": 5760,
            "time": 17.999988000000002,
            "velocity": 0.6299212598425197
          },
          {
            "duration": 0.7093745270833338,
            "durationTicks": 227,
            "midi": 49,
            "name": "C#3",
            "ticks": 6000,
            "time": 18.7499875,
            "velocity": 0.6299212598425197
          },
          {
            "duration": 0.7093745270833338,
            "durationTicks": 227,
            "midi": 55,
            "name": "G3",
            "ticks": 6000,
            "time": 18.7499875,
            "velocity": 0.6299212598425197
          },
          {
            "duration": 0.7093745270833338,
            "durationTicks": 227,
            "midi": 61,
            "name": "C#4",
            "ticks": 6000,
            "time": 18.7499875,
            "velocity": 0.6299212598425197
          },
          {
            "duration": 0.7093745270833338,
            "durationTicks": 227,
            "midi": 49,
            "name": "C#3",
            "ticks": 6240,
            "time": 19.499987,
            "velocity": 0.6299212598425197
          },
          {
            "duration": 0.7093745270833338,
            "durationTicks": 227,
            "midi": 55,
            "name": "G3",
            "ticks": 6240,
            "time": 19.499987,
            "velocity": 0.6299212598425197
          },
          {
            "duration": 0.7093745270833338,
            "durationTicks": 227,
            "midi": 58,
            "name": "A#3",
            "ticks": 6240,
            "time": 19.499987,
            "velocity": 0.6299212598425197
          },
          {
            "duration": 0.7093745270833303,
            "durationTicks": 227,
            "midi": 49,
            "name": "C#3",
            "ticks": 6480,
            "time": 20.249986500000002,
            "velocity": 0.6299212598425197
          },
          {
            "duration": 0.7093745270833303,
            "durationTicks": 227,
            "midi": 53,
            "name": "F3",
            "ticks": 6480,
            "time": 20.249986500000002,
            "velocity": 0.6299212598425197
          },
          {
            "duration": 0.7093745270833303,
            "durationTicks": 227,
            "midi": 55,
            "name": "G3",
            "ticks": 6480,
            "time": 20.249986500000002,
            "velocity": 0.6299212598425197
          },
          {
            "duration": 0.7093745270833303,
            "durationTicks": 227,
            "midi": 61,
            "name": "C#4",
            "ticks": 6480,
            "time": 20.249986500000002,
            "velocity": 0.6299212598425197
          },
          {
            "duration": 0.7093745270833338,
            "durationTicks": 227,
            "midi": 52,
            "name": "E3",
            "ticks": 6720,
            "time": 20.999986,
            "velocity": 0.6299212598425197
          },
          {
            "duration": 0.7093745270833338,
            "durationTicks": 227,
            "midi": 55,
            "name": "G3",
            "ticks": 6720,
            "time": 20.999986,
            "velocity": 0.6299212598425197
          },
          {
            "duration": 0.7093745270833338,
            "durationTicks": 227,
            "midi": 60,
            "name": "C4",
            "ticks": 6720,
            "time": 20.999986,
            "velocity": 0.6299212598425197
          },
          {
            "duration": 0.7093745270833338,
            "durationTicks": 227,
            "midi": 53,
            "name": "F3",
            "ticks": 6960,
            "time": 21.7499855,
            "velocity": 0.6299212598425197
          },
          {
            "duration": 0.7093745270833338,
            "durationTicks": 227,
            "midi": 56,
            "name": "G#3",
            "ticks": 6960,
            "time": 21.7499855,
            "velocity": 0.6299212598425197
          },
          {
            "duration": 0.7093745270833338,
            "durationTicks": 227,
            "midi": 60,
            "name": "C4",
            "ticks": 6960,
            "time": 21.7499855,
            "velocity": 0.6299212598425197
          },
          {
            "duration": 1.065624289583333,
            "durationTicks": 341,
            "midi": 53,
            "name": "F3",
            "ticks": 7200,
            "time": 22.499985000000002,
            "velocity": 0.6299212598425197
          },
          {
            "duration": 1.065624289583333,
            "durationTicks": 341,
            "midi": 55,
            "name": "G3",
            "ticks": 7200,
            "time": 22.499985000000002,
            "velocity": 0.6299212598425197
          },
          {
            "duration": 0.7093745270833303,
            "durationTicks": 227,
            "midi": 60,
            "name": "C4",
            "ticks": 7200,
            "time": 22.499985000000002,
            "velocity": 0.6299212598425197
          },
          {
            "duration": 0.7093745270833338,
            "durationTicks": 227,
            "midi": 60,
            "name": "C4",
            "ticks": 7440,
            "time": 23.2499845,
            "velocity": 0.6299212598425197
          },
          {
            "duration": 0.35312476458333464,
            "durationTicks": 113,
            "midi": 55,
            "name": "G3",
            "ticks": 7560,
            "time": 23.62498425,
            "velocity": 0.6299212598425197
          },
          {
            "duration": 0.35312476458333464,
            "durationTicks": 113,
            "midi": 58,
            "name": "A#3",
            "ticks": 7560,
            "time": 23.62498425,
            "velocity": 0.6299212598425197
          },
          {
            "duration": 0.7093745270833338,
            "durationTicks": 227,
            "midi": 53,
            "name": "F3",
            "ticks": 7680,
            "time": 23.999984,
            "velocity": 0.6299212598425197
          },
          {
            "duration": 0.7093745270833338,
            "durationTicks": 227,
            "midi": 56,
            "name": "G#3",
            "ticks": 7680,
            "time": 23.999984,
            "velocity": 0.6299212598425197
          },
          {
            "duration": 0.7093745270833338,
            "durationTicks": 227,
            "midi": 60,
            "name": "C4",
            "ticks": 7680,
            "time": 23.999984,
            "velocity": 0.6299212598425197
          },
          {
            "duration": 0.7093745270833303,
            "durationTicks": 227,
            "midi": 53,
            "name": "F3",
            "ticks": 7920,
            "time": 24.749983500000003,
            "velocity": 0.6299212598425197
          },
          {
            "duration": 0.7093745270833303,
            "durationTicks": 227,
            "midi": 56,
            "name": "G#3",
            "ticks": 7920,
            "time": 24.749983500000003,
            "velocity": 0.6299212598425197
          },
          {
            "duration": 0.7093745270833303,
            "durationTicks": 227,
            "midi": 60,
            "name": "C4",
            "ticks": 7920,
            "time": 24.749983500000003,
            "velocity": 0.6299212598425197
          },
          {
            "duration": 0.7093745270833338,
            "durationTicks": 227,
            "midi": 53,
            "name": "F3",
            "ticks": 8160,
            "time": 25.499983,
            "velocity": 0.6299212598425197
          },
          {
            "duration": 0.7093745270833338,
            "durationTicks": 227,
            "midi": 56,
            "name": "G#3",
            "ticks": 8160,
            "time": 25.499983,
            "velocity": 0.6299212598425197
          },
          {
            "duration": 0.7093745270833338,
            "durationTicks": 227,
            "midi": 60,
            "name": "C4",
            "ticks": 8160,
            "time": 25.499983,
            "velocity": 0.6299212598425197
          },
          {
            "duration": 0.7093745270833338,
            "durationTicks": 227,
            "midi": 53,
            "name": "F3",
            "ticks": 8400,
            "time": 26.2499825,
            "velocity": 0.6299212598425197
          },
          {
            "duration": 0.7093745270833338,
            "durationTicks": 227,
            "midi": 56,
            "name": "G#3",
            "ticks": 8400,
            "time": 26.2499825,
            "velocity": 0.6299212598425197
          },
          {
            "duration": 0.7093745270833338,
            "durationTicks": 227,
            "midi": 60,
            "name": "C4",
            "ticks": 8400,
            "time": 26.2499825,
            "velocity": 0.6299212598425197
          },
          {
            "duration": 0.7093745270833303,
            "durationTicks": 227,
            "midi": 49,
            "name": "C#3",
            "ticks": 8640,
            "time": 26.999982000000003,
            "velocity": 0.6299212598425197
          },
          {
            "duration": 0.7093745270833303,
            "durationTicks": 227,
            "midi": 53,
            "name": "F3",
            "ticks": 8640,
            "time": 26.999982000000003,
            "velocity": 0.6299212598425197
          },
          {
            "duration": 0.7093745270833303,
            "durationTicks": 227,
            "midi": 56,
            "name": "G#3",
            "ticks": 8640,
            "time": 26.999982000000003,
            "velocity": 0.6299212598425197
          },
          {
            "duration": 0.7093745270833303,
            "durationTicks": 227,
            "midi": 58,
            "name": "A#3",
            "ticks": 8640,
            "time": 26.999982000000003,
            "velocity": 0.6299212598425197
          },
          {
            "duration": 0.7093745270833338,
            "durationTicks": 227,
            "midi": 49,
            "name": "C#3",
            "ticks": 8880,
            "time": 27.7499815,
            "velocity": 0.6299212598425197
          },
          {
            "duration": 0.7093745270833338,
            "durationTicks": 227,
            "midi": 53,
            "name": "F3",
            "ticks": 8880,
            "time": 27.7499815,
            "velocity": 0.6299212598425197
          },
          {
            "duration": 0.7093745270833338,
            "durationTicks": 227,
            "midi": 56,
            "name": "G#3",
            "ticks": 8880,
            "time": 27.7499815,
            "velocity": 0.6299212598425197
          },
          {
            "duration": 0.7093745270833338,
            "durationTicks": 227,
            "midi": 58,
            "name": "A#3",
            "ticks": 8880,
            "time": 27.7499815,
            "velocity": 0.6299212598425197
          },
          {
            "duration": 0.7093745270833338,
            "durationTicks": 227,
            "midi": 49,
            "name": "C#3",
            "ticks": 9120,
            "time": 28.499981000000002,
            "velocity": 0.6299212598425197
          },
          {
            "duration": 0.7093745270833338,
            "durationTicks": 227,
            "midi": 53,
            "name": "F3",
            "ticks": 9120,
            "time": 28.499981000000002,
            "velocity": 0.6299212598425197
          },
          {
            "duration": 0.7093745270833338,
            "durationTicks": 227,
            "midi": 56,
            "name": "G#3",
            "ticks": 9120,
            "time": 28.499981000000002,
            "velocity": 0.6299212598425197
          },
          {
            "duration": 0.7093745270833338,
            "durationTicks": 227,
            "midi": 58,
            "name": "A#3",
            "ticks": 9120,
            "time": 28.499981000000002,
            "velocity": 0.6299212598425197
          },
          {
            "duration": 0.7093745270833303,
            "durationTicks": 227,
            "midi": 49,
            "name": "C#3",
            "ticks": 9360,
            "time": 29.249980500000003,
            "velocity": 0.6299212598425197
          },
          {
            "duration": 0.7093745270833303,
            "durationTicks": 227,
            "midi": 53,
            "name": "F3",
            "ticks": 9360,
            "time": 29.249980500000003,
            "velocity": 0.6299212598425197
          },
          {
            "duration": 0.7093745270833303,
            "durationTicks": 227,
            "midi": 56,
            "name": "G#3",
            "ticks": 9360,
            "time": 29.249980500000003,
            "velocity": 0.6299212598425197
          },
          {
            "duration": 0.7093745270833303,
            "durationTicks": 227,
            "midi": 58,
            "name": "A#3",
            "ticks": 9360,
            "time": 29.249980500000003,
            "velocity": 0.6299212598425197
          },
          {
            "duration": 0.7093745270833338,
            "durationTicks": 227,
            "midi": 51,
            "name": "D#3",
            "ticks": 9600,
            "time": 29.99998,
            "velocity": 0.6299212598425197
          },
          {
            "duration": 0.7093745270833338,
            "durationTicks": 227,
            "midi": 55,
            "name": "G3",
            "ticks": 9600,
            "time": 29.99998,
            "velocity": 0.6299212598425197
          },
          {
            "duration": 0.7093745270833338,
            "durationTicks": 227,
            "midi": 58,
            "name": "A#3",
            "ticks": 9600,
            "time": 29.99998,
            "velocity": 0.6299212598425197
          },
          {
            "duration": 0.7093745270833338,
            "durationTicks": 227,
            "midi": 51,
            "name": "D#3",
            "ticks": 9840,
            "time": 30.749979500000002,
            "velocity": 0.6299212598425197
          },
          {
            "duration": 0.7093745270833338,
            "durationTicks": 227,
            "midi": 55,
            "name": "G3",
            "ticks": 9840,
            "time": 30.749979500000002,
            "velocity": 0.6299212598425197
          },
          {
            "duration": 0.7093745270833338,
            "durationTicks": 227,
            "midi": 58,
            "name": "A#3",
            "ticks": 9840,
            "time": 30.749979500000002,
            "velocity": 0.6299212598425197
          },
          {
            "duration": 0.7093745270833338,
            "durationTicks": 227,
            "midi": 51,
            "name": "D#3",
            "ticks": 10080,
            "time": 31.499979000000003,
            "velocity": 0.6299212598425197
          },
          {
            "duration": 0.7093745270833338,
            "durationTicks": 227,
            "midi": 55,
            "name": "G3",
            "ticks": 10080,
            "time": 31.499979000000003,
            "velocity": 0.6299212598425197
          },
          {
            "duration": 0.7093745270833338,
            "durationTicks": 227,
            "midi": 58,
            "name": "A#3",
            "ticks": 10080,
            "time": 31.499979000000003,
            "velocity": 0.6299212598425197
          },
          {
            "duration": 0.7093745270833267,
            "durationTicks": 227,
            "midi": 51,
            "name": "D#3",
            "ticks": 10320,
            "time": 32.249978500000005,
            "velocity": 0.6299212598425197
          },
          {
            "duration": 0.7093745270833267,
            "durationTicks": 227,
            "midi": 55,
            "name": "G3",
            "ticks": 10320,
            "time": 32.249978500000005,
            "velocity": 0.6299212598425197
          },
          {
            "duration": 0.7093745270833267,
            "durationTicks": 227,
            "midi": 58,
            "name": "A#3",
            "ticks": 10320,
            "time": 32.249978500000005,
            "velocity": 0.6299212598425197
          },
          {
            "duration": 0.7093745270833338,
            "durationTicks": 227,
            "midi": 48,
            "name": "C3",
            "ticks": 10560,
            "time": 32.999978,
            "velocity": 0.6299212598425197
          },
          {
            "duration": 0.7093745270833338,
            "durationTicks": 227,
            "midi": 51,
            "name": "D#3",
            "ticks": 10560,
            "time": 32.999978,
            "velocity": 0.6299212598425197
          },
          {
            "duration": 0.7093745270833338,
            "durationTicks": 227,
            "midi": 55,
            "name": "G3",
            "ticks": 10560,
            "time": 32.999978,
            "velocity": 0.6299212598425197
          },
          {
            "duration": 0.7093745270833338,
            "durationTicks": 227,
            "midi": 56,
            "name": "G#3",
            "ticks": 10560,
            "time": 32.999978,
            "velocity": 0.6299212598425197
          },
          {
            "duration": 0.7093745270833338,
            "durationTicks": 227,
            "midi": 48,
            "name": "C3",
            "ticks": 10800,
            "time": 33.7499775,
            "velocity": 0.6299212598425197
          },
          {
            "duration": 0.7093745270833338,
            "durationTicks": 227,
            "midi": 51,
            "name": "D#3",
            "ticks": 10800,
            "time": 33.7499775,
            "velocity": 0.6299212598425197
          },
          {
            "duration": 0.7093745270833338,
            "durationTicks": 227,
            "midi": 55,
            "name": "G3",
            "ticks": 10800,
            "time": 33.7499775,
            "velocity": 0.6299212598425197
          },
          {
            "duration": 0.7093745270833338,
            "durationTicks": 227,
            "midi": 56,
            "name": "G#3",
            "ticks": 10800,
            "time": 33.7499775,
            "velocity": 0.6299212598425197
          },
          {
            "duration": 0.7093745270833338,
            "durationTicks": 227,
            "midi": 48,
            "name": "C3",
            "ticks": 11040,
            "time": 34.499977,
            "velocity": 0.6299212598425197
          },
          {
            "duration": 0.7093745270833338,
            "durationTicks": 227,
            "midi": 51,
            "name": "D#3",
            "ticks": 11040,
            "time": 34.499977,
            "velocity": 0.6299212598425197
          },
          {
            "duration": 0.7093745270833338,
            "durationTicks": 227,
            "midi": 55,
            "name": "G3",
            "ticks": 11040,
            "time": 34.499977,
            "velocity": 0.6299212598425197
          },
          {
            "duration": 0.7093745270833338,
            "durationTicks": 227,
            "midi": 56,
            "name": "G#3",
            "ticks": 11040,
            "time": 34.499977,
            "velocity": 0.6299212598425197
          },
          {
            "duration": 0.7093745270833338,
            "durationTicks": 227,
            "midi": 48,
            "name": "C3",
            "ticks": 11280,
            "time": 35.2499765,
            "velocity": 0.6299212598425197
          },
          {
            "duration": 0.7093745270833338,
            "durationTicks": 227,
            "midi": 51,
            "name": "D#3",
            "ticks": 11280,
            "time": 35.2499765,
            "velocity": 0.6299212598425197
          },
          {
            "duration": 0.7093745270833338,
            "durationTicks": 227,
            "midi": 55,
            "name": "G3",
            "ticks": 11280,
            "time": 35.2499765,
            "velocity": 0.6299212598425197
          },
          {
            "duration": 0.7093745270833338,
            "durationTicks": 227,
            "midi": 56,
            "name": "G#3",
            "ticks": 11280,
            "time": 35.2499765,
            "velocity": 0.6299212598425197
          },
          {
            "duration": 0.7093745270833338,
            "durationTicks": 227,
            "midi": 49,
            "name": "C#3",
            "ticks": 11520,
            "time": 35.999976000000004,
            "velocity": 0.6299212598425197
          },
          {
            "duration": 0.7093745270833338,
            "durationTicks": 227,
            "midi": 53,
            "name": "F3",
            "ticks": 11520,
            "time": 35.999976000000004,
            "velocity": 0.6299212598425197
          },
          {
            "duration": 0.7093745270833338,
            "durationTicks": 227,
            "midi": 56,
            "name": "G#3",
            "ticks": 11520,
            "time": 35.999976000000004,
            "velocity": 0.6299212598425197
          },
          {
            "duration": 0.7093745270833267,
            "durationTicks": 227,
            "midi": 49,
            "name": "C#3",
            "ticks": 11760,
            "time": 36.749975500000005,
            "velocity": 0.6299212598425197
          },
          {
            "duration": 0.7093745270833267,
            "durationTicks": 227,
            "midi": 53,
            "name": "F3",
            "ticks": 11760,
            "time": 36.749975500000005,
            "velocity": 0.6299212598425197
          },
          {
            "duration": 0.7093745270833267,
            "durationTicks": 227,
            "midi": 56,
            "name": "G#3",
            "ticks": 11760,
            "time": 36.749975500000005,
            "velocity": 0.6299212598425197
          },
          {
            "duration": 0.7093745270833338,
            "durationTicks": 227,
            "midi": 49,
            "name": "C#3",
            "ticks": 12000,
            "time": 37.499975,
            "velocity": 0.6299212598425197
          },
          {
            "duration": 0.7093745270833338,
            "durationTicks": 227,
            "midi": 53,
            "name": "F3",
            "ticks": 12000,
            "time": 37.499975,
            "velocity": 0.6299212598425197
          },
          {
            "duration": 0.7093745270833338,
            "durationTicks": 227,
            "midi": 56,
            "name": "G#3",
            "ticks": 12000,
            "time": 37.499975,
            "velocity": 0.6299212598425197
          },
          {
            "duration": 0.7093745270833338,
            "durationTicks": 227,
            "midi": 49,
            "name": "C#3",
            "ticks": 12240,
            "time": 38.2499745,
            "velocity": 0.6299212598425197
          },
          {
            "duration": 0.7093745270833338,
            "durationTicks": 227,
            "midi": 53,
            "name": "F3",
            "ticks": 12240,
            "time": 38.2499745,
            "velocity": 0.6299212598425197
          },
          {
            "duration": 0.7093745270833338,
            "durationTicks": 227,
            "midi": 56,
            "name": "G#3",
            "ticks": 12240,
            "time": 38.2499745,
            "velocity": 0.6299212598425197
          },
          {
            "duration": 0.7093745270833338,
            "durationTicks": 227,
            "midi": 46,
            "name": "A#2",
            "ticks": 12480,
            "time": 38.999974,
            "velocity": 0.6299212598425197
          },
          {
            "duration": 0.7093745270833338,
            "durationTicks": 227,
            "midi": 49,
            "name": "C#3",
            "ticks": 12480,
            "time": 38.999974,
            "velocity": 0.6299212598425197
          },
          {
            "duration": 0.7093745270833338,
            "durationTicks": 227,
            "midi": 53,
            "name": "F3",
            "ticks": 12480,
            "time": 38.999974,
            "velocity": 0.6299212598425197
          },
          {
            "duration": 0.7093745270833338,
            "durationTicks": 227,
            "midi": 55,
            "name": "G3",
            "ticks": 12480,
            "time": 38.999974,
            "velocity": 0.6299212598425197
          },
          {
            "duration": 0.7093745270833338,
            "durationTicks": 227,
            "midi": 46,
            "name": "A#2",
            "ticks": 12720,
            "time": 39.7499735,
            "velocity": 0.6299212598425197
          },
          {
            "duration": 0.7093745270833338,
            "durationTicks": 227,
            "midi": 49,
            "name": "C#3",
            "ticks": 12720,
            "time": 39.7499735,
            "velocity": 0.6299212598425197
          },
          {
            "duration": 0.7093745270833338,
            "durationTicks": 227,
            "midi": 53,
            "name": "F3",
            "ticks": 12720,
            "time": 39.7499735,
            "velocity": 0.6299212598425197
          },
          {
            "duration": 0.7093745270833338,
            "durationTicks": 227,
            "midi": 55,
            "name": "G3",
            "ticks": 12720,
            "time": 39.7499735,
            "velocity": 0.6299212598425197
          },
          {
            "duration": 0.7093745270833338,
            "durationTicks": 227,
            "midi": 46,
            "name": "A#2",
            "ticks": 12960,
            "time": 40.499973000000004,
            "velocity": 0.6299212598425197
          },
          {
            "duration": 0.7093745270833338,
            "durationTicks": 227,
            "midi": 49,
            "name": "C#3",
            "ticks": 12960,
            "time": 40.499973000000004,
            "velocity": 0.6299212598425197
          },
          {
            "duration": 0.7093745270833338,
            "durationTicks": 227,
            "midi": 53,
            "name": "F3",
            "ticks": 12960,
            "time": 40.499973000000004,
            "velocity": 0.6299212598425197
          },
          {
            "duration": 0.7093745270833338,
            "durationTicks": 227,
            "midi": 55,
            "name": "G3",
            "ticks": 12960,
            "time": 40.499973000000004,
            "velocity": 0.6299212598425197
          },
          {
            "duration": 0.7093745270833267,
            "durationTicks": 227,
            "midi": 46,
            "name": "A#2",
            "ticks": 13200,
            "time": 41.249972500000005,
            "velocity": 0.6299212598425197
          },
          {
            "duration": 0.7093745270833267,
            "durationTicks": 227,
            "midi": 49,
            "name": "C#3",
            "ticks": 13200,
            "time": 41.249972500000005,
            "velocity": 0.6299212598425197
          },
          {
            "duration": 0.7093745270833267,
            "durationTicks": 227,
            "midi": 53,
            "name": "F3",
            "ticks": 13200,
            "time": 41.249972500000005,
            "velocity": 0.6299212598425197
          },
          {
            "duration": 0.7093745270833267,
            "durationTicks": 227,
            "midi": 55,
            "name": "G3",
            "ticks": 13200,
            "time": 41.249972500000005,
            "velocity": 0.6299212598425197
          },
          {
            "duration": 0.7093745270833338,
            "durationTicks": 227,
            "midi": 47,
            "name": "B2",
            "ticks": 13440,
            "time": 41.999972,
            "velocity": 0.6299212598425197
          },
          {
            "duration": 0.7093745270833338,
            "durationTicks": 227,
            "midi": 50,
            "name": "D3",
            "ticks": 13440,
            "time": 41.999972,
            "velocity": 0.6299212598425197
          },
          {
            "duration": 0.7093745270833338,
            "durationTicks": 227,
            "midi": 53,
            "name": "F3",
            "ticks": 13440,
            "time": 41.999972,
            "velocity": 0.6299212598425197
          },
          {
            "duration": 0.7093745270833338,
            "durationTicks": 227,
            "midi": 55,
            "name": "G3",
            "ticks": 13440,
            "time": 41.999972,
            "velocity": 0.6299212598425197
          },
          {
            "duration": 0.7093745270833338,
            "durationTicks": 227,
            "midi": 47,
            "name": "B2",
            "ticks": 13680,
            "time": 42.7499715,
            "velocity": 0.6299212598425197
          },
          {
            "duration": 0.7093745270833338,
            "durationTicks": 227,
            "midi": 50,
            "name": "D3",
            "ticks": 13680,
            "time": 42.7499715,
            "velocity": 0.6299212598425197
          },
          {
            "duration": 0.7093745270833338,
            "durationTicks": 227,
            "midi": 53,
            "name": "F3",
            "ticks": 13680,
            "time": 42.7499715,
            "velocity": 0.6299212598425197
          },
          {
            "duration": 0.7093745270833338,
            "durationTicks": 227,
            "midi": 55,
            "name": "G3",
            "ticks": 13680,
            "time": 42.7499715,
            "velocity": 0.6299212598425197
          },
          {
            "duration": 0.7093745270833338,
            "durationTicks": 227,
            "midi": 47,
            "name": "B2",
            "ticks": 13920,
            "time": 43.499971,
            "velocity": 0.6299212598425197
          },
          {
            "duration": 0.7093745270833338,
            "durationTicks": 227,
            "midi": 50,
            "name": "D3",
            "ticks": 13920,
            "time": 43.499971,
            "velocity": 0.6299212598425197
          },
          {
            "duration": 0.7093745270833338,
            "durationTicks": 227,
            "midi": 53,
            "name": "F3",
            "ticks": 13920,
            "time": 43.499971,
            "velocity": 0.6299212598425197
          },
          {
            "duration": 0.7093745270833338,
            "durationTicks": 227,
            "midi": 55,
            "name": "G3",
            "ticks": 13920,
            "time": 43.499971,
            "velocity": 0.6299212598425197
          },
          {
            "duration": 0.7093745270833338,
            "durationTicks": 227,
            "midi": 47,
            "name": "B2",
            "ticks": 14160,
            "time": 44.2499705,
            "velocity": 0.6299212598425197
          },
          {
            "duration": 0.7093745270833338,
            "durationTicks": 227,
            "midi": 50,
            "name": "D3",
            "ticks": 14160,
            "time": 44.2499705,
            "velocity": 0.6299212598425197
          },
          {
            "duration": 0.7093745270833338,
            "durationTicks": 227,
            "midi": 53,
            "name": "F3",
            "ticks": 14160,
            "time": 44.2499705,
            "velocity": 0.6299212598425197
          },
          {
            "duration": 0.7093745270833338,
            "durationTicks": 227,
            "midi": 55,
            "name": "G3",
            "ticks": 14160,
            "time": 44.2499705,
            "velocity": 0.6299212598425197
          },
          {
            "duration": 0.35312476458332753,
            "durationTicks": 113,
            "midi": 48,
            "name": "C3",
            "ticks": 14400,
            "time": 44.999970000000005,
            "velocity": 0.6299212598425197
          },
          {
            "duration": 0.35312476458332753,
            "durationTicks": 113,
            "midi": 53,
            "name": "F3",
            "ticks": 14400,
            "time": 44.999970000000005,
            "velocity": 0.6299212598425197
          },
          {
            "duration": 0.35312476458332753,
            "durationTicks": 113,
            "midi": 55,
            "name": "G3",
            "ticks": 14400,
            "time": 44.999970000000005,
            "velocity": 0.6299212598425197
          },
          {
            "duration": 0.35312476458332753,
            "durationTicks": 113,
            "midi": 53,
            "name": "F3",
            "ticks": 14520,
            "time": 45.374969750000005,
            "velocity": 0.6299212598425197
          },
          {
            "duration": 0.35312476458332753,
            "durationTicks": 113,
            "midi": 55,
            "name": "G3",
            "ticks": 14520,
            "time": 45.374969750000005,
            "velocity": 0.6299212598425197
          },
          {
            "duration": 0.35312476458332753,
            "durationTicks": 113,
            "midi": 60,
            "name": "C4",
            "ticks": 14520,
            "time": 45.374969750000005,
            "velocity": 0.6299212598425197
          },
          {
            "duration": 0.35312476458332753,
            "durationTicks": 113,
            "midi": 53,
            "name": "F3",
            "ticks": 14640,
            "time": 45.749969500000006,
            "velocity": 0.6299212598425197
          },
          {
            "duration": 0.35312476458332753,
            "durationTicks": 113,
            "midi": 55,
            "name": "G3",
            "ticks": 14640,
            "time": 45.749969500000006,
            "velocity": 0.6299212598425197
          },
          {
            "duration": 0.35312476458332753,
            "durationTicks": 113,
            "midi": 60,
            "name": "C4",
            "ticks": 14640,
            "time": 45.749969500000006,
            "velocity": 0.6299212598425197
          },
          {
            "duration": 0.35312476458333464,
            "durationTicks": 113,
            "midi": 53,
            "name": "F3",
            "ticks": 14760,
            "time": 46.12496925,
            "velocity": 0.6299212598425197
          },
          {
            "duration": 0.35312476458333464,
            "durationTicks": 113,
            "midi": 55,
            "name": "G3",
            "ticks": 14760,
            "time": 46.12496925,
            "velocity": 0.6299212598425197
          },
          {
            "duration": 0.35312476458333464,
            "durationTicks": 113,
            "midi": 60,
            "name": "C4",
            "ticks": 14760,
            "time": 46.12496925,
            "velocity": 0.6299212598425197
          },
          {
            "duration": 0.35312476458333464,
            "durationTicks": 113,
            "midi": 52,
            "name": "E3",
            "ticks": 14880,
            "time": 46.499969,
            "velocity": 0.6299212598425197
          },
          {
            "duration": 0.35312476458333464,
            "durationTicks": 113,
            "midi": 55,
            "name": "G3",
            "ticks": 14880,
            "time": 46.499969,
            "velocity": 0.6299212598425197
          },
          {
            "duration": 0.35312476458333464,
            "durationTicks": 113,
            "midi": 60,
            "name": "C4",
            "ticks": 14880,
            "time": 46.499969,
            "velocity": 0.6299212598425197
          },
          {
            "duration": 0.35312476458333464,
            "durationTicks": 113,
            "midi": 52,
            "name": "E3",
            "ticks": 15000,
            "time": 46.87496875,
            "velocity": 0.6299212598425197
          },
          {
            "duration": 0.35312476458333464,
            "durationTicks": 113,
            "midi": 55,
            "name": "G3",
            "ticks": 15000,
            "time": 46.87496875,
            "velocity": 0.6299212598425197
          },
          {
            "duration": 0.35312476458333464,
            "durationTicks": 113,
            "midi": 60,
            "name": "C4",
            "ticks": 15000,
            "time": 46.87496875,
            "velocity": 0.6299212598425197
          },
          {
            "duration": 0.35312476458333464,
            "durationTicks": 113,
            "midi": 52,
            "name": "E3",
            "ticks": 15120,
            "time": 47.2499685,
            "velocity": 0.6299212598425197
          },
          {
            "duration": 0.35312476458333464,
            "durationTicks": 113,
            "midi": 55,
            "name": "G3",
            "ticks": 15120,
            "time": 47.2499685,
            "velocity": 0.6299212598425197
          },
          {
            "duration": 0.35312476458333464,
            "durationTicks": 113,
            "midi": 60,
            "name": "C4",
            "ticks": 15120,
            "time": 47.2499685,
            "velocity": 0.6299212598425197
          },
          {
            "duration": 0.35312476458333464,
            "durationTicks": 113,
            "midi": 52,
            "name": "E3",
            "ticks": 15240,
            "time": 47.62496825,
            "velocity": 0.6299212598425197
          },
          {
            "duration": 0.35312476458333464,
            "durationTicks": 113,
            "midi": 55,
            "name": "G3",
            "ticks": 15240,
            "time": 47.62496825,
            "velocity": 0.6299212598425197
          },
          {
            "duration": 0.35312476458333464,
            "durationTicks": 113,
            "midi": 60,
            "name": "C4",
            "ticks": 15240,
            "time": 47.62496825,
            "velocity": 0.6299212598425197
          },
          {
            "duration": 0.7093745270833409,
            "durationTicks": 227,
            "midi": 65,
            "name": "F4",
            "ticks": 15360,
            "time": 47.999968,
            "velocity": 0.6299212598425197
          },
          {
            "duration": 0.7093745270833409,
            "durationTicks": 227,
            "midi": 68,
            "name": "G#4",
            "ticks": 15360,
            "time": 47.999968,
            "velocity": 0.6299212598425197
          },
          {
            "duration": 0.7093745270833409,
            "durationTicks": 227,
            "midi": 72,
            "name": "C5",
            "ticks": 15360,
            "time": 47.999968,
            "velocity": 0.6299212598425197
          },
          {
            "duration": 0.7093745270833338,
            "durationTicks": 227,
            "midi": 65,
            "name": "F4",
            "ticks": 15600,
            "time": 48.749967500000004,
            "velocity": 0.6299212598425197
          },
          {
            "duration": 0.7093745270833338,
            "durationTicks": 227,
            "midi": 68,
            "name": "G#4",
            "ticks": 15600,
            "time": 48.749967500000004,
            "velocity": 0.6299212598425197
          },
          {
            "duration": 0.7093745270833338,
            "durationTicks": 227,
            "midi": 72,
            "name": "C5",
            "ticks": 15600,
            "time": 48.749967500000004,
            "velocity": 0.6299212598425197
          },
          {
            "duration": 0.7093745270833338,
            "durationTicks": 227,
            "midi": 65,
            "name": "F4",
            "ticks": 15840,
            "time": 49.499967000000005,
            "velocity": 0.6299212598425197
          },
          {
            "duration": 0.7093745270833338,
            "durationTicks": 227,
            "midi": 68,
            "name": "G#4",
            "ticks": 15840,
            "time": 49.499967000000005,
            "velocity": 0.6299212598425197
          },
          {
            "duration": 0.7093745270833338,
            "durationTicks": 227,
            "midi": 72,
            "name": "C5",
            "ticks": 15840,
            "time": 49.499967000000005,
            "velocity": 0.6299212598425197
          },
          {
            "duration": 0.7093745270833409,
            "durationTicks": 227,
            "midi": 65,
            "name": "F4",
            "ticks": 16080,
            "time": 50.2499665,
            "velocity": 0.6299212598425197
          },
          {
            "duration": 0.7093745270833409,
            "durationTicks": 227,
            "midi": 68,
            "name": "G#4",
            "ticks": 16080,
            "time": 50.2499665,
            "velocity": 0.6299212598425197
          },
          {
            "duration": 0.7093745270833409,
            "durationTicks": 227,
            "midi": 72,
            "name": "C5",
            "ticks": 16080,
            "time": 50.2499665,
            "velocity": 0.6299212598425197
          },
          {
            "duration": 0.7093745270833409,
            "durationTicks": 227,
            "midi": 61,
            "name": "C#4",
            "ticks": 16320,
            "time": 50.999966,
            "velocity": 0.6299212598425197
          },
          {
            "duration": 0.7093745270833409,
            "durationTicks": 227,
            "midi": 65,
            "name": "F4",
            "ticks": 16320,
            "time": 50.999966,
            "velocity": 0.6299212598425197
          },
          {
            "duration": 0.7093745270833409,
            "durationTicks": 227,
            "midi": 68,
            "name": "G#4",
            "ticks": 16320,
            "time": 50.999966,
            "velocity": 0.6299212598425197
          },
          {
            "duration": 0.7093745270833409,
            "durationTicks": 227,
            "midi": 70,
            "name": "A#4",
            "ticks": 16320,
            "time": 50.999966,
            "velocity": 0.6299212598425197
          },
          {
            "duration": 0.7093745270833409,
            "durationTicks": 227,
            "midi": 61,
            "name": "C#4",
            "ticks": 16560,
            "time": 51.7499655,
            "velocity": 0.6299212598425197
          },
          {
            "duration": 0.7093745270833409,
            "durationTicks": 227,
            "midi": 65,
            "name": "F4",
            "ticks": 16560,
            "time": 51.7499655,
            "velocity": 0.6299212598425197
          },
          {
            "duration": 0.7093745270833409,
            "durationTicks": 227,
            "midi": 68,
            "name": "G#4",
            "ticks": 16560,
            "time": 51.7499655,
            "velocity": 0.6299212598425197
          },
          {
            "duration": 0.7093745270833409,
            "durationTicks": 227,
            "midi": 70,
            "name": "A#4",
            "ticks": 16560,
            "time": 51.7499655,
            "velocity": 0.6299212598425197
          },
          {
            "duration": 0.7093745270833409,
            "durationTicks": 227,
            "midi": 61,
            "name": "C#4",
            "ticks": 16800,
            "time": 52.499965,
            "velocity": 0.6299212598425197
          },
          {
            "duration": 0.7093745270833409,
            "durationTicks": 227,
            "midi": 65,
            "name": "F4",
            "ticks": 16800,
            "time": 52.499965,
            "velocity": 0.6299212598425197
          },
          {
            "duration": 0.7093745270833409,
            "durationTicks": 227,
            "midi": 68,
            "name": "G#4",
            "ticks": 16800,
            "time": 52.499965,
            "velocity": 0.6299212598425197
          },
          {
            "duration": 0.7093745270833409,
            "durationTicks": 227,
            "midi": 70,
            "name": "A#4",
            "ticks": 16800,
            "time": 52.499965,
            "velocity": 0.6299212598425197
          },
          {
            "duration": 0.7093745270833338,
            "durationTicks": 227,
            "midi": 61,
            "name": "C#4",
            "ticks": 17040,
            "time": 53.249964500000004,
            "velocity": 0.6299212598425197
          },
          {
            "duration": 0.7093745270833338,
            "durationTicks": 227,
            "midi": 65,
            "name": "F4",
            "ticks": 17040,
            "time": 53.249964500000004,
            "velocity": 0.6299212598425197
          },
          {
            "duration": 0.7093745270833338,
            "durationTicks": 227,
            "midi": 68,
            "name": "G#4",
            "ticks": 17040,
            "time": 53.249964500000004,
            "velocity": 0.6299212598425197
          },
          {
            "duration": 0.7093745270833338,
            "durationTicks": 227,
            "midi": 70,
            "name": "A#4",
            "ticks": 17040,
            "time": 53.249964500000004,
            "velocity": 0.6299212598425197
          },
          {
            "duration": 0.7093745270833338,
            "durationTicks": 227,
            "midi": 63,
            "name": "D#4",
            "ticks": 17280,
            "time": 53.999964000000006,
            "velocity": 0.6299212598425197
          },
          {
            "duration": 0.7093745270833338,
            "durationTicks": 227,
            "midi": 67,
            "name": "G4",
            "ticks": 17280,
            "time": 53.999964000000006,
            "velocity": 0.6299212598425197
          },
          {
            "duration": 0.7093745270833338,
            "durationTicks": 227,
            "midi": 70,
            "name": "A#4",
            "ticks": 17280,
            "time": 53.999964000000006,
            "velocity": 0.6299212598425197
          },
          {
            "duration": 0.7093745270833409,
            "durationTicks": 227,
            "midi": 63,
            "name": "D#4",
            "ticks": 17520,
            "time": 54.7499635,
            "velocity": 0.6299212598425197
          },
          {
            "duration": 0.7093745270833409,
            "durationTicks": 227,
            "midi": 67,
            "name": "G4",
            "ticks": 17520,
            "time": 54.7499635,
            "velocity": 0.6299212598425197
          },
          {
            "duration": 0.7093745270833409,
            "durationTicks": 227,
            "midi": 70,
            "name": "A#4",
            "ticks": 17520,
            "time": 54.7499635,
            "velocity": 0.6299212598425197
          },
          {
            "duration": 0.7093745270833409,
            "durationTicks": 227,
            "midi": 63,
            "name": "D#4",
            "ticks": 17760,
            "time": 55.499963,
            "velocity": 0.6299212598425197
          },
          {
            "duration": 0.7093745270833409,
            "durationTicks": 227,
            "midi": 67,
            "name": "G4",
            "ticks": 17760,
            "time": 55.499963,
            "velocity": 0.6299212598425197
          },
          {
            "duration": 0.7093745270833409,
            "durationTicks": 227,
            "midi": 70,
            "name": "A#4",
            "ticks": 17760,
            "time": 55.499963,
            "velocity": 0.6299212598425197
          },
          {
            "duration": 0.7093745270833409,
            "durationTicks": 227,
            "midi": 63,
            "name": "D#4",
            "ticks": 18000,
            "time": 56.2499625,
            "velocity": 0.6299212598425197
          },
          {
            "duration": 0.7093745270833409,
            "durationTicks": 227,
            "midi": 67,
            "name": "G4",
            "ticks": 18000,
            "time": 56.2499625,
            "velocity": 0.6299212598425197
          },
          {
            "duration": 0.7093745270833409,
            "durationTicks": 227,
            "midi": 70,
            "name": "A#4",
            "ticks": 18000,
            "time": 56.2499625,
            "velocity": 0.6299212598425197
          },
          {
            "duration": 0.7093745270833409,
            "durationTicks": 227,
            "midi": 60,
            "name": "C4",
            "ticks": 18240,
            "time": 56.999962000000004,
            "velocity": 0.6299212598425197
          },
          {
            "duration": 0.7093745270833409,
            "durationTicks": 227,
            "midi": 63,
            "name": "D#4",
            "ticks": 18240,
            "time": 56.999962000000004,
            "velocity": 0.6299212598425197
          },
          {
            "duration": 0.7093745270833409,
            "durationTicks": 227,
            "midi": 67,
            "name": "G4",
            "ticks": 18240,
            "time": 56.999962000000004,
            "velocity": 0.6299212598425197
          },
          {
            "duration": 0.7093745270833409,
            "durationTicks": 227,
            "midi": 68,
            "name": "G#4",
            "ticks": 18240,
            "time": 56.999962000000004,
            "velocity": 0.6299212598425197
          },
          {
            "duration": 0.7093745270833338,
            "durationTicks": 227,
            "midi": 60,
            "name": "C4",
            "ticks": 18480,
            "time": 57.749961500000005,
            "velocity": 0.6299212598425197
          },
          {
            "duration": 0.7093745270833338,
            "durationTicks": 227,
            "midi": 63,
            "name": "D#4",
            "ticks": 18480,
            "time": 57.749961500000005,
            "velocity": 0.6299212598425197
          },
          {
            "duration": 0.7093745270833338,
            "durationTicks": 227,
            "midi": 67,
            "name": "G4",
            "ticks": 18480,
            "time": 57.749961500000005,
            "velocity": 0.6299212598425197
          },
          {
            "duration": 0.7093745270833338,
            "durationTicks": 227,
            "midi": 68,
            "name": "G#4",
            "ticks": 18480,
            "time": 57.749961500000005,
            "velocity": 0.6299212598425197
          },
          {
            "duration": 0.7093745270833338,
            "durationTicks": 227,
            "midi": 60,
            "name": "C4",
            "ticks": 18720,
            "time": 58.499961000000006,
            "velocity": 0.6299212598425197
          },
          {
            "duration": 0.7093745270833338,
            "durationTicks": 227,
            "midi": 63,
            "name": "D#4",
            "ticks": 18720,
            "time": 58.499961000000006,
            "velocity": 0.6299212598425197
          },
          {
            "duration": 0.7093745270833338,
            "durationTicks": 227,
            "midi": 67,
            "name": "G4",
            "ticks": 18720,
            "time": 58.499961000000006,
            "velocity": 0.6299212598425197
          },
          {
            "duration": 0.7093745270833338,
            "durationTicks": 227,
            "midi": 68,
            "name": "G#4",
            "ticks": 18720,
            "time": 58.499961000000006,
            "velocity": 0.6299212598425197
          },
          {
            "duration": 0.7093745270833409,
            "durationTicks": 227,
            "midi": 60,
            "name": "C4",
            "ticks": 18960,
            "time": 59.2499605,
            "velocity": 0.6299212598425197
          },
          {
            "duration": 0.7093745270833409,
            "durationTicks": 227,
            "midi": 63,
            "name": "D#4",
            "ticks": 18960,
            "time": 59.2499605,
            "velocity": 0.6299212598425197
          },
          {
            "duration": 0.7093745270833409,
            "durationTicks": 227,
            "midi": 67,
            "name": "G4",
            "ticks": 18960,
            "time": 59.2499605,
            "velocity": 0.6299212598425197
          },
          {
            "duration": 0.7093745270833409,
            "durationTicks": 227,
            "midi": 68,
            "name": "G#4",
            "ticks": 18960,
            "time": 59.2499605,
            "velocity": 0.6299212598425197
          },
          {
            "duration": 0.7093745270833409,
            "durationTicks": 227,
            "midi": 61,
            "name": "C#4",
            "ticks": 19200,
            "time": 59.99996,
            "velocity": 0.6299212598425197
          },
          {
            "duration": 0.7093745270833409,
            "durationTicks": 227,
            "midi": 65,
            "name": "F4",
            "ticks": 19200,
            "time": 59.99996,
            "velocity": 0.6299212598425197
          },
          {
            "duration": 0.7093745270833409,
            "durationTicks": 227,
            "midi": 68,
            "name": "G#4",
            "ticks": 19200,
            "time": 59.99996,
            "velocity": 0.6299212598425197
          },
          {
            "duration": 0.7093745270833409,
            "durationTicks": 227,
            "midi": 61,
            "name": "C#4",
            "ticks": 19440,
            "time": 60.7499595,
            "velocity": 0.6299212598425197
          },
          {
            "duration": 0.7093745270833409,
            "durationTicks": 227,
            "midi": 65,
            "name": "F4",
            "ticks": 19440,
            "time": 60.7499595,
            "velocity": 0.6299212598425197
          },
          {
            "duration": 0.7093745270833409,
            "durationTicks": 227,
            "midi": 68,
            "name": "G#4",
            "ticks": 19440,
            "time": 60.7499595,
            "velocity": 0.6299212598425197
          },
          {
            "duration": 0.7093745270833409,
            "durationTicks": 227,
            "midi": 61,
            "name": "C#4",
            "ticks": 19680,
            "time": 61.499959000000004,
            "velocity": 0.6299212598425197
          },
          {
            "duration": 0.7093745270833409,
            "durationTicks": 227,
            "midi": 65,
            "name": "F4",
            "ticks": 19680,
            "time": 61.499959000000004,
            "velocity": 0.6299212598425197
          },
          {
            "duration": 0.7093745270833409,
            "durationTicks": 227,
            "midi": 68,
            "name": "G#4",
            "ticks": 19680,
            "time": 61.499959000000004,
            "velocity": 0.6299212598425197
          },
          {
            "duration": 0.7093745270833338,
            "durationTicks": 227,
            "midi": 61,
            "name": "C#4",
            "ticks": 19920,
            "time": 62.249958500000005,
            "velocity": 0.6299212598425197
          },
          {
            "duration": 0.7093745270833338,
            "durationTicks": 227,
            "midi": 65,
            "name": "F4",
            "ticks": 19920,
            "time": 62.249958500000005,
            "velocity": 0.6299212598425197
          },
          {
            "duration": 0.7093745270833338,
            "durationTicks": 227,
            "midi": 68,
            "name": "G#4",
            "ticks": 19920,
            "time": 62.249958500000005,
            "velocity": 0.6299212598425197
          },
          {
            "duration": 0.7093745270833338,
            "durationTicks": 227,
            "midi": 58,
            "name": "A#3",
            "ticks": 20160,
            "time": 62.99995800000001,
            "velocity": 0.6299212598425197
          },
          {
            "duration": 0.7093745270833338,
            "durationTicks": 227,
            "midi": 61,
            "name": "C#4",
            "ticks": 20160,
            "time": 62.99995800000001,
            "velocity": 0.6299212598425197
          },
          {
            "duration": 0.7093745270833338,
            "durationTicks": 227,
            "midi": 65,
            "name": "F4",
            "ticks": 20160,
            "time": 62.99995800000001,
            "velocity": 0.6299212598425197
          },
          {
            "duration": 0.7093745270833338,
            "durationTicks": 227,
            "midi": 67,
            "name": "G4",
            "ticks": 20160,
            "time": 62.99995800000001,
            "velocity": 0.6299212598425197
          },
          {
            "duration": 0.709374527083348,
            "durationTicks": 227,
            "midi": 58,
            "name": "A#3",
            "ticks": 20400,
            "time": 63.7499575,
            "velocity": 0.6299212598425197
          },
          {
            "duration": 0.709374527083348,
            "durationTicks": 227,
            "midi": 61,
            "name": "C#4",
            "ticks": 20400,
            "time": 63.7499575,
            "velocity": 0.6299212598425197
          },
          {
            "duration": 0.709374527083348,
            "durationTicks": 227,
            "midi": 65,
            "name": "F4",
            "ticks": 20400,
            "time": 63.7499575,
            "velocity": 0.6299212598425197
          },
          {
            "duration": 0.709374527083348,
            "durationTicks": 227,
            "midi": 67,
            "name": "G4",
            "ticks": 20400,
            "time": 63.7499575,
            "velocity": 0.6299212598425197
          },
          {
            "duration": 0.7093745270833267,
            "durationTicks": 227,
            "midi": 58,
            "name": "A#3",
            "ticks": 20640,
            "time": 64.49995700000001,
            "velocity": 0.6299212598425197
          },
          {
            "duration": 0.7093745270833267,
            "durationTicks": 227,
            "midi": 61,
            "name": "C#4",
            "ticks": 20640,
            "time": 64.49995700000001,
            "velocity": 0.6299212598425197
          },
          {
            "duration": 0.7093745270833267,
            "durationTicks": 227,
            "midi": 65,
            "name": "F4",
            "ticks": 20640,
            "time": 64.49995700000001,
            "velocity": 0.6299212598425197
          },
          {
            "duration": 0.7093745270833267,
            "durationTicks": 227,
            "midi": 67,
            "name": "G4",
            "ticks": 20640,
            "time": 64.49995700000001,
            "velocity": 0.6299212598425197
          },
          {
            "duration": 0.7093745270833267,
            "durationTicks": 227,
            "midi": 58,
            "name": "A#3",
            "ticks": 20880,
            "time": 65.24995650000001,
            "velocity": 0.6299212598425197
          },
          {
            "duration": 0.7093745270833267,
            "durationTicks": 227,
            "midi": 61,
            "name": "C#4",
            "ticks": 20880,
            "time": 65.24995650000001,
            "velocity": 0.6299212598425197
          },
          {
            "duration": 0.7093745270833267,
            "durationTicks": 227,
            "midi": 65,
            "name": "F4",
            "ticks": 20880,
            "time": 65.24995650000001,
            "velocity": 0.6299212598425197
          },
          {
            "duration": 0.7093745270833267,
            "durationTicks": 227,
            "midi": 67,
            "name": "G4",
            "ticks": 20880,
            "time": 65.24995650000001,
            "velocity": 0.6299212598425197
          },
          {
            "duration": 0.7093745270833409,
            "durationTicks": 227,
            "midi": 59,
            "name": "B3",
            "ticks": 21120,
            "time": 65.999956,
            "velocity": 0.6299212598425197
          },
          {
            "duration": 0.7093745270833409,
            "durationTicks": 227,
            "midi": 62,
            "name": "D4",
            "ticks": 21120,
            "time": 65.999956,
            "velocity": 0.6299212598425197
          },
          {
            "duration": 0.7093745270833409,
            "durationTicks": 227,
            "midi": 65,
            "name": "F4",
            "ticks": 21120,
            "time": 65.999956,
            "velocity": 0.6299212598425197
          },
          {
            "duration": 0.7093745270833409,
            "durationTicks": 227,
            "midi": 67,
            "name": "G4",
            "ticks": 21120,
            "time": 65.999956,
            "velocity": 0.6299212598425197
          },
          {
            "duration": 0.7093745270833409,
            "durationTicks": 227,
            "midi": 59,
            "name": "B3",
            "ticks": 21360,
            "time": 66.7499555,
            "velocity": 0.6299212598425197
          },
          {
            "duration": 0.7093745270833409,
            "durationTicks": 227,
            "midi": 62,
            "name": "D4",
            "ticks": 21360,
            "time": 66.7499555,
            "velocity": 0.6299212598425197
          },
          {
            "duration": 0.7093745270833409,
            "durationTicks": 227,
            "midi": 65,
            "name": "F4",
            "ticks": 21360,
            "time": 66.7499555,
            "velocity": 0.6299212598425197
          },
          {
            "duration": 0.7093745270833409,
            "durationTicks": 227,
            "midi": 67,
            "name": "G4",
            "ticks": 21360,
            "time": 66.7499555,
            "velocity": 0.6299212598425197
          },
          {
            "duration": 0.7093745270833409,
            "durationTicks": 227,
            "midi": 59,
            "name": "B3",
            "ticks": 21600,
            "time": 67.499955,
            "velocity": 0.6299212598425197
          },
          {
            "duration": 0.7093745270833409,
            "durationTicks": 227,
            "midi": 62,
            "name": "D4",
            "ticks": 21600,
            "time": 67.499955,
            "velocity": 0.6299212598425197
          },
          {
            "duration": 0.7093745270833409,
            "durationTicks": 227,
            "midi": 65,
            "name": "F4",
            "ticks": 21600,
            "time": 67.499955,
            "velocity": 0.6299212598425197
          },
          {
            "duration": 0.7093745270833409,
            "durationTicks": 227,
            "midi": 67,
            "name": "G4",
            "ticks": 21600,
            "time": 67.499955,
            "velocity": 0.6299212598425197
          },
          {
            "duration": 0.7093745270833409,
            "durationTicks": 227,
            "midi": 59,
            "name": "B3",
            "ticks": 21840,
            "time": 68.2499545,
            "velocity": 0.6299212598425197
          },
          {
            "duration": 0.7093745270833409,
            "durationTicks": 227,
            "midi": 62,
            "name": "D4",
            "ticks": 21840,
            "time": 68.2499545,
            "velocity": 0.6299212598425197
          },
          {
            "duration": 0.7093745270833409,
            "durationTicks": 227,
            "midi": 65,
            "name": "F4",
            "ticks": 21840,
            "time": 68.2499545,
            "velocity": 0.6299212598425197
          },
          {
            "duration": 0.7093745270833409,
            "durationTicks": 227,
            "midi": 67,
            "name": "G4",
            "ticks": 21840,
            "time": 68.2499545,
            "velocity": 0.6299212598425197
          },
          {
            "duration": 0.35312476458332753,
            "durationTicks": 113,
            "midi": 60,
            "name": "C4",
            "ticks": 22080,
            "time": 68.999954,
            "velocity": 0.6299212598425197
          },
          {
            "duration": 0.35312476458332753,
            "durationTicks": 113,
            "midi": 65,
            "name": "F4",
            "ticks": 22080,
            "time": 68.999954,
            "velocity": 0.6299212598425197
          },
          {
            "duration": 0.35312476458332753,
            "durationTicks": 113,
            "midi": 67,
            "name": "G4",
            "ticks": 22080,
            "time": 68.999954,
            "velocity": 0.6299212598425197
          },
          {
            "duration": 0.35312476458332753,
            "durationTicks": 113,
            "midi": 65,
            "name": "F4",
            "ticks": 22200,
            "time": 69.37495375,
            "velocity": 0.6299212598425197
          },
          {
            "duration": 0.35312476458332753,
            "durationTicks": 113,
            "midi": 67,
            "name": "G4",
            "ticks": 22200,
            "time": 69.37495375,
            "velocity": 0.6299212598425197
          },
          {
            "duration": 0.35312476458332753,
            "durationTicks": 113,
            "midi": 72,
            "name": "C5",
            "ticks": 22200,
            "time": 69.37495375,
            "velocity": 0.6299212598425197
          },
          {
            "duration": 0.35312476458332753,
            "durationTicks": 113,
            "midi": 65,
            "name": "F4",
            "ticks": 22320,
            "time": 69.7499535,
            "velocity": 0.6299212598425197
          },
          {
            "duration": 0.35312476458332753,
            "durationTicks": 113,
            "midi": 67,
            "name": "G4",
            "ticks": 22320,
            "time": 69.7499535,
            "velocity": 0.6299212598425197
          },
          {
            "duration": 0.35312476458332753,
            "durationTicks": 113,
            "midi": 72,
            "name": "C5",
            "ticks": 22320,
            "time": 69.7499535,
            "velocity": 0.6299212598425197
          },
          {
            "duration": 0.35312476458332753,
            "durationTicks": 113,
            "midi": 65,
            "name": "F4",
            "ticks": 22440,
            "time": 70.12495325,
            "velocity": 0.6299212598425197
          },
          {
            "duration": 0.35312476458332753,
            "durationTicks": 113,
            "midi": 67,
            "name": "G4",
            "ticks": 22440,
            "time": 70.12495325,
            "velocity": 0.6299212598425197
          },
          {
            "duration": 0.35312476458332753,
            "durationTicks": 113,
            "midi": 72,
            "name": "C5",
            "ticks": 22440,
            "time": 70.12495325,
            "velocity": 0.6299212598425197
          },
          {
            "duration": 0.35312476458332753,
            "durationTicks": 113,
            "midi": 64,
            "name": "E4",
            "ticks": 22560,
            "time": 70.499953,
            "velocity": 0.6299212598425197
          },
          {
            "duration": 0.35312476458332753,
            "durationTicks": 113,
            "midi": 67,
            "name": "G4",
            "ticks": 22560,
            "time": 70.499953,
            "velocity": 0.6299212598425197
          },
          {
            "duration": 0.35312476458332753,
            "durationTicks": 113,
            "midi": 72,
            "name": "C5",
            "ticks": 22560,
            "time": 70.499953,
            "velocity": 0.6299212598425197
          },
          {
            "duration": 0.35312476458332753,
            "durationTicks": 113,
            "midi": 64,
            "name": "E4",
            "ticks": 22680,
            "time": 70.87495275,
            "velocity": 0.6299212598425197
          },
          {
            "duration": 0.35312476458332753,
            "durationTicks": 113,
            "midi": 67,
            "name": "G4",
            "ticks": 22680,
            "time": 70.87495275,
            "velocity": 0.6299212598425197
          },
          {
            "duration": 0.35312476458332753,
            "durationTicks": 113,
            "midi": 72,
            "name": "C5",
            "ticks": 22680,
            "time": 70.87495275,
            "velocity": 0.6299212598425197
          },
          {
            "duration": 0.35312476458332753,
            "durationTicks": 113,
            "midi": 64,
            "name": "E4",
            "ticks": 22800,
            "time": 71.2499525,
            "velocity": 0.6299212598425197
          },
          {
            "duration": 0.35312476458332753,
            "durationTicks": 113,
            "midi": 67,
            "name": "G4",
            "ticks": 22800,
            "time": 71.2499525,
            "velocity": 0.6299212598425197
          },
          {
            "duration": 0.35312476458332753,
            "durationTicks": 113,
            "midi": 72,
            "name": "C5",
            "ticks": 22800,
            "time": 71.2499525,
            "velocity": 0.6299212598425197
          },
          {
            "duration": 0.35312476458332753,
            "durationTicks": 113,
            "midi": 64,
            "name": "E4",
            "ticks": 22920,
            "time": 71.62495225,
            "velocity": 0.6299212598425197
          },
          {
            "duration": 0.35312476458332753,
            "durationTicks": 113,
            "midi": 67,
            "name": "G4",
            "ticks": 22920,
            "time": 71.62495225,
            "velocity": 0.6299212598425197
          },
          {
            "duration": 0.35312476458332753,
            "durationTicks": 113,
            "midi": 72,
            "name": "C5",
            "ticks": 22920,
            "time": 71.62495225,
            "velocity": 0.6299212598425197
          },
          {
            "duration": 1.4968740020833309,
            "durationTicks": 479,
            "midi": 65,
            "name": "F4",
            "ticks": 23040,
            "time": 71.99995200000001,
            "velocity": 0.6299212598425197
          },
          {
            "duration": 0.7468745020833296,
            "durationTicks": 239,
            "midi": 68,
            "name": "G#4",
            "ticks": 23040,
            "time": 71.99995200000001,
            "velocity": 0.6299212598425197
          },
          {
            "duration": 0.7468745020833296,
            "durationTicks": 239,
            "midi": 72,
            "name": "C5",
            "ticks": 23040,
            "time": 71.99995200000001,
            "velocity": 0.6299212598425197
          },
          {
            "duration": 0.7468745020833296,
            "durationTicks": 239,
            "midi": 68,
            "name": "G#4",
            "ticks": 23280,
            "time": 72.74995150000001,
            "velocity": 0.6299212598425197
          },
          {
            "duration": 0.7468745020833296,
            "durationTicks": 239,
            "midi": 72,
            "name": "C5",
            "ticks": 23280,
            "time": 72.74995150000001,
            "velocity": 0.6299212598425197
          },
          {
            "duration": 1.421874052083325,
            "durationTicks": 455,
            "midi": 67,
            "name": "G4",
            "ticks": 23520,
            "time": 73.49995100000001,
            "velocity": 0.6299212598425197
          },
          {
            "duration": 0.7093745270833267,
            "durationTicks": 227,
            "midi": 65,
            "name": "F4",
            "ticks": 23520,
            "time": 73.49995100000001,
            "velocity": 0.6299212598425197
          },
          {
            "duration": 0.7093745270833267,
            "durationTicks": 227,
            "midi": 68,
            "name": "G#4",
            "ticks": 23520,
            "time": 73.49995100000001,
            "velocity": 0.6299212598425197
          },
          {
            "duration": 0.7093745270833267,
            "durationTicks": 227,
            "midi": 72,
            "name": "C5",
            "ticks": 23520,
            "time": 73.49995100000001,
            "velocity": 0.6299212598425197
          },
          {
            "duration": 0.7093745270833409,
            "durationTicks": 227,
            "midi": 65,
            "name": "F4",
            "ticks": 23760,
            "time": 74.2499505,
            "velocity": 0.6299212598425197
          },
          {
            "duration": 0.7093745270833409,
            "durationTicks": 227,
            "midi": 68,
            "name": "G#4",
            "ticks": 23760,
            "time": 74.2499505,
            "velocity": 0.6299212598425197
          },
          {
            "duration": 0.7093745270833409,
            "durationTicks": 227,
            "midi": 72,
            "name": "C5",
            "ticks": 23760,
            "time": 74.2499505,
            "velocity": 0.6299212598425197
          },
          {
            "duration": 1.4218740520833393,
            "durationTicks": 455,
            "midi": 68,
            "name": "G#4",
            "ticks": 24000,
            "time": 74.99995,
            "velocity": 0.6299212598425197
          },
          {
            "duration": 0.7093745270833409,
            "durationTicks": 227,
            "midi": 65,
            "name": "F4",
            "ticks": 24000,
            "time": 74.99995,
            "velocity": 0.6299212598425197
          },
          {
            "duration": 0.7093745270833409,
            "durationTicks": 227,
            "midi": 70,
            "name": "A#4",
            "ticks": 24000,
            "time": 74.99995,
            "velocity": 0.6299212598425197
          },
          {
            "duration": 0.7093745270833409,
            "durationTicks": 227,
            "midi": 65,
            "name": "F4",
            "ticks": 24240,
            "time": 75.7499495,
            "velocity": 0.6299212598425197
          },
          {
            "duration": 0.7093745270833409,
            "durationTicks": 227,
            "midi": 70,
            "name": "A#4",
            "ticks": 24240,
            "time": 75.7499495,
            "velocity": 0.6299212598425197
          },
          {
            "duration": 1.4218740520833393,
            "durationTicks": 455,
            "midi": 70,
            "name": "A#4",
            "ticks": 24480,
            "time": 76.499949,
            "velocity": 0.6299212598425197
          },
          {
            "duration": 0.7093745270833409,
            "durationTicks": 227,
            "midi": 65,
            "name": "F4",
            "ticks": 24480,
            "time": 76.499949,
            "velocity": 0.6299212598425197
          },
          {
            "duration": 0.7093745270833409,
            "durationTicks": 227,
            "midi": 68,
            "name": "G#4",
            "ticks": 24480,
            "time": 76.499949,
            "velocity": 0.6299212598425197
          },
          {
            "duration": 0.7093745270833409,
            "durationTicks": 227,
            "midi": 65,
            "name": "F4",
            "ticks": 24720,
            "time": 77.2499485,
            "velocity": 0.6299212598425197
          },
          {
            "duration": 0.7093745270833409,
            "durationTicks": 227,
            "midi": 68,
            "name": "G#4",
            "ticks": 24720,
            "time": 77.2499485,
            "velocity": 0.6299212598425197
          },
          {
            "duration": 1.421874052083325,
            "durationTicks": 455,
            "midi": 67,
            "name": "G4",
            "ticks": 24960,
            "time": 77.999948,
            "velocity": 0.6299212598425197
          },
          {
            "duration": 0.7093745270833409,
            "durationTicks": 227,
            "midi": 63,
            "name": "D#4",
            "ticks": 24960,
            "time": 77.999948,
            "velocity": 0.6299212598425197
          },
          {
            "duration": 0.7093745270833409,
            "durationTicks": 227,
            "midi": 70,
            "name": "A#4",
            "ticks": 24960,
            "time": 77.999948,
            "velocity": 0.6299212598425197
          },
          {
            "duration": 0.7093745270833409,
            "durationTicks": 227,
            "midi": 63,
            "name": "D#4",
            "ticks": 25200,
            "time": 78.7499475,
            "velocity": 0.6299212598425197
          },
          {
            "duration": 0.7093745270833409,
            "durationTicks": 227,
            "midi": 70,
            "name": "A#4",
            "ticks": 25200,
            "time": 78.7499475,
            "velocity": 0.6299212598425197
          },
          {
            "duration": 1.421874052083325,
            "durationTicks": 455,
            "midi": 68,
            "name": "G#4",
            "ticks": 25440,
            "time": 79.499947,
            "velocity": 0.6299212598425197
          },
          {
            "duration": 0.7093745270833409,
            "durationTicks": 227,
            "midi": 63,
            "name": "D#4",
            "ticks": 25440,
            "time": 79.499947,
            "velocity": 0.6299212598425197
          },
          {
            "duration": 0.7093745270833409,
            "durationTicks": 227,
            "midi": 70,
            "name": "A#4",
            "ticks": 25440,
            "time": 79.499947,
            "velocity": 0.6299212598425197
          },
          {
            "duration": 0.7093745270833409,
            "durationTicks": 227,
            "midi": 63,
            "name": "D#4",
            "ticks": 25680,
            "time": 80.24994650000001,
            "velocity": 0.6299212598425197
          },
          {
            "duration": 0.7093745270833409,
            "durationTicks": 227,
            "midi": 70,
            "name": "A#4",
            "ticks": 25680,
            "time": 80.24994650000001,
            "velocity": 0.6299212598425197
          },
          {
            "duration": 1.421874052083325,
            "durationTicks": 455,
            "midi": 70,
            "name": "A#4",
            "ticks": 25920,
            "time": 80.99994600000001,
            "velocity": 0.6299212598425197
          },
          {
            "duration": 0.7093745270833409,
            "durationTicks": 227,
            "midi": 63,
            "name": "D#4",
            "ticks": 25920,
            "time": 80.99994600000001,
            "velocity": 0.6299212598425197
          },
          {
            "duration": 0.7093745270833409,
            "durationTicks": 227,
            "midi": 67,
            "name": "G4",
            "ticks": 25920,
            "time": 80.99994600000001,
            "velocity": 0.6299212598425197
          },
          {
            "duration": 0.7093745270833409,
            "durationTicks": 227,
            "midi": 68,
            "name": "G#4",
            "ticks": 25920,
            "time": 80.99994600000001,
            "velocity": 0.6299212598425197
          },
          {
            "duration": 0.7093745270833267,
            "durationTicks": 227,
            "midi": 63,
            "name": "D#4",
            "ticks": 26160,
            "time": 81.74994550000001,
            "velocity": 0.6299212598425197
          },
          {
            "duration": 0.7093745270833267,
            "durationTicks": 227,
            "midi": 67,
            "name": "G4",
            "ticks": 26160,
            "time": 81.74994550000001,
            "velocity": 0.6299212598425197
          },
          {
            "duration": 0.7093745270833267,
            "durationTicks": 227,
            "midi": 68,
            "name": "G#4",
            "ticks": 26160,
            "time": 81.74994550000001,
            "velocity": 0.6299212598425197
          },
          {
            "duration": 1.421874052083325,
            "durationTicks": 455,
            "midi": 72,
            "name": "C5",
            "ticks": 26400,
            "time": 82.49994500000001,
            "velocity": 0.6299212598425197
          },
          {
            "duration": 0.7093745270833267,
            "durationTicks": 227,
            "midi": 63,
            "name": "D#4",
            "ticks": 26400,
            "time": 82.49994500000001,
            "velocity": 0.6299212598425197
          },
          {
            "duration": 0.7093745270833267,
            "durationTicks": 227,
            "midi": 67,
            "name": "G4",
            "ticks": 26400,
            "time": 82.49994500000001,
            "velocity": 0.6299212598425197
          },
          {
            "duration": 0.7093745270833267,
            "durationTicks": 227,
            "midi": 68,
            "name": "G#4",
            "ticks": 26400,
            "time": 82.49994500000001,
            "velocity": 0.6299212598425197
          },
          {
            "duration": 0.7093745270833409,
            "durationTicks": 227,
            "midi": 63,
            "name": "D#4",
            "ticks": 26640,
            "time": 83.2499445,
            "velocity": 0.6299212598425197
          },
          {
            "duration": 0.7093745270833409,
            "durationTicks": 227,
            "midi": 67,
            "name": "G4",
            "ticks": 26640,
            "time": 83.2499445,
            "velocity": 0.6299212598425197
          },
          {
            "duration": 0.7093745270833409,
            "durationTicks": 227,
            "midi": 68,
            "name": "G#4",
            "ticks": 26640,
            "time": 83.2499445,
            "velocity": 0.6299212598425197
          },
          {
            "duration": 1.496874002083345,
            "durationTicks": 479,
            "midi": 61,
            "name": "C#4",
            "ticks": 26880,
            "time": 83.999944,
            "velocity": 0.6299212598425197
          },
          {
            "duration": 1.496874002083345,
            "durationTicks": 479,
            "midi": 73,
            "name": "C#5",
            "ticks": 26880,
            "time": 83.999944,
            "velocity": 0.6299212598425197
          },
          {
            "duration": 1.4218740520833393,
            "durationTicks": 455,
            "midi": 63,
            "name": "D#4",
            "ticks": 27360,
            "time": 85.499943,
            "velocity": 0.6299212598425197
          },
          {
            "duration": 1.4218740520833393,
            "durationTicks": 455,
            "midi": 75,
            "name": "D#5",
            "ticks": 27360,
            "time": 85.499943,
            "velocity": 0.6299212598425197
          },
          {
            "duration": 1.421874052083325,
            "durationTicks": 455,
            "midi": 65,
            "name": "F4",
            "ticks": 27840,
            "time": 86.999942,
            "velocity": 0.6299212598425197
          },
          {
            "duration": 1.421874052083325,
            "durationTicks": 455,
            "midi": 77,
            "name": "F5",
            "ticks": 27840,
            "time": 86.999942,
            "velocity": 0.6299212598425197
          },
          {
            "duration": 1.421874052083325,
            "durationTicks": 455,
            "midi": 67,
            "name": "G4",
            "ticks": 28320,
            "time": 88.499941,
            "velocity": 0.6299212598425197
          },
          {
            "duration": 1.421874052083325,
            "durationTicks": 455,
            "midi": 79,
            "name": "G5",
            "ticks": 28320,
            "time": 88.499941,
            "velocity": 0.6299212598425197
          },
          {
            "duration": 1.4968740020833309,
            "durationTicks": 479,
            "midi": 65,
            "name": "F4",
            "ticks": 28800,
            "time": 89.99994000000001,
            "velocity": 0.6299212598425197
          },
          {
            "duration": 1.4968740020833309,
            "durationTicks": 479,
            "midi": 77,
            "name": "F5",
            "ticks": 28800,
            "time": 89.99994000000001,
            "velocity": 0.6299212598425197
          },
          {
            "duration": 1.421874052083325,
            "durationTicks": 455,
            "midi": 67,
            "name": "G4",
            "ticks": 29280,
            "time": 91.49993900000001,
            "velocity": 0.6299212598425197
          },
          {
            "duration": 1.421874052083325,
            "durationTicks": 455,
            "midi": 79,
            "name": "G5",
            "ticks": 29280,
            "time": 91.49993900000001,
            "velocity": 0.6299212598425197
          },
          {
            "duration": 1.4218740520833393,
            "durationTicks": 455,
            "midi": 65,
            "name": "F4",
            "ticks": 29760,
            "time": 92.999938,
            "velocity": 0.6299212598425197
          },
          {
            "duration": 1.4218740520833393,
            "durationTicks": 455,
            "midi": 77,
            "name": "F5",
            "ticks": 29760,
            "time": 92.999938,
            "velocity": 0.6299212598425197
          },
          {
            "duration": 1.4218740520833393,
            "durationTicks": 455,
            "midi": 70,
            "name": "A#4",
            "ticks": 29760,
            "time": 92.999938,
            "velocity": 0.6299212598425197
          },
          {
            "duration": 1.4218740520833393,
            "durationTicks": 455,
            "midi": 64,
            "name": "E4",
            "ticks": 30240,
            "time": 94.499937,
            "velocity": 0.6299212598425197
          },
          {
            "duration": 1.4218740520833393,
            "durationTicks": 455,
            "midi": 77,
            "name": "F5",
            "ticks": 30240,
            "time": 94.499937,
            "velocity": 0.6299212598425197
          },
          {
            "duration": 0.7093745270833409,
            "durationTicks": 227,
            "midi": 70,
            "name": "A#4",
            "ticks": 30240,
            "time": 94.499937,
            "velocity": 0.6299212598425197
          },
          {
            "duration": 0.7093745270833409,
            "durationTicks": 227,
            "midi": 68,
            "name": "G#4",
            "ticks": 30480,
            "time": 95.2499365,
            "velocity": 0.6299212598425197
          },
          {
            "duration": 1.4218740520833393,
            "durationTicks": 455,
            "midi": 56,
            "name": "G#3",
            "ticks": 30720,
            "time": 95.999936,
            "velocity": 0.6299212598425197
          },
          {
            "duration": 1.4218740520833393,
            "durationTicks": 455,
            "midi": 68,
            "name": "G#4",
            "ticks": 30720,
            "time": 95.999936,
            "velocity": 0.6299212598425197
          },
          {
            "duration": 1.4218740520833393,
            "durationTicks": 455,
            "midi": 65,
            "name": "F4",
            "ticks": 30720,
            "time": 95.999936,
            "velocity": 0.6299212598425197
          },
          {
            "duration": 0.7093745270833267,
            "durationTicks": 227,
            "midi": 58,
            "name": "A#3",
            "ticks": 31200,
            "time": 97.49993500000001,
            "velocity": 0.6299212598425197
          },
          {
            "duration": 0.7093745270833267,
            "durationTicks": 227,
            "midi": 70,
            "name": "A#4",
            "ticks": 31200,
            "time": 97.49993500000001,
            "velocity": 0.6299212598425197
          },
          {
            "duration": 1.4218740520833393,
            "durationTicks": 455,
            "midi": 65,
            "name": "F4",
            "ticks": 31200,
            "time": 97.49993500000001,
            "velocity": 0.6299212598425197
          },
          {
            "duration": 0.7468745020833296,
            "durationTicks": 239,
            "midi": 56,
            "name": "G#3",
            "ticks": 31440,
            "time": 98.24993450000001,
            "velocity": 0.6299212598425197
          },
          {
            "duration": 0.7468745020833296,
            "durationTicks": 239,
            "midi": 68,
            "name": "G#4",
            "ticks": 31440,
            "time": 98.24993450000001,
            "velocity": 0.6299212598425197
          },
          {
            "duration": 0.7093745270833267,
            "durationTicks": 227,
            "midi": 56,
            "name": "G#3",
            "ticks": 31680,
            "time": 98.99993400000001,
            "velocity": 0.6299212598425197
          },
          {
            "duration": 0.7093745270833267,
            "durationTicks": 227,
            "midi": 68,
            "name": "G#4",
            "ticks": 31680,
            "time": 98.99993400000001,
            "velocity": 0.6299212598425197
          },
          {
            "duration": 1.4218740520833393,
            "durationTicks": 455,
            "midi": 65,
            "name": "F4",
            "ticks": 31680,
            "time": 98.99993400000001,
            "velocity": 0.6299212598425197
          },
          {
            "duration": 0.7093745270833267,
            "durationTicks": 227,
            "midi": 58,
            "name": "A#3",
            "ticks": 31920,
            "time": 99.74993350000001,
            "velocity": 0.6299212598425197
          },
          {
            "duration": 0.7093745270833267,
            "durationTicks": 227,
            "midi": 70,
            "name": "A#4",
            "ticks": 31920,
            "time": 99.74993350000001,
            "velocity": 0.6299212598425197
          },
          {
            "duration": 0.7093745270833409,
            "durationTicks": 227,
            "midi": 56,
            "name": "G#3",
            "ticks": 32160,
            "time": 100.499933,
            "velocity": 0.6299212598425197
          },
          {
            "duration": 0.7093745270833409,
            "durationTicks": 227,
            "midi": 68,
            "name": "G#4",
            "ticks": 32160,
            "time": 100.499933,
            "velocity": 0.6299212598425197
          },
          {
            "duration": 1.4218740520833535,
            "durationTicks": 455,
            "midi": 65,
            "name": "F4",
            "ticks": 32160,
            "time": 100.499933,
            "velocity": 0.6299212598425197
          },
          {
            "duration": 0.7093745270833267,
            "durationTicks": 227,
            "midi": 58,
            "name": "A#3",
            "ticks": 32400,
            "time": 101.2499325,
            "velocity": 0.6299212598425197
          },
          {
            "duration": 0.7093745270833267,
            "durationTicks": 227,
            "midi": 70,
            "name": "A#4",
            "ticks": 32400,
            "time": 101.2499325,
            "velocity": 0.6299212598425197
          },
          {
            "duration": 1.4218740520833393,
            "durationTicks": 455,
            "midi": 55,
            "name": "G3",
            "ticks": 32640,
            "time": 101.999932,
            "velocity": 0.6299212598425197
          },
          {
            "duration": 1.4218740520833393,
            "durationTicks": 455,
            "midi": 67,
            "name": "G4",
            "ticks": 32640,
            "time": 101.999932,
            "velocity": 0.6299212598425197
          },
          {
            "duration": 1.4218740520833393,
            "durationTicks": 455,
            "midi": 63,
            "name": "D#4",
            "ticks": 32640,
            "time": 101.999932,
            "velocity": 0.6299212598425197
          },
          {
            "duration": 0.7093745270833267,
            "durationTicks": 227,
            "midi": 56,
            "name": "G#3",
            "ticks": 33120,
            "time": 103.499931,
            "velocity": 0.6299212598425197
          },
          {
            "duration": 0.7093745270833267,
            "durationTicks": 227,
            "midi": 68,
            "name": "G#4",
            "ticks": 33120,
            "time": 103.499931,
            "velocity": 0.6299212598425197
          },
          {
            "duration": 1.4218740520833393,
            "durationTicks": 455,
            "midi": 63,
            "name": "D#4",
            "ticks": 33120,
            "time": 103.499931,
            "velocity": 0.6299212598425197
          },
          {
            "duration": 0.7468745020833438,
            "durationTicks": 239,
            "midi": 55,
            "name": "G3",
            "ticks": 33360,
            "time": 104.2499305,
            "velocity": 0.6299212598425197
          },
          {
            "duration": 0.7468745020833438,
            "durationTicks": 239,
            "midi": 67,
            "name": "G4",
            "ticks": 33360,
            "time": 104.2499305,
            "velocity": 0.6299212598425197
          },
          {
            "duration": 0.7093745270833267,
            "durationTicks": 227,
            "midi": 55,
            "name": "G3",
            "ticks": 33600,
            "time": 104.99993,
            "velocity": 0.6299212598425197
          },
          {
            "duration": 0.7093745270833267,
            "durationTicks": 227,
            "midi": 67,
            "name": "G4",
            "ticks": 33600,
            "time": 104.99993,
            "velocity": 0.6299212598425197
          },
          {
            "duration": 1.4218740520833393,
            "durationTicks": 455,
            "midi": 63,
            "name": "D#4",
            "ticks": 33600,
            "time": 104.99993,
            "velocity": 0.6299212598425197
          },
          {
            "duration": 0.7093745270833267,
            "durationTicks": 227,
            "midi": 56,
            "name": "G#3",
            "ticks": 33840,
            "time": 105.74992950000001,
            "velocity": 0.6299212598425197
          },
          {
            "duration": 0.7093745270833267,
            "durationTicks": 227,
            "midi": 68,
            "name": "G#4",
            "ticks": 33840,
            "time": 105.74992950000001,
            "velocity": 0.6299212598425197
          },
          {
            "duration": 0.7093745270833267,
            "durationTicks": 227,
            "midi": 58,
            "name": "A#3",
            "ticks": 34080,
            "time": 106.49992900000001,
            "velocity": 0.6299212598425197
          },
          {
            "duration": 0.7093745270833267,
            "durationTicks": 227,
            "midi": 70,
            "name": "A#4",
            "ticks": 34080,
            "time": 106.49992900000001,
            "velocity": 0.6299212598425197
          },
          {
            "duration": 1.4218740520833393,
            "durationTicks": 455,
            "midi": 63,
            "name": "D#4",
            "ticks": 34080,
            "time": 106.49992900000001,
            "velocity": 0.6299212598425197
          },
          {
            "duration": 0.7093745270833267,
            "durationTicks": 227,
            "midi": 60,
            "name": "C4",
            "ticks": 34320,
            "time": 107.24992850000001,
            "velocity": 0.6299212598425197
          },
          {
            "duration": 0.7093745270833267,
            "durationTicks": 227,
            "midi": 72,
            "name": "C5",
            "ticks": 34320,
            "time": 107.24992850000001,
            "velocity": 0.6299212598425197
          },
          {
            "duration": 1.4218740520833393,
            "durationTicks": 455,
            "midi": 53,
            "name": "F3",
            "ticks": 34560,
            "time": 107.99992800000001,
            "velocity": 0.6299212598425197
          },
          {
            "duration": 1.4218740520833393,
            "durationTicks": 455,
            "midi": 65,
            "name": "F4",
            "ticks": 34560,
            "time": 107.99992800000001,
            "velocity": 0.6299212598425197
          },
          {
            "duration": 1.4218740520833393,
            "durationTicks": 455,
            "midi": 56,
            "name": "G#3",
            "ticks": 34560,
            "time": 107.99992800000001,
            "velocity": 0.6299212598425197
          },
          {
            "duration": 0.7093745270833409,
            "durationTicks": 227,
            "midi": 55,
            "name": "G3",
            "ticks": 35040,
            "time": 109.499927,
            "velocity": 0.6299212598425197
          },
          {
            "duration": 0.7093745270833409,
            "durationTicks": 227,
            "midi": 67,
            "name": "G4",
            "ticks": 35040,
            "time": 109.499927,
            "velocity": 0.6299212598425197
          },
          {
            "duration": 1.4218740520833535,
            "durationTicks": 455,
            "midi": 61,
            "name": "C#4",
            "ticks": 35040,
            "time": 109.499927,
            "velocity": 0.6299212598425197
          },
          {
            "duration": 0.7468745020833438,
            "durationTicks": 239,
            "midi": 53,
            "name": "F3",
            "ticks": 35280,
            "time": 110.2499265,
            "velocity": 0.6299212598425197
          },
          {
            "duration": 0.7468745020833438,
            "durationTicks": 239,
            "midi": 65,
            "name": "F4",
            "ticks": 35280,
            "time": 110.2499265,
            "velocity": 0.6299212598425197
          },
          {
            "duration": 0.7093745270833267,
            "durationTicks": 227,
            "midi": 53,
            "name": "F3",
            "ticks": 35520,
            "time": 110.999926,
            "velocity": 0.6299212598425197
          },
          {
            "duration": 0.7093745270833267,
            "durationTicks": 227,
            "midi": 65,
            "name": "F4",
            "ticks": 35520,
            "time": 110.999926,
            "velocity": 0.6299212598425197
          },
          {
            "duration": 1.4218740520833393,
            "durationTicks": 455,
            "midi": 61,
            "name": "C#4",
            "ticks": 35520,
            "time": 110.999926,
            "velocity": 0.6299212598425197
          },
          {
            "duration": 0.7093745270833267,
            "durationTicks": 227,
            "midi": 55,
            "name": "G3",
            "ticks": 35760,
            "time": 111.7499255,
            "velocity": 0.6299212598425197
          },
          {
            "duration": 0.7093745270833267,
            "durationTicks": 227,
            "midi": 67,
            "name": "G4",
            "ticks": 35760,
            "time": 111.7499255,
            "velocity": 0.6299212598425197
          },
          {
            "duration": 0.7093745270833267,
            "durationTicks": 227,
            "midi": 56,
            "name": "G#3",
            "ticks": 36000,
            "time": 112.499925,
            "velocity": 0.6299212598425197
          },
          {
            "duration": 0.7093745270833267,
            "durationTicks": 227,
            "midi": 68,
            "name": "G#4",
            "ticks": 36000,
            "time": 112.499925,
            "velocity": 0.6299212598425197
          },
          {
            "duration": 1.4218740520833393,
            "durationTicks": 455,
            "midi": 65,
            "name": "F4",
            "ticks": 36000,
            "time": 112.499925,
            "velocity": 0.6299212598425197
          },
          {
            "duration": 0.7093745270833267,
            "durationTicks": 227,
            "midi": 58,
            "name": "A#3",
            "ticks": 36240,
            "time": 113.2499245,
            "velocity": 0.6299212598425197
          },
          {
            "duration": 0.7093745270833267,
            "durationTicks": 227,
            "midi": 70,
            "name": "A#4",
            "ticks": 36240,
            "time": 113.2499245,
            "velocity": 0.6299212598425197
          },
          {
            "duration": 1.4218740520833393,
            "durationTicks": 455,
            "midi": 59,
            "name": "B3",
            "ticks": 36480,
            "time": 113.99992400000001,
            "velocity": 0.6299212598425197
          },
          {
            "duration": 1.4218740520833393,
            "durationTicks": 455,
            "midi": 71,
            "name": "B4",
            "ticks": 36480,
            "time": 113.99992400000001,
            "velocity": 0.6299212598425197
          },
          {
            "duration": 0.7093745270833267,
            "durationTicks": 227,
            "midi": 65,
            "name": "F4",
            "ticks": 36480,
            "time": 113.99992400000001,
            "velocity": 0.6299212598425197
          },
          {
            "duration": 0.7093745270833267,
            "durationTicks": 227,
            "midi": 67,
            "name": "G4",
            "ticks": 36480,
            "time": 113.99992400000001,
            "velocity": 0.6299212598425197
          },
          {
            "duration": 0.7093745270833267,
            "durationTicks": 227,
            "midi": 65,
            "name": "F4",
            "ticks": 36720,
            "time": 114.74992350000001,
            "velocity": 0.6299212598425197
          },
          {
            "duration": 0.7093745270833267,
            "durationTicks": 227,
            "midi": 67,
            "name": "G4",
            "ticks": 36720,
            "time": 114.74992350000001,
            "velocity": 0.6299212598425197
          },
          {
            "duration": 0.7093745270833267,
            "durationTicks": 227,
            "midi": 59,
            "name": "B3",
            "ticks": 36960,
            "time": 115.49992300000001,
            "velocity": 0.6299212598425197
          },
          {
            "duration": 0.7093745270833267,
            "durationTicks": 227,
            "midi": 71,
            "name": "B4",
            "ticks": 36960,
            "time": 115.49992300000001,
            "velocity": 0.6299212598425197
          },
          {
            "duration": 0.7093745270833267,
            "durationTicks": 227,
            "midi": 65,
            "name": "F4",
            "ticks": 36960,
            "time": 115.49992300000001,
            "velocity": 0.6299212598425197
          },
          {
            "duration": 0.7093745270833267,
            "durationTicks": 227,
            "midi": 67,
            "name": "G4",
            "ticks": 36960,
            "time": 115.49992300000001,
            "velocity": 0.6299212598425197
          },
          {
            "duration": 0.7468745020833296,
            "durationTicks": 239,
            "midi": 60,
            "name": "C4",
            "ticks": 37200,
            "time": 116.24992250000001,
            "velocity": 0.6299212598425197
          },
          {
            "duration": 0.7468745020833296,
            "durationTicks": 239,
            "midi": 72,
            "name": "C5",
            "ticks": 37200,
            "time": 116.24992250000001,
            "velocity": 0.6299212598425197
          },
          {
            "duration": 0.7468745020833296,
            "durationTicks": 239,
            "midi": 65,
            "name": "F4",
            "ticks": 37200,
            "time": 116.24992250000001,
            "velocity": 0.6299212598425197
          },
          {
            "duration": 0.7468745020833296,
            "durationTicks": 239,
            "midi": 67,
            "name": "G4",
            "ticks": 37200,
            "time": 116.24992250000001,
            "velocity": 0.6299212598425197
          },
          {
            "duration": 2.1343735770833234,
            "durationTicks": 683,
            "midi": 60,
            "name": "C4",
            "ticks": 37440,
            "time": 116.99992200000001,
            "velocity": 0.6299212598425197
          },
          {
            "duration": 2.1343735770833234,
            "durationTicks": 683,
            "midi": 72,
            "name": "C5",
            "ticks": 37440,
            "time": 116.99992200000001,
            "velocity": 0.6299212598425197
          },
          {
            "duration": 0.35312476458332753,
            "durationTicks": 113,
            "midi": 65,
            "name": "F4",
            "ticks": 37440,
            "time": 116.99992200000001,
            "velocity": 0.6299212598425197
          },
          {
            "duration": 0.35312476458332753,
            "durationTicks": 113,
            "midi": 67,
            "name": "G4",
            "ticks": 37440,
            "time": 116.99992200000001,
            "velocity": 0.6299212598425197
          },
          {
            "duration": 0.35312476458332753,
            "durationTicks": 113,
            "midi": 65,
            "name": "F4",
            "ticks": 37560,
            "time": 117.37492175000001,
            "velocity": 0.6299212598425197
          },
          {
            "duration": 0.35312476458332753,
            "durationTicks": 113,
            "midi": 67,
            "name": "G4",
            "ticks": 37560,
            "time": 117.37492175000001,
            "velocity": 0.6299212598425197
          },
          {
            "duration": 0.35312476458332753,
            "durationTicks": 113,
            "midi": 65,
            "name": "F4",
            "ticks": 37680,
            "time": 117.74992150000001,
            "velocity": 0.6299212598425197
          },
          {
            "duration": 0.35312476458332753,
            "durationTicks": 113,
            "midi": 67,
            "name": "G4",
            "ticks": 37680,
            "time": 117.74992150000001,
            "velocity": 0.6299212598425197
          },
          {
            "duration": 0.35312476458334174,
            "durationTicks": 113,
            "midi": 65,
            "name": "F4",
            "ticks": 37800,
            "time": 118.12492125,
            "velocity": 0.6299212598425197
          },
          {
            "duration": 0.35312476458334174,
            "durationTicks": 113,
            "midi": 67,
            "name": "G4",
            "ticks": 37800,
            "time": 118.12492125,
            "velocity": 0.6299212598425197
          },
          {
            "duration": 0.35312476458334174,
            "durationTicks": 113,
            "midi": 64,
            "name": "E4",
            "ticks": 37920,
            "time": 118.499921,
            "velocity": 0.6299212598425197
          },
          {
            "duration": 0.35312476458334174,
            "durationTicks": 113,
            "midi": 67,
            "name": "G4",
            "ticks": 37920,
            "time": 118.499921,
            "velocity": 0.6299212598425197
          },
          {
            "duration": 0.35312476458334174,
            "durationTicks": 113,
            "midi": 64,
            "name": "E4",
            "ticks": 38040,
            "time": 118.87492075,
            "velocity": 0.6299212598425197
          },
          {
            "duration": 0.35312476458334174,
            "durationTicks": 113,
            "midi": 67,
            "name": "G4",
            "ticks": 38040,
            "time": 118.87492075,
            "velocity": 0.6299212598425197
          },
          {
            "duration": 0.7093745270833267,
            "durationTicks": 227,
            "midi": 67,
            "name": "G4",
            "ticks": 38160,
            "time": 119.2499205,
            "velocity": 0.6299212598425197
          },
          {
            "duration": 0.7093745270833267,
            "durationTicks": 227,
            "midi": 79,
            "name": "G5",
            "ticks": 38160,
            "time": 119.2499205,
            "velocity": 0.6299212598425197
          },
          {
            "duration": 0.35312476458334174,
            "durationTicks": 113,
            "midi": 72,
            "name": "C5",
            "ticks": 38160,
            "time": 119.2499205,
            "velocity": 0.6299212598425197
          },
          {
            "duration": 0.35312476458334174,
            "durationTicks": 113,
            "midi": 72,
            "name": "C5",
            "ticks": 38280,
            "time": 119.62492025,
            "velocity": 0.6299212598425197
          },
          {
            "duration": 0.3718747520833432,
            "durationTicks": 119,
            "midi": 80,
            "name": "G#5",
            "ticks": 38400,
            "time": 119.99992,
            "velocity": 0.6299212598425197
          },
          {
            "duration": 0.7468745020833438,
            "durationTicks": 239,
            "midi": 68,
            "name": "G#4",
            "ticks": 38400,
            "time": 119.99992,
            "velocity": 0.6299212598425197
          },
          {
            "duration": 0.35312476458334174,
            "durationTicks": 113,
            "midi": 79,
            "name": "G5",
            "ticks": 38520,
            "time": 120.37491975,
            "velocity": 0.6299212598425197
          },
          {
            "duration": 0.35312476458332753,
            "durationTicks": 113,
            "midi": 77,
            "name": "F5",
            "ticks": 38640,
            "time": 120.7499195,
            "velocity": 0.6299212598425197
          },
          {
            "duration": 0.7093745270833267,
            "durationTicks": 227,
            "midi": 68,
            "name": "G#4",
            "ticks": 38640,
            "time": 120.7499195,
            "velocity": 0.6299212598425197
          },
          {
            "duration": 0.3718747520833432,
            "durationTicks": 119,
            "midi": 72,
            "name": "C5",
            "ticks": 38760,
            "time": 121.12491925,
            "velocity": 0.6299212598425197
          },
          {
            "duration": 0.35312476458332753,
            "durationTicks": 113,
            "midi": 72,
            "name": "C5",
            "ticks": 38880,
            "time": 121.499919,
            "velocity": 0.6299212598425197
          },
          {
            "duration": 0.7093745270833267,
            "durationTicks": 227,
            "midi": 68,
            "name": "G#4",
            "ticks": 38880,
            "time": 121.499919,
            "velocity": 0.6299212598425197
          },
          {
            "duration": 0.3718747520833432,
            "durationTicks": 119,
            "midi": 77,
            "name": "F5",
            "ticks": 39000,
            "time": 121.87491875,
            "velocity": 0.6299212598425197
          },
          {
            "duration": 0.35312476458332753,
            "durationTicks": 113,
            "midi": 79,
            "name": "G5",
            "ticks": 39120,
            "time": 122.2499185,
            "velocity": 0.6299212598425197
          },
          {
            "duration": 0.7093745270833267,
            "durationTicks": 227,
            "midi": 68,
            "name": "G#4",
            "ticks": 39120,
            "time": 122.2499185,
            "velocity": 0.6299212598425197
          },
          {
            "duration": 0.35312476458332753,
            "durationTicks": 113,
            "midi": 80,
            "name": "G#5",
            "ticks": 39240,
            "time": 122.62491825000001,
            "velocity": 0.6299212598425197
          },
          {
            "duration": 0.371874752083329,
            "durationTicks": 119,
            "midi": 80,
            "name": "G#5",
            "ticks": 39360,
            "time": 122.99991800000001,
            "velocity": 0.6299212598425197
          },
          {
            "duration": 0.7468745020833296,
            "durationTicks": 239,
            "midi": 68,
            "name": "G#4",
            "ticks": 39360,
            "time": 122.99991800000001,
            "velocity": 0.6299212598425197
          },
          {
            "duration": 0.35312476458332753,
            "durationTicks": 113,
            "midi": 79,
            "name": "G5",
            "ticks": 39480,
            "time": 123.37491775000001,
            "velocity": 0.6299212598425197
          },
          {
            "duration": 0.35312476458332753,
            "durationTicks": 113,
            "midi": 77,
            "name": "F5",
            "ticks": 39600,
            "time": 123.74991750000001,
            "velocity": 0.6299212598425197
          },
          {
            "duration": 0.7093745270833267,
            "durationTicks": 227,
            "midi": 68,
            "name": "G#4",
            "ticks": 39600,
            "time": 123.74991750000001,
            "velocity": 0.6299212598425197
          },
          {
            "duration": 0.371874752083329,
            "durationTicks": 119,
            "midi": 70,
            "name": "A#4",
            "ticks": 39720,
            "time": 124.12491725000001,
            "velocity": 0.6299212598425197
          },
          {
            "duration": 0.35312476458332753,
            "durationTicks": 113,
            "midi": 70,
            "name": "A#4",
            "ticks": 39840,
            "time": 124.49991700000001,
            "velocity": 0.6299212598425197
          },
          {
            "duration": 0.7093745270833267,
            "durationTicks": 227,
            "midi": 68,
            "name": "G#4",
            "ticks": 39840,
            "time": 124.49991700000001,
            "velocity": 0.6299212598425197
          },
          {
            "duration": 0.371874752083329,
            "durationTicks": 119,
            "midi": 77,
            "name": "F5",
            "ticks": 39960,
            "time": 124.87491675000001,
            "velocity": 0.6299212598425197
          },
          {
            "duration": 0.35312476458332753,
            "durationTicks": 113,
            "midi": 79,
            "name": "G5",
            "ticks": 40080,
            "time": 125.24991650000001,
            "velocity": 0.6299212598425197
          },
          {
            "duration": 0.7093745270833267,
            "durationTicks": 227,
            "midi": 68,
            "name": "G#4",
            "ticks": 40080,
            "time": 125.24991650000001,
            "velocity": 0.6299212598425197
          },
          {
            "duration": 0.35312476458332753,
            "durationTicks": 113,
            "midi": 80,
            "name": "G#5",
            "ticks": 40200,
            "time": 125.62491625000001,
            "velocity": 0.6299212598425197
          },
          {
            "duration": 0.371874752083329,
            "durationTicks": 119,
            "midi": 79,
            "name": "G5",
            "ticks": 40320,
            "time": 125.99991600000001,
            "velocity": 0.6299212598425197
          },
          {
            "duration": 0.7468745020833296,
            "durationTicks": 239,
            "midi": 67,
            "name": "G4",
            "ticks": 40320,
            "time": 125.99991600000001,
            "velocity": 0.6299212598425197
          },
          {
            "duration": 0.35312476458332753,
            "durationTicks": 113,
            "midi": 77,
            "name": "F5",
            "ticks": 40440,
            "time": 126.37491575000001,
            "velocity": 0.6299212598425197
          },
          {
            "duration": 0.35312476458334174,
            "durationTicks": 113,
            "midi": 75,
            "name": "D#5",
            "ticks": 40560,
            "time": 126.7499155,
            "velocity": 0.6299212598425197
          },
          {
            "duration": 0.7093745270833409,
            "durationTicks": 227,
            "midi": 67,
            "name": "G4",
            "ticks": 40560,
            "time": 126.7499155,
            "velocity": 0.6299212598425197
          },
          {
            "duration": 0.3718747520833432,
            "durationTicks": 119,
            "midi": 70,
            "name": "A#4",
            "ticks": 40680,
            "time": 127.12491525,
            "velocity": 0.6299212598425197
          },
          {
            "duration": 0.35312476458334174,
            "durationTicks": 113,
            "midi": 70,
            "name": "A#4",
            "ticks": 40800,
            "time": 127.499915,
            "velocity": 0.6299212598425197
          },
          {
            "duration": 0.7093745270833409,
            "durationTicks": 227,
            "midi": 67,
            "name": "G4",
            "ticks": 40800,
            "time": 127.499915,
            "velocity": 0.6299212598425197
          },
          {
            "duration": 0.3718747520833432,
            "durationTicks": 119,
            "midi": 75,
            "name": "D#5",
            "ticks": 40920,
            "time": 127.87491475,
            "velocity": 0.6299212598425197
          },
          {
            "duration": 0.35312476458332753,
            "durationTicks": 113,
            "midi": 77,
            "name": "F5",
            "ticks": 41040,
            "time": 128.24991450000002,
            "velocity": 0.6299212598425197
          },
          {
            "duration": 0.7093745270833267,
            "durationTicks": 227,
            "midi": 67,
            "name": "G4",
            "ticks": 41040,
            "time": 128.24991450000002,
            "velocity": 0.6299212598425197
          },
          {
            "duration": 0.35312476458332753,
            "durationTicks": 113,
            "midi": 79,
            "name": "G5",
            "ticks": 41160,
            "time": 128.62491425000002,
            "velocity": 0.6299212598425197
          },
          {
            "duration": 0.371874752083329,
            "durationTicks": 119,
            "midi": 79,
            "name": "G5",
            "ticks": 41280,
            "time": 128.99991400000002,
            "velocity": 0.6299212598425197
          },
          {
            "duration": 0.7468745020833296,
            "durationTicks": 239,
            "midi": 67,
            "name": "G4",
            "ticks": 41280,
            "time": 128.99991400000002,
            "velocity": 0.6299212598425197
          },
          {
            "duration": 0.35312476458332753,
            "durationTicks": 113,
            "midi": 77,
            "name": "F5",
            "ticks": 41400,
            "time": 129.37491375000002,
            "velocity": 0.6299212598425197
          },
          {
            "duration": 0.35312476458332753,
            "durationTicks": 113,
            "midi": 75,
            "name": "D#5",
            "ticks": 41520,
            "time": 129.74991350000002,
            "velocity": 0.6299212598425197
          },
          {
            "duration": 0.7093745270833267,
            "durationTicks": 227,
            "midi": 67,
            "name": "G4",
            "ticks": 41520,
            "time": 129.74991350000002,
            "velocity": 0.6299212598425197
          },
          {
            "duration": 0.371874752083329,
            "durationTicks": 119,
            "midi": 68,
            "name": "G#4",
            "ticks": 41640,
            "time": 130.12491325000002,
            "velocity": 0.6299212598425197
          },
          {
            "duration": 0.35312476458332753,
            "durationTicks": 113,
            "midi": 68,
            "name": "G#4",
            "ticks": 41760,
            "time": 130.49991300000002,
            "velocity": 0.6299212598425197
          },
          {
            "duration": 0.7093745270833267,
            "durationTicks": 227,
            "midi": 67,
            "name": "G4",
            "ticks": 41760,
            "time": 130.49991300000002,
            "velocity": 0.6299212598425197
          },
          {
            "duration": 0.371874752083329,
            "durationTicks": 119,
            "midi": 75,
            "name": "D#5",
            "ticks": 41880,
            "time": 130.87491275000002,
            "velocity": 0.6299212598425197
          },
          {
            "duration": 0.35312476458335595,
            "durationTicks": 113,
            "midi": 77,
            "name": "F5",
            "ticks": 42000,
            "time": 131.2499125,
            "velocity": 0.6299212598425197
          },
          {
            "duration": 0.7093745270833551,
            "durationTicks": 227,
            "midi": 67,
            "name": "G4",
            "ticks": 42000,
            "time": 131.2499125,
            "velocity": 0.6299212598425197
          },
          {
            "duration": 0.35312476458335595,
            "durationTicks": 113,
            "midi": 79,
            "name": "G5",
            "ticks": 42120,
            "time": 131.62491225,
            "velocity": 0.6299212598425197
          },
          {
            "duration": 0.3718747520833574,
            "durationTicks": 119,
            "midi": 77,
            "name": "F5",
            "ticks": 42240,
            "time": 131.999912,
            "velocity": 0.6299212598425197
          },
          {
            "duration": 0.746874502083358,
            "durationTicks": 239,
            "midi": 65,
            "name": "F4",
            "ticks": 42240,
            "time": 131.999912,
            "velocity": 0.6299212598425197
          },
          {
            "duration": 0.35312476458335595,
            "durationTicks": 113,
            "midi": 75,
            "name": "D#5",
            "ticks": 42360,
            "time": 132.37491175,
            "velocity": 0.6299212598425197
          },
          {
            "duration": 0.35312476458335595,
            "durationTicks": 113,
            "midi": 73,
            "name": "C#5",
            "ticks": 42480,
            "time": 132.7499115,
            "velocity": 0.6299212598425197
          },
          {
            "duration": 0.7093745270833267,
            "durationTicks": 227,
            "midi": 65,
            "name": "F4",
            "ticks": 42480,
            "time": 132.7499115,
            "velocity": 0.6299212598425197
          },
          {
            "duration": 0.3718747520833574,
            "durationTicks": 119,
            "midi": 68,
            "name": "G#4",
            "ticks": 42600,
            "time": 133.12491125,
            "velocity": 0.6299212598425197
          },
          {
            "duration": 0.35312476458335595,
            "durationTicks": 113,
            "midi": 68,
            "name": "G#4",
            "ticks": 42720,
            "time": 133.499911,
            "velocity": 0.6299212598425197
          },
          {
            "duration": 0.7093745270833267,
            "durationTicks": 227,
            "midi": 65,
            "name": "F4",
            "ticks": 42720,
            "time": 133.499911,
            "velocity": 0.6299212598425197
          },
          {
            "duration": 0.3718747520833574,
            "durationTicks": 119,
            "midi": 73,
            "name": "C#5",
            "ticks": 42840,
            "time": 133.87491075,
            "velocity": 0.6299212598425197
          },
          {
            "duration": 0.35312476458332753,
            "durationTicks": 113,
            "midi": 75,
            "name": "D#5",
            "ticks": 42960,
            "time": 134.2499105,
            "velocity": 0.6299212598425197
          },
          {
            "duration": 0.7093745270833267,
            "durationTicks": 227,
            "midi": 65,
            "name": "F4",
            "ticks": 42960,
            "time": 134.2499105,
            "velocity": 0.6299212598425197
          },
          {
            "duration": 0.35312476458332753,
            "durationTicks": 113,
            "midi": 77,
            "name": "F5",
            "ticks": 43080,
            "time": 134.62491025,
            "velocity": 0.6299212598425197
          },
          {
            "duration": 0.35312476458332753,
            "durationTicks": 113,
            "midi": 79,
            "name": "G5",
            "ticks": 43200,
            "time": 134.99991,
            "velocity": 0.6299212598425197
          },
          {
            "duration": 1.065624289583326,
            "durationTicks": 341,
            "midi": 67,
            "name": "G4",
            "ticks": 43200,
            "time": 134.99991,
            "velocity": 0.6299212598425197
          },
          {
            "duration": 0.35312476458332753,
            "durationTicks": 113,
            "midi": 77,
            "name": "F5",
            "ticks": 43320,
            "time": 135.37490975,
            "velocity": 0.6299212598425197
          },
          {
            "duration": 0.35312476458332753,
            "durationTicks": 113,
            "midi": 79,
            "name": "G5",
            "ticks": 43440,
            "time": 135.7499095,
            "velocity": 0.6299212598425197
          },
          {
            "duration": 0.371874752083329,
            "durationTicks": 119,
            "midi": 80,
            "name": "G#5",
            "ticks": 43560,
            "time": 136.12490925,
            "velocity": 0.6299212598425197
          },
          {
            "duration": 0.371874752083329,
            "durationTicks": 119,
            "midi": 68,
            "name": "G#4",
            "ticks": 43560,
            "time": 136.12490925,
            "velocity": 0.6299212598425197
          },
          {
            "duration": 0.35312476458332753,
            "durationTicks": 113,
            "midi": 80,
            "name": "G#5",
            "ticks": 43680,
            "time": 136.499909,
            "velocity": 0.6299212598425197
          },
          {
            "duration": 0.35312476458332753,
            "durationTicks": 113,
            "midi": 68,
            "name": "G#4",
            "ticks": 43680,
            "time": 136.499909,
            "velocity": 0.6299212598425197
          },
          {
            "duration": 0.7093745270833267,
            "durationTicks": 227,
            "midi": 79,
            "name": "G5",
            "ticks": 43800,
            "time": 136.87490875,
            "velocity": 0.6299212598425197
          },
          {
            "duration": 0.7093745270833267,
            "durationTicks": 227,
            "midi": 67,
            "name": "G4",
            "ticks": 43800,
            "time": 136.87490875,
            "velocity": 0.6299212598425197
          },
          {
            "duration": 0.35312476458332753,
            "durationTicks": 113,
            "midi": 77,
            "name": "F5",
            "ticks": 44040,
            "time": 137.62490825,
            "velocity": 0.6299212598425197
          },
          {
            "duration": 0.35312476458332753,
            "durationTicks": 113,
            "midi": 65,
            "name": "F4",
            "ticks": 44040,
            "time": 137.62490825,
            "velocity": 0.6299212598425197
          },
          {
            "duration": 0.371874752083329,
            "durationTicks": 119,
            "midi": 79,
            "name": "G5",
            "ticks": 44160,
            "time": 137.999908,
            "velocity": 0.6299212598425197
          },
          {
            "duration": 1.1218742520833302,
            "durationTicks": 359,
            "midi": 67,
            "name": "G4",
            "ticks": 44160,
            "time": 137.999908,
            "velocity": 0.6299212598425197
          },
          {
            "duration": 0.35312476458332753,
            "durationTicks": 113,
            "midi": 77,
            "name": "F5",
            "ticks": 44280,
            "time": 138.37490775,
            "velocity": 0.6299212598425197
          },
          {
            "duration": 0.35312476458332753,
            "durationTicks": 113,
            "midi": 79,
            "name": "G5",
            "ticks": 44400,
            "time": 138.7499075,
            "velocity": 0.6299212598425197
          },
          {
            "duration": 0.371874752083329,
            "durationTicks": 119,
            "midi": 80,
            "name": "G#5",
            "ticks": 44520,
            "time": 139.12490725,
            "velocity": 0.6299212598425197
          },
          {
            "duration": 0.371874752083329,
            "durationTicks": 119,
            "midi": 68,
            "name": "G#4",
            "ticks": 44520,
            "time": 139.12490725,
            "velocity": 0.6299212598425197
          },
          {
            "duration": 0.35312476458332753,
            "durationTicks": 113,
            "midi": 80,
            "name": "G#5",
            "ticks": 44640,
            "time": 139.499907,
            "velocity": 0.6299212598425197
          },
          {
            "duration": 0.35312476458332753,
            "durationTicks": 113,
            "midi": 68,
            "name": "G#4",
            "ticks": 44640,
            "time": 139.499907,
            "velocity": 0.6299212598425197
          },
          {
            "duration": 0.7093745270833267,
            "durationTicks": 227,
            "midi": 79,
            "name": "G5",
            "ticks": 44760,
            "time": 139.87490675,
            "velocity": 0.6299212598425197
          },
          {
            "duration": 0.7093745270833267,
            "durationTicks": 227,
            "midi": 67,
            "name": "G4",
            "ticks": 44760,
            "time": 139.87490675,
            "velocity": 0.6299212598425197
          },
          {
            "duration": 0.35312476458332753,
            "durationTicks": 113,
            "midi": 77,
            "name": "F5",
            "ticks": 45000,
            "time": 140.62490625,
            "velocity": 0.6299212598425197
          },
          {
            "duration": 0.35312476458332753,
            "durationTicks": 113,
            "midi": 65,
            "name": "F4",
            "ticks": 45000,
            "time": 140.62490625,
            "velocity": 0.6299212598425197
          },
          {
            "duration": 0.371874752083329,
            "durationTicks": 119,
            "midi": 77,
            "name": "F5",
            "ticks": 45120,
            "time": 140.999906,
            "velocity": 0.6299212598425197
          },
          {
            "duration": 0.371874752083329,
            "durationTicks": 119,
            "midi": 79,
            "name": "G5",
            "ticks": 45120,
            "time": 140.999906,
            "velocity": 0.6299212598425197
          },
          {
            "duration": 0.35312476458332753,
            "durationTicks": 113,
            "midi": 77,
            "name": "F5",
            "ticks": 45240,
            "time": 141.37490575,
            "velocity": 0.6299212598425197
          },
          {
            "duration": 0.35312476458332753,
            "durationTicks": 113,
            "midi": 79,
            "name": "G5",
            "ticks": 45240,
            "time": 141.37490575,
            "velocity": 0.6299212598425197
          },
          {
            "duration": 0.35312476458332753,
            "durationTicks": 113,
            "midi": 84,
            "name": "C6",
            "ticks": 45240,
            "time": 141.37490575,
            "velocity": 0.6299212598425197
          },
          {
            "duration": 0.35312476458332753,
            "durationTicks": 113,
            "midi": 77,
            "name": "F5",
            "ticks": 45360,
            "time": 141.7499055,
            "velocity": 0.6299212598425197
          },
          {
            "duration": 0.35312476458332753,
            "durationTicks": 113,
            "midi": 79,
            "name": "G5",
            "ticks": 45360,
            "time": 141.7499055,
            "velocity": 0.6299212598425197
          },
          {
            "duration": 0.35312476458332753,
            "durationTicks": 113,
            "midi": 84,
            "name": "C6",
            "ticks": 45360,
            "time": 141.7499055,
            "velocity": 0.6299212598425197
          },
          {
            "duration": 0.35312476458332753,
            "durationTicks": 113,
            "midi": 77,
            "name": "F5",
            "ticks": 45480,
            "time": 142.12490525,
            "velocity": 0.6299212598425197
          },
          {
            "duration": 0.35312476458332753,
            "durationTicks": 113,
            "midi": 79,
            "name": "G5",
            "ticks": 45480,
            "time": 142.12490525,
            "velocity": 0.6299212598425197
          },
          {
            "duration": 0.35312476458332753,
            "durationTicks": 113,
            "midi": 84,
            "name": "C6",
            "ticks": 45480,
            "time": 142.12490525,
            "velocity": 0.6299212598425197
          },
          {
            "duration": 0.35312476458332753,
            "durationTicks": 113,
            "midi": 76,
            "name": "E5",
            "ticks": 45600,
            "time": 142.499905,
            "velocity": 0.6299212598425197
          },
          {
            "duration": 0.35312476458332753,
            "durationTicks": 113,
            "midi": 79,
            "name": "G5",
            "ticks": 45600,
            "time": 142.499905,
            "velocity": 0.6299212598425197
          },
          {
            "duration": 0.35312476458332753,
            "durationTicks": 113,
            "midi": 84,
            "name": "C6",
            "ticks": 45600,
            "time": 142.499905,
            "velocity": 0.6299212598425197
          },
          {
            "duration": 0.35312476458332753,
            "durationTicks": 113,
            "midi": 76,
            "name": "E5",
            "ticks": 45720,
            "time": 142.87490475,
            "velocity": 0.6299212598425197
          },
          {
            "duration": 0.35312476458332753,
            "durationTicks": 113,
            "midi": 79,
            "name": "G5",
            "ticks": 45720,
            "time": 142.87490475,
            "velocity": 0.6299212598425197
          },
          {
            "duration": 0.35312476458332753,
            "durationTicks": 113,
            "midi": 84,
            "name": "C6",
            "ticks": 45720,
            "time": 142.87490475,
            "velocity": 0.6299212598425197
          },
          {
            "duration": 0.35312476458332753,
            "durationTicks": 113,
            "midi": 76,
            "name": "E5",
            "ticks": 45840,
            "time": 143.2499045,
            "velocity": 0.6299212598425197
          },
          {
            "duration": 0.35312476458332753,
            "durationTicks": 113,
            "midi": 79,
            "name": "G5",
            "ticks": 45840,
            "time": 143.2499045,
            "velocity": 0.6299212598425197
          },
          {
            "duration": 0.35312476458332753,
            "durationTicks": 113,
            "midi": 84,
            "name": "C6",
            "ticks": 45840,
            "time": 143.2499045,
            "velocity": 0.6299212598425197
          },
          {
            "duration": 0.35312476458332753,
            "durationTicks": 113,
            "midi": 76,
            "name": "E5",
            "ticks": 45960,
            "time": 143.62490425000001,
            "velocity": 0.6299212598425197
          },
          {
            "duration": 0.35312476458332753,
            "durationTicks": 113,
            "midi": 79,
            "name": "G5",
            "ticks": 45960,
            "time": 143.62490425000001,
            "velocity": 0.6299212598425197
          },
          {
            "duration": 0.35312476458332753,
            "durationTicks": 113,
            "midi": 84,
            "name": "C6",
            "ticks": 45960,
            "time": 143.62490425000001,
            "velocity": 0.6299212598425197
          },
          {
            "duration": 0.371874752083329,
            "durationTicks": 119,
            "midi": 80,
            "name": "G#5",
            "ticks": 46080,
            "time": 143.99990400000002,
            "velocity": 0.6299212598425197
          },
          {
            "duration": 0.7468745020833296,
            "durationTicks": 239,
            "midi": 68,
            "name": "G#4",
            "ticks": 46080,
            "time": 143.99990400000002,
            "velocity": 0.6299212598425197
          },
          {
            "duration": 0.35312476458332753,
            "durationTicks": 113,
            "midi": 79,
            "name": "G5",
            "ticks": 46200,
            "time": 144.37490375000002,
            "velocity": 0.6299212598425197
          },
          {
            "duration": 0.35312476458332753,
            "durationTicks": 113,
            "midi": 77,
            "name": "F5",
            "ticks": 46320,
            "time": 144.74990350000002,
            "velocity": 0.6299212598425197
          },
          {
            "duration": 0.7093745270833267,
            "durationTicks": 227,
            "midi": 68,
            "name": "G#4",
            "ticks": 46320,
            "time": 144.74990350000002,
            "velocity": 0.6299212598425197
          },
          {
            "duration": 0.371874752083329,
            "durationTicks": 119,
            "midi": 72,
            "name": "C5",
            "ticks": 46440,
            "time": 145.12490325000002,
            "velocity": 0.6299212598425197
          },
          {
            "duration": 0.35312476458332753,
            "durationTicks": 113,
            "midi": 72,
            "name": "C5",
            "ticks": 46560,
            "time": 145.49990300000002,
            "velocity": 0.6299212598425197
          },
          {
            "duration": 0.7093745270833267,
            "durationTicks": 227,
            "midi": 68,
            "name": "G#4",
            "ticks": 46560,
            "time": 145.49990300000002,
            "velocity": 0.6299212598425197
          },
          {
            "duration": 0.371874752083329,
            "durationTicks": 119,
            "midi": 77,
            "name": "F5",
            "ticks": 46680,
            "time": 145.87490275000002,
            "velocity": 0.6299212598425197
          },
          {
            "duration": 0.35312476458332753,
            "durationTicks": 113,
            "midi": 79,
            "name": "G5",
            "ticks": 46800,
            "time": 146.24990250000002,
            "velocity": 0.6299212598425197
          },
          {
            "duration": 0.7093745270833267,
            "durationTicks": 227,
            "midi": 68,
            "name": "G#4",
            "ticks": 46800,
            "time": 146.24990250000002,
            "velocity": 0.6299212598425197
          },
          {
            "duration": 0.35312476458332753,
            "durationTicks": 113,
            "midi": 80,
            "name": "G#5",
            "ticks": 46920,
            "time": 146.62490225000002,
            "velocity": 0.6299212598425197
          },
          {
            "duration": 0.371874752083329,
            "durationTicks": 119,
            "midi": 80,
            "name": "G#5",
            "ticks": 47040,
            "time": 146.99990200000002,
            "velocity": 0.6299212598425197
          },
          {
            "duration": 0.7468745020833296,
            "durationTicks": 239,
            "midi": 68,
            "name": "G#4",
            "ticks": 47040,
            "time": 146.99990200000002,
            "velocity": 0.6299212598425197
          },
          {
            "duration": 0.35312476458332753,
            "durationTicks": 113,
            "midi": 79,
            "name": "G5",
            "ticks": 47160,
            "time": 147.37490175000002,
            "velocity": 0.6299212598425197
          },
          {
            "duration": 0.35312476458332753,
            "durationTicks": 113,
            "midi": 77,
            "name": "F5",
            "ticks": 47280,
            "time": 147.74990150000002,
            "velocity": 0.6299212598425197
          },
          {
            "duration": 0.7093745270833267,
            "durationTicks": 227,
            "midi": 68,
            "name": "G#4",
            "ticks": 47280,
            "time": 147.74990150000002,
            "velocity": 0.6299212598425197
          },
          {
            "duration": 0.371874752083329,
            "durationTicks": 119,
            "midi": 70,
            "name": "A#4",
            "ticks": 47400,
            "time": 148.12490125000002,
            "velocity": 0.6299212598425197
          },
          {
            "duration": 0.35312476458335595,
            "durationTicks": 113,
            "midi": 70,
            "name": "A#4",
            "ticks": 47520,
            "time": 148.499901,
            "velocity": 0.6299212598425197
          },
          {
            "duration": 0.7093745270833551,
            "durationTicks": 227,
            "midi": 68,
            "name": "G#4",
            "ticks": 47520,
            "time": 148.499901,
            "velocity": 0.6299212598425197
          },
          {
            "duration": 0.3718747520833574,
            "durationTicks": 119,
            "midi": 77,
            "name": "F5",
            "ticks": 47640,
            "time": 148.87490075,
            "velocity": 0.6299212598425197
          },
          {
            "duration": 0.35312476458335595,
            "durationTicks": 113,
            "midi": 79,
            "name": "G5",
            "ticks": 47760,
            "time": 149.2499005,
            "velocity": 0.6299212598425197
          },
          {
            "duration": 0.7093745270833267,
            "durationTicks": 227,
            "midi": 68,
            "name": "G#4",
            "ticks": 47760,
            "time": 149.2499005,
            "velocity": 0.6299212598425197
          },
          {
            "duration": 0.35312476458335595,
            "durationTicks": 113,
            "midi": 80,
            "name": "G#5",
            "ticks": 47880,
            "time": 149.62490025,
            "velocity": 0.6299212598425197
          },
          {
            "duration": 0.3718747520833574,
            "durationTicks": 119,
            "midi": 79,
            "name": "G5",
            "ticks": 48000,
            "time": 149.9999,
            "velocity": 0.6299212598425197
          },
          {
            "duration": 0.746874502083358,
            "durationTicks": 239,
            "midi": 67,
            "name": "G4",
            "ticks": 48000,
            "time": 149.9999,
            "velocity": 0.6299212598425197
          },
          {
            "duration": 0.35312476458335595,
            "durationTicks": 113,
            "midi": 77,
            "name": "F5",
            "ticks": 48120,
            "time": 150.37489975,
            "velocity": 0.6299212598425197
          },
          {
            "duration": 0.35312476458335595,
            "durationTicks": 113,
            "midi": 75,
            "name": "D#5",
            "ticks": 48240,
            "time": 150.7498995,
            "velocity": 0.6299212598425197
          },
          {
            "duration": 0.7093745270833267,
            "durationTicks": 227,
            "midi": 67,
            "name": "G4",
            "ticks": 48240,
            "time": 150.7498995,
            "velocity": 0.6299212598425197
          },
          {
            "duration": 0.3718747520833574,
            "durationTicks": 119,
            "midi": 70,
            "name": "A#4",
            "ticks": 48360,
            "time": 151.12489925,
            "velocity": 0.6299212598425197
          },
          {
            "duration": 0.35312476458332753,
            "durationTicks": 113,
            "midi": 70,
            "name": "A#4",
            "ticks": 48480,
            "time": 151.499899,
            "velocity": 0.6299212598425197
          },
          {
            "duration": 0.7093745270833267,
            "durationTicks": 227,
            "midi": 67,
            "name": "G4",
            "ticks": 48480,
            "time": 151.499899,
            "velocity": 0.6299212598425197
          },
          {
            "duration": 0.3718747520833574,
            "durationTicks": 119,
            "midi": 75,
            "name": "D#5",
            "ticks": 48600,
            "time": 151.87489875,
            "velocity": 0.6299212598425197
          },
          {
            "duration": 0.35312476458332753,
            "durationTicks": 113,
            "midi": 77,
            "name": "F5",
            "ticks": 48720,
            "time": 152.2498985,
            "velocity": 0.6299212598425197
          },
          {
            "duration": 0.7093745270833267,
            "durationTicks": 227,
            "midi": 67,
            "name": "G4",
            "ticks": 48720,
            "time": 152.2498985,
            "velocity": 0.6299212598425197
          },
          {
            "duration": 0.35312476458332753,
            "durationTicks": 113,
            "midi": 79,
            "name": "G5",
            "ticks": 48840,
            "time": 152.62489825,
            "velocity": 0.6299212598425197
          },
          {
            "duration": 0.371874752083329,
            "durationTicks": 119,
            "midi": 79,
            "name": "G5",
            "ticks": 48960,
            "time": 152.999898,
            "velocity": 0.6299212598425197
          },
          {
            "duration": 0.7468745020833296,
            "durationTicks": 239,
            "midi": 67,
            "name": "G4",
            "ticks": 48960,
            "time": 152.999898,
            "velocity": 0.6299212598425197
          },
          {
            "duration": 0.35312476458332753,
            "durationTicks": 113,
            "midi": 77,
            "name": "F5",
            "ticks": 49080,
            "time": 153.37489775,
            "velocity": 0.6299212598425197
          },
          {
            "duration": 0.35312476458332753,
            "durationTicks": 113,
            "midi": 75,
            "name": "D#5",
            "ticks": 49200,
            "time": 153.7498975,
            "velocity": 0.6299212598425197
          },
          {
            "duration": 0.7093745270833267,
            "durationTicks": 227,
            "midi": 67,
            "name": "G4",
            "ticks": 49200,
            "time": 153.7498975,
            "velocity": 0.6299212598425197
          },
          {
            "duration": 0.371874752083329,
            "durationTicks": 119,
            "midi": 68,
            "name": "G#4",
            "ticks": 49320,
            "time": 154.12489725,
            "velocity": 0.6299212598425197
          },
          {
            "duration": 0.35312476458332753,
            "durationTicks": 113,
            "midi": 68,
            "name": "G#4",
            "ticks": 49440,
            "time": 154.499897,
            "velocity": 0.6299212598425197
          },
          {
            "duration": 0.7093745270833267,
            "durationTicks": 227,
            "midi": 67,
            "name": "G4",
            "ticks": 49440,
            "time": 154.499897,
            "velocity": 0.6299212598425197
          },
          {
            "duration": 0.371874752083329,
            "durationTicks": 119,
            "midi": 75,
            "name": "D#5",
            "ticks": 49560,
            "time": 154.87489675,
            "velocity": 0.6299212598425197
          },
          {
            "duration": 0.35312476458332753,
            "durationTicks": 113,
            "midi": 77,
            "name": "F5",
            "ticks": 49680,
            "time": 155.2498965,
            "velocity": 0.6299212598425197
          },
          {
            "duration": 0.7093745270833267,
            "durationTicks": 227,
            "midi": 67,
            "name": "G4",
            "ticks": 49680,
            "time": 155.2498965,
            "velocity": 0.6299212598425197
          },
          {
            "duration": 0.35312476458332753,
            "durationTicks": 113,
            "midi": 79,
            "name": "G5",
            "ticks": 49800,
            "time": 155.62489625,
            "velocity": 0.6299212598425197
          },
          {
            "duration": 0.371874752083329,
            "durationTicks": 119,
            "midi": 77,
            "name": "F5",
            "ticks": 49920,
            "time": 155.999896,
            "velocity": 0.6299212598425197
          },
          {
            "duration": 0.7468745020833296,
            "durationTicks": 239,
            "midi": 65,
            "name": "F4",
            "ticks": 49920,
            "time": 155.999896,
            "velocity": 0.6299212598425197
          },
          {
            "duration": 0.35312476458332753,
            "durationTicks": 113,
            "midi": 75,
            "name": "D#5",
            "ticks": 50040,
            "time": 156.37489575,
            "velocity": 0.6299212598425197
          },
          {
            "duration": 0.35312476458332753,
            "durationTicks": 113,
            "midi": 73,
            "name": "C#5",
            "ticks": 50160,
            "time": 156.7498955,
            "velocity": 0.6299212598425197
          },
          {
            "duration": 0.7093745270833267,
            "durationTicks": 227,
            "midi": 65,
            "name": "F4",
            "ticks": 50160,
            "time": 156.7498955,
            "velocity": 0.6299212598425197
          },
          {
            "duration": 0.371874752083329,
            "durationTicks": 119,
            "midi": 68,
            "name": "G#4",
            "ticks": 50280,
            "time": 157.12489525,
            "velocity": 0.6299212598425197
          },
          {
            "duration": 0.35312476458332753,
            "durationTicks": 113,
            "midi": 68,
            "name": "G#4",
            "ticks": 50400,
            "time": 157.499895,
            "velocity": 0.6299212598425197
          },
          {
            "duration": 0.7093745270833267,
            "durationTicks": 227,
            "midi": 65,
            "name": "F4",
            "ticks": 50400,
            "time": 157.499895,
            "velocity": 0.6299212598425197
          },
          {
            "duration": 0.371874752083329,
            "durationTicks": 119,
            "midi": 73,
            "name": "C#5",
            "ticks": 50520,
            "time": 157.87489475,
            "velocity": 0.6299212598425197
          },
          {
            "duration": 0.35312476458332753,
            "durationTicks": 113,
            "midi": 75,
            "name": "D#5",
            "ticks": 50640,
            "time": 158.2498945,
            "velocity": 0.6299212598425197
          },
          {
            "duration": 0.7093745270833267,
            "durationTicks": 227,
            "midi": 65,
            "name": "F4",
            "ticks": 50640,
            "time": 158.2498945,
            "velocity": 0.6299212598425197
          },
          {
            "duration": 0.35312476458332753,
            "durationTicks": 113,
            "midi": 77,
            "name": "F5",
            "ticks": 50760,
            "time": 158.62489425,
            "velocity": 0.6299212598425197
          },
          {
            "duration": 0.35312476458332753,
            "durationTicks": 113,
            "midi": 79,
            "name": "G5",
            "ticks": 50880,
            "time": 158.999894,
            "velocity": 0.6299212598425197
          },
          {
            "duration": 1.065624289583326,
            "durationTicks": 341,
            "midi": 67,
            "name": "G4",
            "ticks": 50880,
            "time": 158.999894,
            "velocity": 0.6299212598425197
          },
          {
            "duration": 0.35312476458332753,
            "durationTicks": 113,
            "midi": 77,
            "name": "F5",
            "ticks": 51000,
            "time": 159.37489375,
            "velocity": 0.6299212598425197
          },
          {
            "duration": 0.35312476458332753,
            "durationTicks": 113,
            "midi": 79,
            "name": "G5",
            "ticks": 51120,
            "time": 159.7498935,
            "velocity": 0.6299212598425197
          },
          {
            "duration": 0.371874752083329,
            "durationTicks": 119,
            "midi": 80,
            "name": "G#5",
            "ticks": 51240,
            "time": 160.12489325,
            "velocity": 0.6299212598425197
          },
          {
            "duration": 0.371874752083329,
            "durationTicks": 119,
            "midi": 68,
            "name": "G#4",
            "ticks": 51240,
            "time": 160.12489325,
            "velocity": 0.6299212598425197
          },
          {
            "duration": 0.35312476458332753,
            "durationTicks": 113,
            "midi": 80,
            "name": "G#5",
            "ticks": 51360,
            "time": 160.49989300000001,
            "velocity": 0.6299212598425197
          },
          {
            "duration": 0.35312476458332753,
            "durationTicks": 113,
            "midi": 68,
            "name": "G#4",
            "ticks": 51360,
            "time": 160.49989300000001,
            "velocity": 0.6299212598425197
          },
          {
            "duration": 0.7093745270833267,
            "durationTicks": 227,
            "midi": 79,
            "name": "G5",
            "ticks": 51480,
            "time": 160.87489275000001,
            "velocity": 0.6299212598425197
          },
          {
            "duration": 0.7093745270833267,
            "durationTicks": 227,
            "midi": 67,
            "name": "G4",
            "ticks": 51480,
            "time": 160.87489275000001,
            "velocity": 0.6299212598425197
          },
          {
            "duration": 0.35312476458332753,
            "durationTicks": 113,
            "midi": 77,
            "name": "F5",
            "ticks": 51720,
            "time": 161.62489225000002,
            "velocity": 0.6299212598425197
          },
          {
            "duration": 0.35312476458332753,
            "durationTicks": 113,
            "midi": 65,
            "name": "F4",
            "ticks": 51720,
            "time": 161.62489225000002,
            "velocity": 0.6299212598425197
          },
          {
            "duration": 0.371874752083329,
            "durationTicks": 119,
            "midi": 79,
            "name": "G5",
            "ticks": 51840,
            "time": 161.99989200000002,
            "velocity": 0.6299212598425197
          },
          {
            "duration": 1.1218742520833302,
            "durationTicks": 359,
            "midi": 67,
            "name": "G4",
            "ticks": 51840,
            "time": 161.99989200000002,
            "velocity": 0.6299212598425197
          },
          {
            "duration": 0.35312476458332753,
            "durationTicks": 113,
            "midi": 77,
            "name": "F5",
            "ticks": 51960,
            "time": 162.37489175000002,
            "velocity": 0.6299212598425197
          },
          {
            "duration": 0.35312476458332753,
            "durationTicks": 113,
            "midi": 79,
            "name": "G5",
            "ticks": 52080,
            "time": 162.74989150000002,
            "velocity": 0.6299212598425197
          },
          {
            "duration": 0.371874752083329,
            "durationTicks": 119,
            "midi": 80,
            "name": "G#5",
            "ticks": 52200,
            "time": 163.12489125000002,
            "velocity": 0.6299212598425197
          },
          {
            "duration": 0.371874752083329,
            "durationTicks": 119,
            "midi": 68,
            "name": "G#4",
            "ticks": 52200,
            "time": 163.12489125000002,
            "velocity": 0.6299212598425197
          },
          {
            "duration": 0.35312476458332753,
            "durationTicks": 113,
            "midi": 80,
            "name": "G#5",
            "ticks": 52320,
            "time": 163.49989100000002,
            "velocity": 0.6299212598425197
          },
          {
            "duration": 0.35312476458332753,
            "durationTicks": 113,
            "midi": 68,
            "name": "G#4",
            "ticks": 52320,
            "time": 163.49989100000002,
            "velocity": 0.6299212598425197
          },
          {
            "duration": 0.7093745270833267,
            "durationTicks": 227,
            "midi": 79,
            "name": "G5",
            "ticks": 52440,
            "time": 163.87489075000002,
            "velocity": 0.6299212598425197
          },
          {
            "duration": 0.7093745270833267,
            "durationTicks": 227,
            "midi": 67,
            "name": "G4",
            "ticks": 52440,
            "time": 163.87489075000002,
            "velocity": 0.6299212598425197
          },
          {
            "duration": 0.35312476458332753,
            "durationTicks": 113,
            "midi": 77,
            "name": "F5",
            "ticks": 52680,
            "time": 164.62489025000002,
            "velocity": 0.6299212598425197
          },
          {
            "duration": 0.35312476458332753,
            "durationTicks": 113,
            "midi": 65,
            "name": "F4",
            "ticks": 52680,
            "time": 164.62489025000002,
            "velocity": 0.6299212598425197
          },
          {
            "duration": 0.371874752083329,
            "durationTicks": 119,
            "midi": 77,
            "name": "F5",
            "ticks": 52800,
            "time": 164.99989000000002,
            "velocity": 0.6299212598425197
          },
          {
            "duration": 0.371874752083329,
            "durationTicks": 119,
            "midi": 79,
            "name": "G5",
            "ticks": 52800,
            "time": 164.99989000000002,
            "velocity": 0.6299212598425197
          },
          {
            "duration": 0.35312476458332753,
            "durationTicks": 113,
            "midi": 77,
            "name": "F5",
            "ticks": 52920,
            "time": 165.37488975000002,
            "velocity": 0.6299212598425197
          },
          {
            "duration": 0.35312476458332753,
            "durationTicks": 113,
            "midi": 79,
            "name": "G5",
            "ticks": 52920,
            "time": 165.37488975000002,
            "velocity": 0.6299212598425197
          },
          {
            "duration": 0.35312476458332753,
            "durationTicks": 113,
            "midi": 84,
            "name": "C6",
            "ticks": 52920,
            "time": 165.37488975000002,
            "velocity": 0.6299212598425197
          },
          {
            "duration": 0.35312476458332753,
            "durationTicks": 113,
            "midi": 77,
            "name": "F5",
            "ticks": 53040,
            "time": 165.74988950000002,
            "velocity": 0.6299212598425197
          },
          {
            "duration": 0.35312476458332753,
            "durationTicks": 113,
            "midi": 79,
            "name": "G5",
            "ticks": 53040,
            "time": 165.74988950000002,
            "velocity": 0.6299212598425197
          },
          {
            "duration": 0.35312476458332753,
            "durationTicks": 113,
            "midi": 84,
            "name": "C6",
            "ticks": 53040,
            "time": 165.74988950000002,
            "velocity": 0.6299212598425197
          },
          {
            "duration": 0.35312476458335595,
            "durationTicks": 113,
            "midi": 77,
            "name": "F5",
            "ticks": 53160,
            "time": 166.12488925,
            "velocity": 0.6299212598425197
          },
          {
            "duration": 0.35312476458335595,
            "durationTicks": 113,
            "midi": 79,
            "name": "G5",
            "ticks": 53160,
            "time": 166.12488925,
            "velocity": 0.6299212598425197
          },
          {
            "duration": 0.35312476458335595,
            "durationTicks": 113,
            "midi": 84,
            "name": "C6",
            "ticks": 53160,
            "time": 166.12488925,
            "velocity": 0.6299212598425197
          },
          {
            "duration": 0.35312476458335595,
            "durationTicks": 113,
            "midi": 76,
            "name": "E5",
            "ticks": 53280,
            "time": 166.499889,
            "velocity": 0.6299212598425197
          },
          {
            "duration": 0.35312476458335595,
            "durationTicks": 113,
            "midi": 79,
            "name": "G5",
            "ticks": 53280,
            "time": 166.499889,
            "velocity": 0.6299212598425197
          },
          {
            "duration": 0.35312476458335595,
            "durationTicks": 113,
            "midi": 84,
            "name": "C6",
            "ticks": 53280,
            "time": 166.499889,
            "velocity": 0.6299212598425197
          },
          {
            "duration": 0.35312476458335595,
            "durationTicks": 113,
            "midi": 76,
            "name": "E5",
            "ticks": 53400,
            "time": 166.87488875,
            "velocity": 0.6299212598425197
          },
          {
            "duration": 0.35312476458335595,
            "durationTicks": 113,
            "midi": 79,
            "name": "G5",
            "ticks": 53400,
            "time": 166.87488875,
            "velocity": 0.6299212598425197
          },
          {
            "duration": 0.35312476458335595,
            "durationTicks": 113,
            "midi": 84,
            "name": "C6",
            "ticks": 53400,
            "time": 166.87488875,
            "velocity": 0.6299212598425197
          },
          {
            "duration": 0.35312476458335595,
            "durationTicks": 113,
            "midi": 76,
            "name": "E5",
            "ticks": 53520,
            "time": 167.2498885,
            "velocity": 0.6299212598425197
          },
          {
            "duration": 0.35312476458335595,
            "durationTicks": 113,
            "midi": 79,
            "name": "G5",
            "ticks": 53520,
            "time": 167.2498885,
            "velocity": 0.6299212598425197
          },
          {
            "duration": 0.35312476458335595,
            "durationTicks": 113,
            "midi": 84,
            "name": "C6",
            "ticks": 53520,
            "time": 167.2498885,
            "velocity": 0.6299212598425197
          },
          {
            "duration": 0.35312476458335595,
            "durationTicks": 113,
            "midi": 76,
            "name": "E5",
            "ticks": 53640,
            "time": 167.62488825,
            "velocity": 0.6299212598425197
          },
          {
            "duration": 0.35312476458335595,
            "durationTicks": 113,
            "midi": 79,
            "name": "G5",
            "ticks": 53640,
            "time": 167.62488825,
            "velocity": 0.6299212598425197
          },
          {
            "duration": 0.35312476458335595,
            "durationTicks": 113,
            "midi": 84,
            "name": "C6",
            "ticks": 53640,
            "time": 167.62488825,
            "velocity": 0.6299212598425197
          },
          {
            "duration": 0.17499988333332794,
            "durationTicks": 56,
            "midi": 80,
            "name": "G#5",
            "ticks": 53760,
            "time": 167.999888,
            "velocity": 0.6299212598425197
          },
          {
            "duration": 0.17499988333332794,
            "durationTicks": 56,
            "midi": 68,
            "name": "G#4",
            "ticks": 53760,
            "time": 167.999888,
            "velocity": 0.6299212598425197
          },
          {
            "duration": 0.17499988333332794,
            "durationTicks": 56,
            "midi": 79,
            "name": "G5",
            "ticks": 53820,
            "time": 168.187387875,
            "velocity": 0.6299212598425197
          },
          {
            "duration": 0.17499988333332794,
            "durationTicks": 56,
            "midi": 77,
            "name": "F5",
            "ticks": 53880,
            "time": 168.37488775,
            "velocity": 0.6299212598425197
          },
          {
            "duration": 0.18437487708334288,
            "durationTicks": 59,
            "midi": 72,
            "name": "C5",
            "ticks": 53940,
            "time": 168.562387625,
            "velocity": 0.6299212598425197
          },
          {
            "duration": 0.17499988333332794,
            "durationTicks": 56,
            "midi": 72,
            "name": "C5",
            "ticks": 54000,
            "time": 168.7498875,
            "velocity": 0.6299212598425197
          },
          {
            "duration": 0.17499988333332794,
            "durationTicks": 56,
            "midi": 77,
            "name": "F5",
            "ticks": 54060,
            "time": 168.93738737500001,
            "velocity": 0.6299212598425197
          },
          {
            "duration": 0.17499988333332794,
            "durationTicks": 56,
            "midi": 65,
            "name": "F4",
            "ticks": 54060,
            "time": 168.93738737500001,
            "velocity": 0.6299212598425197
          },
          {
            "duration": 0.17499988333332794,
            "durationTicks": 56,
            "midi": 79,
            "name": "G5",
            "ticks": 54120,
            "time": 169.12488725,
            "velocity": 0.6299212598425197
          },
          {
            "duration": 0.17499988333332794,
            "durationTicks": 56,
            "midi": 80,
            "name": "G#5",
            "ticks": 54180,
            "time": 169.31238712500001,
            "velocity": 0.6299212598425197
          },
          {
            "duration": 0.17499988333332794,
            "durationTicks": 56,
            "midi": 80,
            "name": "G#5",
            "ticks": 54240,
            "time": 169.499887,
            "velocity": 0.6299212598425197
          },
          {
            "duration": 0.17499988333332794,
            "durationTicks": 56,
            "midi": 68,
            "name": "G#4",
            "ticks": 54240,
            "time": 169.499887,
            "velocity": 0.6299212598425197
          },
          {
            "duration": 0.17499988333332794,
            "durationTicks": 56,
            "midi": 79,
            "name": "G5",
            "ticks": 54300,
            "time": 169.68738687500002,
            "velocity": 0.6299212598425197
          },
          {
            "duration": 0.17499988333332794,
            "durationTicks": 56,
            "midi": 77,
            "name": "F5",
            "ticks": 54360,
            "time": 169.87488675,
            "velocity": 0.6299212598425197
          },
          {
            "duration": 0.18437487708334288,
            "durationTicks": 59,
            "midi": 72,
            "name": "C5",
            "ticks": 54420,
            "time": 170.06238662500002,
            "velocity": 0.6299212598425197
          },
          {
            "duration": 0.17499988333332794,
            "durationTicks": 56,
            "midi": 72,
            "name": "C5",
            "ticks": 54480,
            "time": 170.2498865,
            "velocity": 0.6299212598425197
          },
          {
            "duration": 0.17499988333332794,
            "durationTicks": 56,
            "midi": 77,
            "name": "F5",
            "ticks": 54540,
            "time": 170.43738637500002,
            "velocity": 0.6299212598425197
          },
          {
            "duration": 0.17499988333332794,
            "durationTicks": 56,
            "midi": 65,
            "name": "F4",
            "ticks": 54540,
            "time": 170.43738637500002,
            "velocity": 0.6299212598425197
          },
          {
            "duration": 0.17499988333332794,
            "durationTicks": 56,
            "midi": 79,
            "name": "G5",
            "ticks": 54600,
            "time": 170.62488625,
            "velocity": 0.6299212598425197
          },
          {
            "duration": 0.17499988333332794,
            "durationTicks": 56,
            "midi": 80,
            "name": "G#5",
            "ticks": 54660,
            "time": 170.81238612500002,
            "velocity": 0.6299212598425197
          },
          {
            "duration": 0.17499988333332794,
            "durationTicks": 56,
            "midi": 80,
            "name": "G#5",
            "ticks": 54720,
            "time": 170.999886,
            "velocity": 0.6299212598425197
          },
          {
            "duration": 0.17499988333332794,
            "durationTicks": 56,
            "midi": 68,
            "name": "G#4",
            "ticks": 54720,
            "time": 170.999886,
            "velocity": 0.6299212598425197
          },
          {
            "duration": 0.17499988333332794,
            "durationTicks": 56,
            "midi": 79,
            "name": "G5",
            "ticks": 54780,
            "time": 171.18738587500002,
            "velocity": 0.6299212598425197
          },
          {
            "duration": 0.17499988333332794,
            "durationTicks": 56,
            "midi": 77,
            "name": "F5",
            "ticks": 54840,
            "time": 171.37488575,
            "velocity": 0.6299212598425197
          },
          {
            "duration": 0.18437487708331446,
            "durationTicks": 59,
            "midi": 70,
            "name": "A#4",
            "ticks": 54900,
            "time": 171.56238562500002,
            "velocity": 0.6299212598425197
          },
          {
            "duration": 0.17499988333332794,
            "durationTicks": 56,
            "midi": 70,
            "name": "A#4",
            "ticks": 54960,
            "time": 171.7498855,
            "velocity": 0.6299212598425197
          },
          {
            "duration": 0.17499988333329952,
            "durationTicks": 56,
            "midi": 77,
            "name": "F5",
            "ticks": 55020,
            "time": 171.93738537500002,
            "velocity": 0.6299212598425197
          },
          {
            "duration": 0.17499988333329952,
            "durationTicks": 56,
            "midi": 65,
            "name": "F4",
            "ticks": 55020,
            "time": 171.93738537500002,
            "velocity": 0.6299212598425197
          },
          {
            "duration": 0.17499988333332794,
            "durationTicks": 56,
            "midi": 79,
            "name": "G5",
            "ticks": 55080,
            "time": 172.12488525,
            "velocity": 0.6299212598425197
          },
          {
            "duration": 0.17499988333329952,
            "durationTicks": 56,
            "midi": 80,
            "name": "G#5",
            "ticks": 55140,
            "time": 172.31238512500002,
            "velocity": 0.6299212598425197
          },
          {
            "duration": 0.17499988333332794,
            "durationTicks": 56,
            "midi": 80,
            "name": "G#5",
            "ticks": 55200,
            "time": 172.499885,
            "velocity": 0.6299212598425197
          },
          {
            "duration": 0.17499988333332794,
            "durationTicks": 56,
            "midi": 68,
            "name": "G#4",
            "ticks": 55200,
            "time": 172.499885,
            "velocity": 0.6299212598425197
          },
          {
            "duration": 0.17499988333329952,
            "durationTicks": 56,
            "midi": 79,
            "name": "G5",
            "ticks": 55260,
            "time": 172.68738487500002,
            "velocity": 0.6299212598425197
          },
          {
            "duration": 0.17499988333332794,
            "durationTicks": 56,
            "midi": 77,
            "name": "F5",
            "ticks": 55320,
            "time": 172.87488475,
            "velocity": 0.6299212598425197
          },
          {
            "duration": 0.18437487708331446,
            "durationTicks": 59,
            "midi": 70,
            "name": "A#4",
            "ticks": 55380,
            "time": 173.06238462500002,
            "velocity": 0.6299212598425197
          },
          {
            "duration": 0.17499988333332794,
            "durationTicks": 56,
            "midi": 70,
            "name": "A#4",
            "ticks": 55440,
            "time": 173.2498845,
            "velocity": 0.6299212598425197
          },
          {
            "duration": 0.17499988333329952,
            "durationTicks": 56,
            "midi": 77,
            "name": "F5",
            "ticks": 55500,
            "time": 173.43738437500002,
            "velocity": 0.6299212598425197
          },
          {
            "duration": 0.17499988333329952,
            "durationTicks": 56,
            "midi": 65,
            "name": "F4",
            "ticks": 55500,
            "time": 173.43738437500002,
            "velocity": 0.6299212598425197
          },
          {
            "duration": 0.17499988333332794,
            "durationTicks": 56,
            "midi": 79,
            "name": "G5",
            "ticks": 55560,
            "time": 173.62488425,
            "velocity": 0.6299212598425197
          },
          {
            "duration": 0.17499988333329952,
            "durationTicks": 56,
            "midi": 80,
            "name": "G#5",
            "ticks": 55620,
            "time": 173.81238412500002,
            "velocity": 0.6299212598425197
          },
          {
            "duration": 0.17499988333332794,
            "durationTicks": 56,
            "midi": 79,
            "name": "G5",
            "ticks": 55680,
            "time": 173.999884,
            "velocity": 0.6299212598425197
          },
          {
            "duration": 0.17499988333332794,
            "durationTicks": 56,
            "midi": 67,
            "name": "G4",
            "ticks": 55680,
            "time": 173.999884,
            "velocity": 0.6299212598425197
          },
          {
            "duration": 0.17499988333329952,
            "durationTicks": 56,
            "midi": 77,
            "name": "F5",
            "ticks": 55740,
            "time": 174.18738387500002,
            "velocity": 0.6299212598425197
          },
          {
            "duration": 0.17499988333332794,
            "durationTicks": 56,
            "midi": 75,
            "name": "D#5",
            "ticks": 55800,
            "time": 174.37488375,
            "velocity": 0.6299212598425197
          },
          {
            "duration": 0.18437487708334288,
            "durationTicks": 59,
            "midi": 70,
            "name": "A#4",
            "ticks": 55860,
            "time": 174.562383625,
            "velocity": 0.6299212598425197
          },
          {
            "duration": 0.17499988333332794,
            "durationTicks": 56,
            "midi": 70,
            "name": "A#4",
            "ticks": 55920,
            "time": 174.7498835,
            "velocity": 0.6299212598425197
          },
          {
            "duration": 0.17499988333332794,
            "durationTicks": 56,
            "midi": 75,
            "name": "D#5",
            "ticks": 55980,
            "time": 174.937383375,
            "velocity": 0.6299212598425197
          },
          {
            "duration": 0.17499988333332794,
            "durationTicks": 56,
            "midi": 63,
            "name": "D#4",
            "ticks": 55980,
            "time": 174.937383375,
            "velocity": 0.6299212598425197
          },
          {
            "duration": 0.17499988333332794,
            "durationTicks": 56,
            "midi": 77,
            "name": "F5",
            "ticks": 56040,
            "time": 175.12488325,
            "velocity": 0.6299212598425197
          },
          {
            "duration": 0.17499988333332794,
            "durationTicks": 56,
            "midi": 79,
            "name": "G5",
            "ticks": 56100,
            "time": 175.312383125,
            "velocity": 0.6299212598425197
          },
          {
            "duration": 0.17499988333332794,
            "durationTicks": 56,
            "midi": 79,
            "name": "G5",
            "ticks": 56160,
            "time": 175.499883,
            "velocity": 0.6299212598425197
          },
          {
            "duration": 0.17499988333332794,
            "durationTicks": 56,
            "midi": 67,
            "name": "G4",
            "ticks": 56160,
            "time": 175.499883,
            "velocity": 0.6299212598425197
          },
          {
            "duration": 0.17499988333332794,
            "durationTicks": 56,
            "midi": 77,
            "name": "F5",
            "ticks": 56220,
            "time": 175.687382875,
            "velocity": 0.6299212598425197
          },
          {
            "duration": 0.17499988333332794,
            "durationTicks": 56,
            "midi": 75,
            "name": "D#5",
            "ticks": 56280,
            "time": 175.87488275,
            "velocity": 0.6299212598425197
          },
          {
            "duration": 0.18437487708334288,
            "durationTicks": 59,
            "midi": 70,
            "name": "A#4",
            "ticks": 56340,
            "time": 176.062382625,
            "velocity": 0.6299212598425197
          },
          {
            "duration": 0.17499988333332794,
            "durationTicks": 56,
            "midi": 70,
            "name": "A#4",
            "ticks": 56400,
            "time": 176.2498825,
            "velocity": 0.6299212598425197
          },
          {
            "duration": 0.17499988333332794,
            "durationTicks": 56,
            "midi": 75,
            "name": "D#5",
            "ticks": 56460,
            "time": 176.437382375,
            "velocity": 0.6299212598425197
          },
          {
            "duration": 0.17499988333332794,
            "durationTicks": 56,
            "midi": 63,
            "name": "D#4",
            "ticks": 56460,
            "time": 176.437382375,
            "velocity": 0.6299212598425197
          },
          {
            "duration": 0.17499988333332794,
            "durationTicks": 56,
            "midi": 77,
            "name": "F5",
            "ticks": 56520,
            "time": 176.62488225,
            "velocity": 0.6299212598425197
          },
          {
            "duration": 0.17499988333332794,
            "durationTicks": 56,
            "midi": 79,
            "name": "G5",
            "ticks": 56580,
            "time": 176.812382125,
            "velocity": 0.6299212598425197
          },
          {
            "duration": 0.17499988333332794,
            "durationTicks": 56,
            "midi": 79,
            "name": "G5",
            "ticks": 56640,
            "time": 176.999882,
            "velocity": 0.6299212598425197
          },
          {
            "duration": 0.17499988333332794,
            "durationTicks": 56,
            "midi": 67,
            "name": "G4",
            "ticks": 56640,
            "time": 176.999882,
            "velocity": 0.6299212598425197
          },
          {
            "duration": 0.17499988333332794,
            "durationTicks": 56,
            "midi": 77,
            "name": "F5",
            "ticks": 56700,
            "time": 177.187381875,
            "velocity": 0.6299212598425197
          },
          {
            "duration": 0.17499988333332794,
            "durationTicks": 56,
            "midi": 75,
            "name": "D#5",
            "ticks": 56760,
            "time": 177.37488175000001,
            "velocity": 0.6299212598425197
          },
          {
            "duration": 0.18437487708334288,
            "durationTicks": 59,
            "midi": 68,
            "name": "G#4",
            "ticks": 56820,
            "time": 177.562381625,
            "velocity": 0.6299212598425197
          },
          {
            "duration": 0.17499988333332794,
            "durationTicks": 56,
            "midi": 68,
            "name": "G#4",
            "ticks": 56880,
            "time": 177.74988150000001,
            "velocity": 0.6299212598425197
          },
          {
            "duration": 0.17499988333332794,
            "durationTicks": 56,
            "midi": 75,
            "name": "D#5",
            "ticks": 56940,
            "time": 177.937381375,
            "velocity": 0.6299212598425197
          },
          {
            "duration": 0.17499988333332794,
            "durationTicks": 56,
            "midi": 63,
            "name": "D#4",
            "ticks": 56940,
            "time": 177.937381375,
            "velocity": 0.6299212598425197
          },
          {
            "duration": 0.17499988333332794,
            "durationTicks": 56,
            "midi": 77,
            "name": "F5",
            "ticks": 57000,
            "time": 178.12488125000002,
            "velocity": 0.6299212598425197
          },
          {
            "duration": 0.17499988333332794,
            "durationTicks": 56,
            "midi": 79,
            "name": "G5",
            "ticks": 57060,
            "time": 178.312381125,
            "velocity": 0.6299212598425197
          },
          {
            "duration": 0.17499988333332794,
            "durationTicks": 56,
            "midi": 79,
            "name": "G5",
            "ticks": 57120,
            "time": 178.49988100000002,
            "velocity": 0.6299212598425197
          },
          {
            "duration": 0.17499988333332794,
            "durationTicks": 56,
            "midi": 67,
            "name": "G4",
            "ticks": 57120,
            "time": 178.49988100000002,
            "velocity": 0.6299212598425197
          },
          {
            "duration": 0.17499988333332794,
            "durationTicks": 56,
            "midi": 77,
            "name": "F5",
            "ticks": 57180,
            "time": 178.687380875,
            "velocity": 0.6299212598425197
          },
          {
            "duration": 0.17499988333332794,
            "durationTicks": 56,
            "midi": 75,
            "name": "D#5",
            "ticks": 57240,
            "time": 178.87488075000002,
            "velocity": 0.6299212598425197
          },
          {
            "duration": 0.18437487708334288,
            "durationTicks": 59,
            "midi": 68,
            "name": "G#4",
            "ticks": 57300,
            "time": 179.062380625,
            "velocity": 0.6299212598425197
          },
          {
            "duration": 0.17499988333332794,
            "durationTicks": 56,
            "midi": 68,
            "name": "G#4",
            "ticks": 57360,
            "time": 179.24988050000002,
            "velocity": 0.6299212598425197
          },
          {
            "duration": 0.17499988333332794,
            "durationTicks": 56,
            "midi": 75,
            "name": "D#5",
            "ticks": 57420,
            "time": 179.437380375,
            "velocity": 0.6299212598425197
          },
          {
            "duration": 0.17499988333332794,
            "durationTicks": 56,
            "midi": 63,
            "name": "D#4",
            "ticks": 57420,
            "time": 179.437380375,
            "velocity": 0.6299212598425197
          },
          {
            "duration": 0.17499988333332794,
            "durationTicks": 56,
            "midi": 77,
            "name": "F5",
            "ticks": 57480,
            "time": 179.62488025000002,
            "velocity": 0.6299212598425197
          },
          {
            "duration": 0.17499988333332794,
            "durationTicks": 56,
            "midi": 79,
            "name": "G5",
            "ticks": 57540,
            "time": 179.812380125,
            "velocity": 0.6299212598425197
          },
          {
            "duration": 0.17499988333332794,
            "durationTicks": 56,
            "midi": 77,
            "name": "F5",
            "ticks": 57600,
            "time": 179.99988000000002,
            "velocity": 0.6299212598425197
          },
          {
            "duration": 0.17499988333332794,
            "durationTicks": 56,
            "midi": 65,
            "name": "F4",
            "ticks": 57600,
            "time": 179.99988000000002,
            "velocity": 0.6299212598425197
          },
          {
            "duration": 0.17499988333332794,
            "durationTicks": 56,
            "midi": 75,
            "name": "D#5",
            "ticks": 57660,
            "time": 180.187379875,
            "velocity": 0.6299212598425197
          },
          {
            "duration": 0.17499988333332794,
            "durationTicks": 56,
            "midi": 73,
            "name": "C#5",
            "ticks": 57720,
            "time": 180.37487975000002,
            "velocity": 0.6299212598425197
          },
          {
            "duration": 0.18437487708334288,
            "durationTicks": 59,
            "midi": 68,
            "name": "G#4",
            "ticks": 57780,
            "time": 180.562379625,
            "velocity": 0.6299212598425197
          },
          {
            "duration": 0.17499988333329952,
            "durationTicks": 56,
            "midi": 68,
            "name": "G#4",
            "ticks": 57840,
            "time": 180.74987950000002,
            "velocity": 0.6299212598425197
          },
          {
            "duration": 0.17499988333332794,
            "durationTicks": 56,
            "midi": 73,
            "name": "C#5",
            "ticks": 57900,
            "time": 180.937379375,
            "velocity": 0.6299212598425197
          },
          {
            "duration": 0.17499988333332794,
            "durationTicks": 56,
            "midi": 61,
            "name": "C#4",
            "ticks": 57900,
            "time": 180.937379375,
            "velocity": 0.6299212598425197
          },
          {
            "duration": 0.17499988333329952,
            "durationTicks": 56,
            "midi": 75,
            "name": "D#5",
            "ticks": 57960,
            "time": 181.12487925000002,
            "velocity": 0.6299212598425197
          },
          {
            "duration": 0.17499988333332794,
            "durationTicks": 56,
            "midi": 77,
            "name": "F5",
            "ticks": 58020,
            "time": 181.312379125,
            "velocity": 0.6299212598425197
          },
          {
            "duration": 0.17499988333329952,
            "durationTicks": 56,
            "midi": 77,
            "name": "F5",
            "ticks": 58080,
            "time": 181.49987900000002,
            "velocity": 0.6299212598425197
          },
          {
            "duration": 0.17499988333329952,
            "durationTicks": 56,
            "midi": 65,
            "name": "F4",
            "ticks": 58080,
            "time": 181.49987900000002,
            "velocity": 0.6299212598425197
          },
          {
            "duration": 0.17499988333332794,
            "durationTicks": 56,
            "midi": 75,
            "name": "D#5",
            "ticks": 58140,
            "time": 181.687378875,
            "velocity": 0.6299212598425197
          },
          {
            "duration": 0.17499988333329952,
            "durationTicks": 56,
            "midi": 73,
            "name": "C#5",
            "ticks": 58200,
            "time": 181.87487875000002,
            "velocity": 0.6299212598425197
          },
          {
            "duration": 0.18437487708334288,
            "durationTicks": 59,
            "midi": 68,
            "name": "G#4",
            "ticks": 58260,
            "time": 182.062378625,
            "velocity": 0.6299212598425197
          },
          {
            "duration": 0.17499988333329952,
            "durationTicks": 56,
            "midi": 68,
            "name": "G#4",
            "ticks": 58320,
            "time": 182.24987850000002,
            "velocity": 0.6299212598425197
          },
          {
            "duration": 0.17499988333332794,
            "durationTicks": 56,
            "midi": 73,
            "name": "C#5",
            "ticks": 58380,
            "time": 182.437378375,
            "velocity": 0.6299212598425197
          },
          {
            "duration": 0.17499988333332794,
            "durationTicks": 56,
            "midi": 61,
            "name": "C#4",
            "ticks": 58380,
            "time": 182.437378375,
            "velocity": 0.6299212598425197
          },
          {
            "duration": 0.17499988333329952,
            "durationTicks": 56,
            "midi": 75,
            "name": "D#5",
            "ticks": 58440,
            "time": 182.62487825000002,
            "velocity": 0.6299212598425197
          },
          {
            "duration": 0.17499988333332794,
            "durationTicks": 56,
            "midi": 77,
            "name": "F5",
            "ticks": 58500,
            "time": 182.812378125,
            "velocity": 0.6299212598425197
          },
          {
            "duration": 0.17499988333329952,
            "durationTicks": 56,
            "midi": 79,
            "name": "G5",
            "ticks": 58560,
            "time": 182.99987800000002,
            "velocity": 0.6299212598425197
          },
          {
            "duration": 0.17499988333329952,
            "durationTicks": 56,
            "midi": 67,
            "name": "G4",
            "ticks": 58560,
            "time": 182.99987800000002,
            "velocity": 0.6299212598425197
          },
          {
            "duration": 0.17499988333332794,
            "durationTicks": 56,
            "midi": 77,
            "name": "F5",
            "ticks": 58620,
            "time": 183.187377875,
            "velocity": 0.6299212598425197
          },
          {
            "duration": 0.17499988333332794,
            "durationTicks": 56,
            "midi": 79,
            "name": "G5",
            "ticks": 58680,
            "time": 183.37487775,
            "velocity": 0.6299212598425197
          },
          {
            "duration": 0.18437487708334288,
            "durationTicks": 59,
            "midi": 80,
            "name": "G#5",
            "ticks": 58740,
            "time": 183.562377625,
            "velocity": 0.6299212598425197
          },
          {
            "duration": 0.18437487708334288,
            "durationTicks": 59,
            "midi": 68,
            "name": "G#4",
            "ticks": 58740,
            "time": 183.562377625,
            "velocity": 0.6299212598425197
          },
          {
            "duration": 0.17499988333332794,
            "durationTicks": 56,
            "midi": 80,
            "name": "G#5",
            "ticks": 58800,
            "time": 183.7498775,
            "velocity": 0.6299212598425197
          },
          {
            "duration": 0.17499988333332794,
            "durationTicks": 56,
            "midi": 68,
            "name": "G#4",
            "ticks": 58800,
            "time": 183.7498775,
            "velocity": 0.6299212598425197
          },
          {
            "duration": 0.35312476458332753,
            "durationTicks": 113,
            "midi": 79,
            "name": "G5",
            "ticks": 58860,
            "time": 183.937377375,
            "velocity": 0.6299212598425197
          },
          {
            "duration": 0.35312476458332753,
            "durationTicks": 113,
            "midi": 67,
            "name": "G4",
            "ticks": 58860,
            "time": 183.937377375,
            "velocity": 0.6299212598425197
          },
          {
            "duration": 0.17499988333332794,
            "durationTicks": 56,
            "midi": 77,
            "name": "F5",
            "ticks": 58980,
            "time": 184.312377125,
            "velocity": 0.6299212598425197
          },
          {
            "duration": 0.17499988333332794,
            "durationTicks": 56,
            "midi": 79,
            "name": "G5",
            "ticks": 59040,
            "time": 184.499877,
            "velocity": 0.6299212598425197
          },
          {
            "duration": 0.17499988333332794,
            "durationTicks": 56,
            "midi": 67,
            "name": "G4",
            "ticks": 59040,
            "time": 184.499877,
            "velocity": 0.6299212598425197
          },
          {
            "duration": 0.17499988333332794,
            "durationTicks": 56,
            "midi": 77,
            "name": "F5",
            "ticks": 59100,
            "time": 184.687376875,
            "velocity": 0.6299212598425197
          },
          {
            "duration": 0.17499988333332794,
            "durationTicks": 56,
            "midi": 79,
            "name": "G5",
            "ticks": 59160,
            "time": 184.87487675,
            "velocity": 0.6299212598425197
          },
          {
            "duration": 0.18437487708334288,
            "durationTicks": 59,
            "midi": 80,
            "name": "G#5",
            "ticks": 59220,
            "time": 185.062376625,
            "velocity": 0.6299212598425197
          },
          {
            "duration": 0.18437487708334288,
            "durationTicks": 59,
            "midi": 68,
            "name": "G#4",
            "ticks": 59220,
            "time": 185.062376625,
            "velocity": 0.6299212598425197
          },
          {
            "duration": 0.17499988333332794,
            "durationTicks": 56,
            "midi": 80,
            "name": "G#5",
            "ticks": 59280,
            "time": 185.2498765,
            "velocity": 0.6299212598425197
          },
          {
            "duration": 0.17499988333332794,
            "durationTicks": 56,
            "midi": 68,
            "name": "G#4",
            "ticks": 59280,
            "time": 185.2498765,
            "velocity": 0.6299212598425197
          },
          {
            "duration": 0.35312476458332753,
            "durationTicks": 113,
            "midi": 79,
            "name": "G5",
            "ticks": 59340,
            "time": 185.437376375,
            "velocity": 0.6299212598425197
          },
          {
            "duration": 0.35312476458332753,
            "durationTicks": 113,
            "midi": 67,
            "name": "G4",
            "ticks": 59340,
            "time": 185.437376375,
            "velocity": 0.6299212598425197
          },
          {
            "duration": 0.17499988333332794,
            "durationTicks": 56,
            "midi": 77,
            "name": "F5",
            "ticks": 59460,
            "time": 185.81237612500001,
            "velocity": 0.6299212598425197
          },
          {
            "duration": 0.17499988333332794,
            "durationTicks": 56,
            "midi": 79,
            "name": "G5",
            "ticks": 59520,
            "time": 185.999876,
            "velocity": 0.6299212598425197
          },
          {
            "duration": 0.5312496458333555,
            "durationTicks": 170,
            "midi": 67,
            "name": "G4",
            "ticks": 59520,
            "time": 185.999876,
            "velocity": 0.6299212598425197
          },
          {
            "duration": 0.17499988333332794,
            "durationTicks": 56,
            "midi": 77,
            "name": "F5",
            "ticks": 59580,
            "time": 186.18737587500001,
            "velocity": 0.6299212598425197
          },
          {
            "duration": 0.17499988333332794,
            "durationTicks": 56,
            "midi": 79,
            "name": "G5",
            "ticks": 59640,
            "time": 186.37487575,
            "velocity": 0.6299212598425197
          },
          {
            "duration": 0.18437487708334288,
            "durationTicks": 59,
            "midi": 80,
            "name": "G#5",
            "ticks": 59700,
            "time": 186.56237562500002,
            "velocity": 0.6299212598425197
          },
          {
            "duration": 0.18437487708334288,
            "durationTicks": 59,
            "midi": 68,
            "name": "G#4",
            "ticks": 59700,
            "time": 186.56237562500002,
            "velocity": 0.6299212598425197
          },
          {
            "duration": 0.17499988333332794,
            "durationTicks": 56,
            "midi": 80,
            "name": "G#5",
            "ticks": 59760,
            "time": 186.7498755,
            "velocity": 0.6299212598425197
          },
          {
            "duration": 0.17499988333332794,
            "durationTicks": 56,
            "midi": 68,
            "name": "G#4",
            "ticks": 59760,
            "time": 186.7498755,
            "velocity": 0.6299212598425197
          },
          {
            "duration": 0.35312476458332753,
            "durationTicks": 113,
            "midi": 79,
            "name": "G5",
            "ticks": 59820,
            "time": 186.93737537500002,
            "velocity": 0.6299212598425197
          },
          {
            "duration": 0.35312476458332753,
            "durationTicks": 113,
            "midi": 67,
            "name": "G4",
            "ticks": 59820,
            "time": 186.93737537500002,
            "velocity": 0.6299212598425197
          },
          {
            "duration": 0.17499988333332794,
            "durationTicks": 56,
            "midi": 77,
            "name": "F5",
            "ticks": 59940,
            "time": 187.31237512500002,
            "velocity": 0.6299212598425197
          },
          {
            "duration": 0.17499988333332794,
            "durationTicks": 56,
            "midi": 79,
            "name": "G5",
            "ticks": 60000,
            "time": 187.499875,
            "velocity": 0.6299212598425197
          },
          {
            "duration": 0.5312496458333555,
            "durationTicks": 170,
            "midi": 67,
            "name": "G4",
            "ticks": 60000,
            "time": 187.499875,
            "velocity": 0.6299212598425197
          },
          {
            "duration": 0.17499988333332794,
            "durationTicks": 56,
            "midi": 77,
            "name": "F5",
            "ticks": 60060,
            "time": 187.68737487500002,
            "velocity": 0.6299212598425197
          },
          {
            "duration": 0.17499988333332794,
            "durationTicks": 56,
            "midi": 79,
            "name": "G5",
            "ticks": 60120,
            "time": 187.87487475,
            "velocity": 0.6299212598425197
          },
          {
            "duration": 0.18437487708331446,
            "durationTicks": 59,
            "midi": 80,
            "name": "G#5",
            "ticks": 60180,
            "time": 188.06237462500002,
            "velocity": 0.6299212598425197
          },
          {
            "duration": 0.18437487708331446,
            "durationTicks": 59,
            "midi": 68,
            "name": "G#4",
            "ticks": 60180,
            "time": 188.06237462500002,
            "velocity": 0.6299212598425197
          },
          {
            "duration": 0.17499988333332794,
            "durationTicks": 56,
            "midi": 80,
            "name": "G#5",
            "ticks": 60240,
            "time": 188.2498745,
            "velocity": 0.6299212598425197
          },
          {
            "duration": 0.17499988333332794,
            "durationTicks": 56,
            "midi": 68,
            "name": "G#4",
            "ticks": 60240,
            "time": 188.2498745,
            "velocity": 0.6299212598425197
          },
          {
            "duration": 0.35312476458332753,
            "durationTicks": 113,
            "midi": 79,
            "name": "G5",
            "ticks": 60300,
            "time": 188.43737437500002,
            "velocity": 0.6299212598425197
          },
          {
            "duration": 0.35312476458332753,
            "durationTicks": 113,
            "midi": 67,
            "name": "G4",
            "ticks": 60300,
            "time": 188.43737437500002,
            "velocity": 0.6299212598425197
          },
          {
            "duration": 0.17499988333332794,
            "durationTicks": 56,
            "midi": 77,
            "name": "F5",
            "ticks": 60420,
            "time": 188.81237412500002,
            "velocity": 0.6299212598425197
          },
          {
            "duration": 0.17499988333332794,
            "durationTicks": 56,
            "midi": 79,
            "name": "G5",
            "ticks": 60480,
            "time": 188.999874,
            "velocity": 0.6299212598425197
          },
          {
            "duration": 0.7093745270833267,
            "durationTicks": 227,
            "midi": 72,
            "name": "C5",
            "ticks": 60480,
            "time": 188.999874,
            "velocity": 0.6299212598425197
          },
          {
            "duration": 0.7093745270833267,
            "durationTicks": 227,
            "midi": 77,
            "name": "F5",
            "ticks": 60480,
            "time": 188.999874,
            "velocity": 0.6299212598425197
          },
          {
            "duration": 0.17499988333332794,
            "durationTicks": 56,
            "midi": 84,
            "name": "C6",
            "ticks": 60540,
            "time": 189.18737387500002,
            "velocity": 0.6299212598425197
          },
          {
            "duration": 0.17499988333332794,
            "durationTicks": 56,
            "midi": 84,
            "name": "C6",
            "ticks": 60600,
            "time": 189.37487375,
            "velocity": 0.6299212598425197
          },
          {
            "duration": 0.17499988333329952,
            "durationTicks": 56,
            "midi": 84,
            "name": "C6",
            "ticks": 60660,
            "time": 189.56237362500002,
            "velocity": 0.6299212598425197
          },
          {
            "duration": 0.17499988333332794,
            "durationTicks": 56,
            "midi": 77,
            "name": "F5",
            "ticks": 60720,
            "time": 189.7498735,
            "velocity": 0.6299212598425197
          },
          {
            "duration": 0.17499988333332794,
            "durationTicks": 56,
            "midi": 79,
            "name": "G5",
            "ticks": 60720,
            "time": 189.7498735,
            "velocity": 0.6299212598425197
          },
          {
            "duration": 0.17499988333332794,
            "durationTicks": 56,
            "midi": 84,
            "name": "C6",
            "ticks": 60720,
            "time": 189.7498735,
            "velocity": 0.6299212598425197
          },
          {
            "duration": 0.17499988333329952,
            "durationTicks": 56,
            "midi": 77,
            "name": "F5",
            "ticks": 60780,
            "time": 189.93737337500002,
            "velocity": 0.6299212598425197
          },
          {
            "duration": 0.17499988333329952,
            "durationTicks": 56,
            "midi": 79,
            "name": "G5",
            "ticks": 60780,
            "time": 189.93737337500002,
            "velocity": 0.6299212598425197
          },
          {
            "duration": 0.17499988333329952,
            "durationTicks": 56,
            "midi": 84,
            "name": "C6",
            "ticks": 60780,
            "time": 189.93737337500002,
            "velocity": 0.6299212598425197
          },
          {
            "duration": 0.17499988333332794,
            "durationTicks": 56,
            "midi": 77,
            "name": "F5",
            "ticks": 60840,
            "time": 190.12487325,
            "velocity": 0.6299212598425197
          },
          {
            "duration": 0.17499988333332794,
            "durationTicks": 56,
            "midi": 79,
            "name": "G5",
            "ticks": 60840,
            "time": 190.12487325,
            "velocity": 0.6299212598425197
          },
          {
            "duration": 0.17499988333332794,
            "durationTicks": 56,
            "midi": 84,
            "name": "C6",
            "ticks": 60840,
            "time": 190.12487325,
            "velocity": 0.6299212598425197
          },
          {
            "duration": 0.17499988333329952,
            "durationTicks": 56,
            "midi": 77,
            "name": "F5",
            "ticks": 60900,
            "time": 190.31237312500002,
            "velocity": 0.6299212598425197
          },
          {
            "duration": 0.17499988333329952,
            "durationTicks": 56,
            "midi": 79,
            "name": "G5",
            "ticks": 60900,
            "time": 190.31237312500002,
            "velocity": 0.6299212598425197
          },
          {
            "duration": 0.17499988333329952,
            "durationTicks": 56,
            "midi": 84,
            "name": "C6",
            "ticks": 60900,
            "time": 190.31237312500002,
            "velocity": 0.6299212598425197
          },
          {
            "duration": 0.17499988333332794,
            "durationTicks": 56,
            "midi": 76,
            "name": "E5",
            "ticks": 60960,
            "time": 190.499873,
            "velocity": 0.6299212598425197
          },
          {
            "duration": 0.17499988333332794,
            "durationTicks": 56,
            "midi": 79,
            "name": "G5",
            "ticks": 60960,
            "time": 190.499873,
            "velocity": 0.6299212598425197
          },
          {
            "duration": 0.17499988333332794,
            "durationTicks": 56,
            "midi": 84,
            "name": "C6",
            "ticks": 60960,
            "time": 190.499873,
            "velocity": 0.6299212598425197
          },
          {
            "duration": 0.17499988333329952,
            "durationTicks": 56,
            "midi": 76,
            "name": "E5",
            "ticks": 61020,
            "time": 190.68737287500002,
            "velocity": 0.6299212598425197
          },
          {
            "duration": 0.17499988333329952,
            "durationTicks": 56,
            "midi": 79,
            "name": "G5",
            "ticks": 61020,
            "time": 190.68737287500002,
            "velocity": 0.6299212598425197
          },
          {
            "duration": 0.17499988333329952,
            "durationTicks": 56,
            "midi": 84,
            "name": "C6",
            "ticks": 61020,
            "time": 190.68737287500002,
            "velocity": 0.6299212598425197
          },
          {
            "duration": 0.17499988333332794,
            "durationTicks": 56,
            "midi": 76,
            "name": "E5",
            "ticks": 61080,
            "time": 190.87487275,
            "velocity": 0.6299212598425197
          },
          {
            "duration": 0.17499988333332794,
            "durationTicks": 56,
            "midi": 79,
            "name": "G5",
            "ticks": 61080,
            "time": 190.87487275,
            "velocity": 0.6299212598425197
          },
          {
            "duration": 0.17499988333332794,
            "durationTicks": 56,
            "midi": 84,
            "name": "C6",
            "ticks": 61080,
            "time": 190.87487275,
            "velocity": 0.6299212598425197
          },
          {
            "duration": 0.17499988333329952,
            "durationTicks": 56,
            "midi": 76,
            "name": "E5",
            "ticks": 61140,
            "time": 191.06237262500002,
            "velocity": 0.6299212598425197
          },
          {
            "duration": 0.17499988333329952,
            "durationTicks": 56,
            "midi": 79,
            "name": "G5",
            "ticks": 61140,
            "time": 191.06237262500002,
            "velocity": 0.6299212598425197
          },
          {
            "duration": 0.17499988333329952,
            "durationTicks": 56,
            "midi": 84,
            "name": "C6",
            "ticks": 61140,
            "time": 191.06237262500002,
            "velocity": 0.6299212598425197
          },
          {
            "duration": 0.17499988333332794,
            "durationTicks": 56,
            "midi": 76,
            "name": "E5",
            "ticks": 61200,
            "time": 191.2498725,
            "velocity": 0.6299212598425197
          },
          {
            "duration": 0.17499988333332794,
            "durationTicks": 56,
            "midi": 79,
            "name": "G5",
            "ticks": 61200,
            "time": 191.2498725,
            "velocity": 0.6299212598425197
          },
          {
            "duration": 0.17499988333332794,
            "durationTicks": 56,
            "midi": 84,
            "name": "C6",
            "ticks": 61200,
            "time": 191.2498725,
            "velocity": 0.6299212598425197
          },
          {
            "duration": 0.17499988333329952,
            "durationTicks": 56,
            "midi": 76,
            "name": "E5",
            "ticks": 61260,
            "time": 191.43737237500002,
            "velocity": 0.6299212598425197
          },
          {
            "duration": 0.17499988333329952,
            "durationTicks": 56,
            "midi": 79,
            "name": "G5",
            "ticks": 61260,
            "time": 191.43737237500002,
            "velocity": 0.6299212598425197
          },
          {
            "duration": 0.17499988333329952,
            "durationTicks": 56,
            "midi": 84,
            "name": "C6",
            "ticks": 61260,
            "time": 191.43737237500002,
            "velocity": 0.6299212598425197
          },
          {
            "duration": 0.17499988333332794,
            "durationTicks": 56,
            "midi": 76,
            "name": "E5",
            "ticks": 61320,
            "time": 191.62487225,
            "velocity": 0.6299212598425197
          },
          {
            "duration": 0.17499988333332794,
            "durationTicks": 56,
            "midi": 79,
            "name": "G5",
            "ticks": 61320,
            "time": 191.62487225,
            "velocity": 0.6299212598425197
          },
          {
            "duration": 0.17499988333332794,
            "durationTicks": 56,
            "midi": 84,
            "name": "C6",
            "ticks": 61320,
            "time": 191.62487225,
            "velocity": 0.6299212598425197
          },
          {
            "duration": 0.17499988333329952,
            "durationTicks": 56,
            "midi": 76,
            "name": "E5",
            "ticks": 61380,
            "time": 191.81237212500002,
            "velocity": 0.6299212598425197
          },
          {
            "duration": 0.17499988333329952,
            "durationTicks": 56,
            "midi": 79,
            "name": "G5",
            "ticks": 61380,
            "time": 191.81237212500002,
            "velocity": 0.6299212598425197
          },
          {
            "duration": 0.17499988333329952,
            "durationTicks": 56,
            "midi": 84,
            "name": "C6",
            "ticks": 61380,
            "time": 191.81237212500002,
            "velocity": 0.6299212598425197
          }
        ],
        "endOfTrackTicks": 61437
      },
      {
        "channel": 0,
        "controlChanges": {},
        "pitchBends": [],
        "instrument": {
          "family": "piano",
          "name": "acoustic grand piano",
          "number": 0
        },
        "name": "",
        "notes": [
          {
            "duration": 0.7093745270833334,
            "durationTicks": 227,
            "midi": 36,
            "name": "C2",
            "ticks": 0,
            "time": 0,
            "velocity": 0.6299212598425197
          },
          {
            "duration": 0.7093745270833334,
            "durationTicks": 227,
            "midi": 48,
            "name": "C3",
            "ticks": 0,
            "time": 0,
            "velocity": 0.6299212598425197
          },
          {
            "duration": 0.7093745270833333,
            "durationTicks": 227,
            "midi": 36,
            "name": "C2",
            "ticks": 240,
            "time": 0.7499995,
            "velocity": 0.6299212598425197
          },
          {
            "duration": 0.7093745270833333,
            "durationTicks": 227,
            "midi": 48,
            "name": "C3",
            "ticks": 240,
            "time": 0.7499995,
            "velocity": 0.6299212598425197
          },
          {
            "duration": 0.7093745270833332,
            "durationTicks": 227,
            "midi": 36,
            "name": "C2",
            "ticks": 480,
            "time": 1.499999,
            "velocity": 0.6299212598425197
          },
          {
            "duration": 0.7093745270833332,
            "durationTicks": 227,
            "midi": 48,
            "name": "C3",
            "ticks": 480,
            "time": 1.499999,
            "velocity": 0.6299212598425197
          },
          {
            "duration": 0.7093745270833334,
            "durationTicks": 227,
            "midi": 36,
            "name": "C2",
            "ticks": 720,
            "time": 2.2499985000000002,
            "velocity": 0.6299212598425197
          },
          {
            "duration": 0.7093745270833334,
            "durationTicks": 227,
            "midi": 48,
            "name": "C3",
            "ticks": 720,
            "time": 2.2499985000000002,
            "velocity": 0.6299212598425197
          },
          {
            "duration": 0.7093745270833338,
            "durationTicks": 227,
            "midi": 41,
            "name": "F2",
            "ticks": 960,
            "time": 2.999998,
            "velocity": 0.6299212598425197
          },
          {
            "duration": 0.7093745270833338,
            "durationTicks": 227,
            "midi": 41,
            "name": "F2",
            "ticks": 1200,
            "time": 3.7499975,
            "velocity": 0.6299212598425197
          },
          {
            "duration": 0.7093745270833338,
            "durationTicks": 227,
            "midi": 37,
            "name": "C#2",
            "ticks": 1440,
            "time": 4.4999970000000005,
            "velocity": 0.6299212598425197
          },
          {
            "duration": 0.7093745270833338,
            "durationTicks": 227,
            "midi": 49,
            "name": "C#3",
            "ticks": 1440,
            "time": 4.4999970000000005,
            "velocity": 0.6299212598425197
          },
          {
            "duration": 0.7093745270833338,
            "durationTicks": 227,
            "midi": 37,
            "name": "C#2",
            "ticks": 1680,
            "time": 5.2499965,
            "velocity": 0.6299212598425197
          },
          {
            "duration": 0.7093745270833338,
            "durationTicks": 227,
            "midi": 49,
            "name": "C#3",
            "ticks": 1680,
            "time": 5.2499965,
            "velocity": 0.6299212598425197
          },
          {
            "duration": 0.7093745270833329,
            "durationTicks": 227,
            "midi": 34,
            "name": "A#1",
            "ticks": 1920,
            "time": 5.999996,
            "velocity": 0.6299212598425197
          },
          {
            "duration": 0.7093745270833329,
            "durationTicks": 227,
            "midi": 46,
            "name": "A#2",
            "ticks": 1920,
            "time": 5.999996,
            "velocity": 0.6299212598425197
          },
          {
            "duration": 0.7093745270833329,
            "durationTicks": 227,
            "midi": 34,
            "name": "A#1",
            "ticks": 2160,
            "time": 6.749995500000001,
            "velocity": 0.6299212598425197
          },
          {
            "duration": 0.7093745270833329,
            "durationTicks": 227,
            "midi": 46,
            "name": "A#2",
            "ticks": 2160,
            "time": 6.749995500000001,
            "velocity": 0.6299212598425197
          },
          {
            "duration": 0.7093745270833338,
            "durationTicks": 227,
            "midi": 34,
            "name": "A#1",
            "ticks": 2400,
            "time": 7.499995,
            "velocity": 0.6299212598425197
          },
          {
            "duration": 0.7093745270833338,
            "durationTicks": 227,
            "midi": 46,
            "name": "A#2",
            "ticks": 2400,
            "time": 7.499995,
            "velocity": 0.6299212598425197
          },
          {
            "duration": 0.7093745270833338,
            "durationTicks": 227,
            "midi": 34,
            "name": "A#1",
            "ticks": 2640,
            "time": 8.2499945,
            "velocity": 0.6299212598425197
          },
          {
            "duration": 0.7093745270833338,
            "durationTicks": 227,
            "midi": 46,
            "name": "A#2",
            "ticks": 2640,
            "time": 8.2499945,
            "velocity": 0.6299212598425197
          },
          {
            "duration": 0.709374527083332,
            "durationTicks": 227,
            "midi": 39,
            "name": "D#2",
            "ticks": 2880,
            "time": 8.999994000000001,
            "velocity": 0.6299212598425197
          },
          {
            "duration": 0.7093745270833338,
            "durationTicks": 227,
            "midi": 39,
            "name": "D#2",
            "ticks": 3120,
            "time": 9.7499935,
            "velocity": 0.6299212598425197
          },
          {
            "duration": 0.7093745270833338,
            "durationTicks": 227,
            "midi": 36,
            "name": "C2",
            "ticks": 3360,
            "time": 10.499993,
            "velocity": 0.6299212598425197
          },
          {
            "duration": 0.7093745270833338,
            "durationTicks": 227,
            "midi": 48,
            "name": "C3",
            "ticks": 3360,
            "time": 10.499993,
            "velocity": 0.6299212598425197
          },
          {
            "duration": 0.709374527083332,
            "durationTicks": 227,
            "midi": 36,
            "name": "C2",
            "ticks": 3600,
            "time": 11.249992500000001,
            "velocity": 0.6299212598425197
          },
          {
            "duration": 0.709374527083332,
            "durationTicks": 227,
            "midi": 48,
            "name": "C3",
            "ticks": 3600,
            "time": 11.249992500000001,
            "velocity": 0.6299212598425197
          },
          {
            "duration": 0.7093745270833338,
            "durationTicks": 227,
            "midi": 32,
            "name": "G#1",
            "ticks": 3840,
            "time": 11.999992,
            "velocity": 0.6299212598425197
          },
          {
            "duration": 0.7093745270833338,
            "durationTicks": 227,
            "midi": 44,
            "name": "G#2",
            "ticks": 3840,
            "time": 11.999992,
            "velocity": 0.6299212598425197
          },
          {
            "duration": 0.7093745270833338,
            "durationTicks": 227,
            "midi": 32,
            "name": "G#1",
            "ticks": 4080,
            "time": 12.7499915,
            "velocity": 0.6299212598425197
          },
          {
            "duration": 0.7093745270833338,
            "durationTicks": 227,
            "midi": 44,
            "name": "G#2",
            "ticks": 4080,
            "time": 12.7499915,
            "velocity": 0.6299212598425197
          },
          {
            "duration": 0.709374527083332,
            "durationTicks": 227,
            "midi": 32,
            "name": "G#1",
            "ticks": 4320,
            "time": 13.499991000000001,
            "velocity": 0.6299212598425197
          },
          {
            "duration": 0.709374527083332,
            "durationTicks": 227,
            "midi": 44,
            "name": "G#2",
            "ticks": 4320,
            "time": 13.499991000000001,
            "velocity": 0.6299212598425197
          },
          {
            "duration": 0.709374527083332,
            "durationTicks": 227,
            "midi": 32,
            "name": "G#1",
            "ticks": 4560,
            "time": 14.249990500000001,
            "velocity": 0.6299212598425197
          },
          {
            "duration": 0.709374527083332,
            "durationTicks": 227,
            "midi": 44,
            "name": "G#2",
            "ticks": 4560,
            "time": 14.249990500000001,
            "velocity": 0.6299212598425197
          },
          {
            "duration": 0.7093745270833338,
            "durationTicks": 227,
            "midi": 37,
            "name": "C#2",
            "ticks": 4800,
            "time": 14.99999,
            "velocity": 0.6299212598425197
          },
          {
            "duration": 0.7093745270833338,
            "durationTicks": 227,
            "midi": 49,
            "name": "C#3",
            "ticks": 4800,
            "time": 14.99999,
            "velocity": 0.6299212598425197
          },
          {
            "duration": 0.7093745270833338,
            "durationTicks": 227,
            "midi": 37,
            "name": "C#2",
            "ticks": 5040,
            "time": 15.749989500000002,
            "velocity": 0.6299212598425197
          },
          {
            "duration": 0.7093745270833338,
            "durationTicks": 227,
            "midi": 49,
            "name": "C#3",
            "ticks": 5040,
            "time": 15.749989500000002,
            "velocity": 0.6299212598425197
          },
          {
            "duration": 0.7093745270833338,
            "durationTicks": 227,
            "midi": 37,
            "name": "C#2",
            "ticks": 5280,
            "time": 16.499989,
            "velocity": 0.6299212598425197
          },
          {
            "duration": 0.7093745270833338,
            "durationTicks": 227,
            "midi": 49,
            "name": "C#3",
            "ticks": 5280,
            "time": 16.499989,
            "velocity": 0.6299212598425197
          },
          {
            "duration": 0.7093745270833338,
            "durationTicks": 227,
            "midi": 37,
            "name": "C#2",
            "ticks": 5520,
            "time": 17.2499885,
            "velocity": 0.6299212598425197
          },
          {
            "duration": 0.7093745270833338,
            "durationTicks": 227,
            "midi": 49,
            "name": "C#3",
            "ticks": 5520,
            "time": 17.2499885,
            "velocity": 0.6299212598425197
          },
          {
            "duration": 0.7093745270833338,
            "durationTicks": 227,
            "midi": 34,
            "name": "A#1",
            "ticks": 5760,
            "time": 17.999988000000002,
            "velocity": 0.6299212598425197
          },
          {
            "duration": 0.7093745270833338,
            "durationTicks": 227,
            "midi": 46,
            "name": "A#2",
            "ticks": 5760,
            "time": 17.999988000000002,
            "velocity": 0.6299212598425197
          },
          {
            "duration": 0.7093745270833338,
            "durationTicks": 227,
            "midi": 34,
            "name": "A#1",
            "ticks": 6000,
            "time": 18.7499875,
            "velocity": 0.6299212598425197
          },
          {
            "duration": 0.7093745270833338,
            "durationTicks": 227,
            "midi": 46,
            "name": "A#2",
            "ticks": 6000,
            "time": 18.7499875,
            "velocity": 0.6299212598425197
          },
          {
            "duration": 0.7093745270833338,
            "durationTicks": 227,
            "midi": 34,
            "name": "A#1",
            "ticks": 6240,
            "time": 19.499987,
            "velocity": 0.6299212598425197
          },
          {
            "duration": 0.7093745270833338,
            "durationTicks": 227,
            "midi": 46,
            "name": "A#2",
            "ticks": 6240,
            "time": 19.499987,
            "velocity": 0.6299212598425197
          },
          {
            "duration": 0.7093745270833303,
            "durationTicks": 227,
            "midi": 34,
            "name": "A#1",
            "ticks": 6480,
            "time": 20.249986500000002,
            "velocity": 0.6299212598425197
          },
          {
            "duration": 0.7093745270833303,
            "durationTicks": 227,
            "midi": 46,
            "name": "A#2",
            "ticks": 6480,
            "time": 20.249986500000002,
            "velocity": 0.6299212598425197
          },
          {
            "duration": 0.7093745270833338,
            "durationTicks": 227,
            "midi": 36,
            "name": "C2",
            "ticks": 6720,
            "time": 20.999986,
            "velocity": 0.6299212598425197
          },
          {
            "duration": 0.7093745270833338,
            "durationTicks": 227,
            "midi": 48,
            "name": "C3",
            "ticks": 6720,
            "time": 20.999986,
            "velocity": 0.6299212598425197
          },
          {
            "duration": 0.7093745270833338,
            "durationTicks": 227,
            "midi": 36,
            "name": "C2",
            "ticks": 6960,
            "time": 21.7499855,
            "velocity": 0.6299212598425197
          },
          {
            "duration": 0.7093745270833338,
            "durationTicks": 227,
            "midi": 48,
            "name": "C3",
            "ticks": 6960,
            "time": 21.7499855,
            "velocity": 0.6299212598425197
          },
          {
            "duration": 0.7093745270833303,
            "durationTicks": 227,
            "midi": 36,
            "name": "C2",
            "ticks": 7200,
            "time": 22.499985000000002,
            "velocity": 0.6299212598425197
          },
          {
            "duration": 0.7093745270833303,
            "durationTicks": 227,
            "midi": 48,
            "name": "C3",
            "ticks": 7200,
            "time": 22.499985000000002,
            "velocity": 0.6299212598425197
          },
          {
            "duration": 0.7093745270833338,
            "durationTicks": 227,
            "midi": 36,
            "name": "C2",
            "ticks": 7440,
            "time": 23.2499845,
            "velocity": 0.6299212598425197
          },
          {
            "duration": 0.7093745270833338,
            "durationTicks": 227,
            "midi": 48,
            "name": "C3",
            "ticks": 7440,
            "time": 23.2499845,
            "velocity": 0.6299212598425197
          },
          {
            "duration": 0.7093745270833338,
            "durationTicks": 227,
            "midi": 41,
            "name": "F2",
            "ticks": 7680,
            "time": 23.999984,
            "velocity": 0.6299212598425197
          },
          {
            "duration": 0.7093745270833303,
            "durationTicks": 227,
            "midi": 41,
            "name": "F2",
            "ticks": 7920,
            "time": 24.749983500000003,
            "velocity": 0.6299212598425197
          },
          {
            "duration": 0.7093745270833338,
            "durationTicks": 227,
            "midi": 41,
            "name": "F2",
            "ticks": 8160,
            "time": 25.499983,
            "velocity": 0.6299212598425197
          },
          {
            "duration": 0.7093745270833338,
            "durationTicks": 227,
            "midi": 41,
            "name": "F2",
            "ticks": 8400,
            "time": 26.2499825,
            "velocity": 0.6299212598425197
          },
          {
            "duration": 0.7093745270833303,
            "durationTicks": 227,
            "midi": 37,
            "name": "C#2",
            "ticks": 8640,
            "time": 26.999982000000003,
            "velocity": 0.6299212598425197
          },
          {
            "duration": 0.7093745270833338,
            "durationTicks": 227,
            "midi": 37,
            "name": "C#2",
            "ticks": 8880,
            "time": 27.7499815,
            "velocity": 0.6299212598425197
          },
          {
            "duration": 0.7093745270833338,
            "durationTicks": 227,
            "midi": 37,
            "name": "C#2",
            "ticks": 9120,
            "time": 28.499981000000002,
            "velocity": 0.6299212598425197
          },
          {
            "duration": 0.7093745270833303,
            "durationTicks": 227,
            "midi": 37,
            "name": "C#2",
            "ticks": 9360,
            "time": 29.249980500000003,
            "velocity": 0.6299212598425197
          },
          {
            "duration": 0.7093745270833338,
            "durationTicks": 227,
            "midi": 39,
            "name": "D#2",
            "ticks": 9600,
            "time": 29.99998,
            "velocity": 0.6299212598425197
          },
          {
            "duration": 0.7093745270833338,
            "durationTicks": 227,
            "midi": 39,
            "name": "D#2",
            "ticks": 9840,
            "time": 30.749979500000002,
            "velocity": 0.6299212598425197
          },
          {
            "duration": 0.7093745270833338,
            "durationTicks": 227,
            "midi": 39,
            "name": "D#2",
            "ticks": 10080,
            "time": 31.499979000000003,
            "velocity": 0.6299212598425197
          },
          {
            "duration": 0.7093745270833267,
            "durationTicks": 227,
            "midi": 39,
            "name": "D#2",
            "ticks": 10320,
            "time": 32.249978500000005,
            "velocity": 0.6299212598425197
          },
          {
            "duration": 0.7093745270833338,
            "durationTicks": 227,
            "midi": 36,
            "name": "C2",
            "ticks": 10560,
            "time": 32.999978,
            "velocity": 0.6299212598425197
          },
          {
            "duration": 0.7093745270833338,
            "durationTicks": 227,
            "midi": 36,
            "name": "C2",
            "ticks": 10800,
            "time": 33.7499775,
            "velocity": 0.6299212598425197
          },
          {
            "duration": 0.7093745270833338,
            "durationTicks": 227,
            "midi": 36,
            "name": "C2",
            "ticks": 11040,
            "time": 34.499977,
            "velocity": 0.6299212598425197
          },
          {
            "duration": 0.7093745270833338,
            "durationTicks": 227,
            "midi": 36,
            "name": "C2",
            "ticks": 11280,
            "time": 35.2499765,
            "velocity": 0.6299212598425197
          },
          {
            "duration": 0.7093745270833338,
            "durationTicks": 227,
            "midi": 37,
            "name": "C#2",
            "ticks": 11520,
            "time": 35.999976000000004,
            "velocity": 0.6299212598425197
          },
          {
            "duration": 0.7093745270833267,
            "durationTicks": 227,
            "midi": 37,
            "name": "C#2",
            "ticks": 11760,
            "time": 36.749975500000005,
            "velocity": 0.6299212598425197
          },
          {
            "duration": 0.7093745270833338,
            "durationTicks": 227,
            "midi": 37,
            "name": "C#2",
            "ticks": 12000,
            "time": 37.499975,
            "velocity": 0.6299212598425197
          },
          {
            "duration": 0.7093745270833338,
            "durationTicks": 227,
            "midi": 37,
            "name": "C#2",
            "ticks": 12240,
            "time": 38.2499745,
            "velocity": 0.6299212598425197
          },
          {
            "duration": 0.7093745270833338,
            "durationTicks": 227,
            "midi": 34,
            "name": "A#1",
            "ticks": 12480,
            "time": 38.999974,
            "velocity": 0.6299212598425197
          },
          {
            "duration": 0.7093745270833338,
            "durationTicks": 227,
            "midi": 34,
            "name": "A#1",
            "ticks": 12720,
            "time": 39.7499735,
            "velocity": 0.6299212598425197
          },
          {
            "duration": 0.7093745270833338,
            "durationTicks": 227,
            "midi": 34,
            "name": "A#1",
            "ticks": 12960,
            "time": 40.499973000000004,
            "velocity": 0.6299212598425197
          },
          {
            "duration": 0.7093745270833267,
            "durationTicks": 227,
            "midi": 34,
            "name": "A#1",
            "ticks": 13200,
            "time": 41.249972500000005,
            "velocity": 0.6299212598425197
          },
          {
            "duration": 0.7093745270833338,
            "durationTicks": 227,
            "midi": 35,
            "name": "B1",
            "ticks": 13440,
            "time": 41.999972,
            "velocity": 0.6299212598425197
          },
          {
            "duration": 0.7093745270833338,
            "durationTicks": 227,
            "midi": 35,
            "name": "B1",
            "ticks": 13680,
            "time": 42.7499715,
            "velocity": 0.6299212598425197
          },
          {
            "duration": 0.7093745270833338,
            "durationTicks": 227,
            "midi": 35,
            "name": "B1",
            "ticks": 13920,
            "time": 43.499971,
            "velocity": 0.6299212598425197
          },
          {
            "duration": 0.7093745270833338,
            "durationTicks": 227,
            "midi": 35,
            "name": "B1",
            "ticks": 14160,
            "time": 44.2499705,
            "velocity": 0.6299212598425197
          },
          {
            "duration": 0.7093745270833338,
            "durationTicks": 227,
            "midi": 36,
            "name": "C2",
            "ticks": 14400,
            "time": 44.999970000000005,
            "velocity": 0.6299212598425197
          },
          {
            "duration": 0.7093745270833267,
            "durationTicks": 227,
            "midi": 36,
            "name": "C2",
            "ticks": 14640,
            "time": 45.749969500000006,
            "velocity": 0.6299212598425197
          },
          {
            "duration": 0.7093745270833338,
            "durationTicks": 227,
            "midi": 36,
            "name": "C2",
            "ticks": 14880,
            "time": 46.499969,
            "velocity": 0.6299212598425197
          },
          {
            "duration": 0.7093745270833338,
            "durationTicks": 227,
            "midi": 36,
            "name": "C2",
            "ticks": 15120,
            "time": 47.2499685,
            "velocity": 0.6299212598425197
          },
          {
            "duration": 0.7093745270833409,
            "durationTicks": 227,
            "midi": 41,
            "name": "F2",
            "ticks": 15360,
            "time": 47.999968,
            "velocity": 0.6299212598425197
          },
          {
            "duration": 0.35312476458333464,
            "durationTicks": 113,
            "midi": 48,
            "name": "C3",
            "ticks": 15360,
            "time": 47.999968,
            "velocity": 0.6299212598425197
          },
          {
            "duration": 0.35312476458333464,
            "durationTicks": 113,
            "midi": 48,
            "name": "C3",
            "ticks": 15480,
            "time": 48.37496775,
            "velocity": 0.6299212598425197
          },
          {
            "duration": 0.7093745270833338,
            "durationTicks": 227,
            "midi": 41,
            "name": "F2",
            "ticks": 15600,
            "time": 48.749967500000004,
            "velocity": 0.6299212598425197
          },
          {
            "duration": 0.35312476458332753,
            "durationTicks": 113,
            "midi": 48,
            "name": "C3",
            "ticks": 15600,
            "time": 48.749967500000004,
            "velocity": 0.6299212598425197
          },
          {
            "duration": 0.35312476458332753,
            "durationTicks": 113,
            "midi": 48,
            "name": "C3",
            "ticks": 15720,
            "time": 49.124967250000005,
            "velocity": 0.6299212598425197
          },
          {
            "duration": 0.7093745270833338,
            "durationTicks": 227,
            "midi": 41,
            "name": "F2",
            "ticks": 15840,
            "time": 49.499967000000005,
            "velocity": 0.6299212598425197
          },
          {
            "duration": 0.35312476458332753,
            "durationTicks": 113,
            "midi": 48,
            "name": "C3",
            "ticks": 15840,
            "time": 49.499967000000005,
            "velocity": 0.6299212598425197
          },
          {
            "duration": 0.35312476458332753,
            "durationTicks": 113,
            "midi": 48,
            "name": "C3",
            "ticks": 15960,
            "time": 49.874966750000006,
            "velocity": 0.6299212598425197
          },
          {
            "duration": 0.7093745270833409,
            "durationTicks": 227,
            "midi": 41,
            "name": "F2",
            "ticks": 16080,
            "time": 50.2499665,
            "velocity": 0.6299212598425197
          },
          {
            "duration": 0.35312476458333464,
            "durationTicks": 113,
            "midi": 48,
            "name": "C3",
            "ticks": 16080,
            "time": 50.2499665,
            "velocity": 0.6299212598425197
          },
          {
            "duration": 0.35312476458333464,
            "durationTicks": 113,
            "midi": 48,
            "name": "C3",
            "ticks": 16200,
            "time": 50.62496625,
            "velocity": 0.6299212598425197
          },
          {
            "duration": 0.7093745270833409,
            "durationTicks": 227,
            "midi": 37,
            "name": "C#2",
            "ticks": 16320,
            "time": 50.999966,
            "velocity": 0.6299212598425197
          },
          {
            "duration": 0.35312476458333464,
            "durationTicks": 113,
            "midi": 46,
            "name": "A#2",
            "ticks": 16320,
            "time": 50.999966,
            "velocity": 0.6299212598425197
          },
          {
            "duration": 0.35312476458333464,
            "durationTicks": 113,
            "midi": 46,
            "name": "A#2",
            "ticks": 16440,
            "time": 51.37496575,
            "velocity": 0.6299212598425197
          },
          {
            "duration": 0.7093745270833409,
            "durationTicks": 227,
            "midi": 37,
            "name": "C#2",
            "ticks": 16560,
            "time": 51.7499655,
            "velocity": 0.6299212598425197
          },
          {
            "duration": 0.35312476458333464,
            "durationTicks": 113,
            "midi": 46,
            "name": "A#2",
            "ticks": 16560,
            "time": 51.7499655,
            "velocity": 0.6299212598425197
          },
          {
            "duration": 0.35312476458333464,
            "durationTicks": 113,
            "midi": 46,
            "name": "A#2",
            "ticks": 16680,
            "time": 52.12496525,
            "velocity": 0.6299212598425197
          },
          {
            "duration": 0.7093745270833409,
            "durationTicks": 227,
            "midi": 37,
            "name": "C#2",
            "ticks": 16800,
            "time": 52.499965,
            "velocity": 0.6299212598425197
          },
          {
            "duration": 0.35312476458333464,
            "durationTicks": 113,
            "midi": 46,
            "name": "A#2",
            "ticks": 16800,
            "time": 52.499965,
            "velocity": 0.6299212598425197
          },
          {
            "duration": 0.35312476458333464,
            "durationTicks": 113,
            "midi": 46,
            "name": "A#2",
            "ticks": 16920,
            "time": 52.874964750000004,
            "velocity": 0.6299212598425197
          },
          {
            "duration": 0.7093745270833338,
            "durationTicks": 227,
            "midi": 37,
            "name": "C#2",
            "ticks": 17040,
            "time": 53.249964500000004,
            "velocity": 0.6299212598425197
          },
          {
            "duration": 0.35312476458332753,
            "durationTicks": 113,
            "midi": 46,
            "name": "A#2",
            "ticks": 17040,
            "time": 53.249964500000004,
            "velocity": 0.6299212598425197
          },
          {
            "duration": 0.35312476458332753,
            "durationTicks": 113,
            "midi": 46,
            "name": "A#2",
            "ticks": 17160,
            "time": 53.624964250000005,
            "velocity": 0.6299212598425197
          },
          {
            "duration": 0.7093745270833338,
            "durationTicks": 227,
            "midi": 39,
            "name": "D#2",
            "ticks": 17280,
            "time": 53.999964000000006,
            "velocity": 0.6299212598425197
          },
          {
            "duration": 0.35312476458332753,
            "durationTicks": 113,
            "midi": 46,
            "name": "A#2",
            "ticks": 17280,
            "time": 53.999964000000006,
            "velocity": 0.6299212598425197
          },
          {
            "duration": 0.35312476458332753,
            "durationTicks": 113,
            "midi": 46,
            "name": "A#2",
            "ticks": 17400,
            "time": 54.374963750000006,
            "velocity": 0.6299212598425197
          },
          {
            "duration": 0.7093745270833409,
            "durationTicks": 227,
            "midi": 39,
            "name": "D#2",
            "ticks": 17520,
            "time": 54.7499635,
            "velocity": 0.6299212598425197
          },
          {
            "duration": 0.35312476458333464,
            "durationTicks": 113,
            "midi": 46,
            "name": "A#2",
            "ticks": 17520,
            "time": 54.7499635,
            "velocity": 0.6299212598425197
          },
          {
            "duration": 0.35312476458333464,
            "durationTicks": 113,
            "midi": 46,
            "name": "A#2",
            "ticks": 17640,
            "time": 55.12496325,
            "velocity": 0.6299212598425197
          },
          {
            "duration": 0.7093745270833409,
            "durationTicks": 227,
            "midi": 39,
            "name": "D#2",
            "ticks": 17760,
            "time": 55.499963,
            "velocity": 0.6299212598425197
          },
          {
            "duration": 0.35312476458333464,
            "durationTicks": 113,
            "midi": 46,
            "name": "A#2",
            "ticks": 17760,
            "time": 55.499963,
            "velocity": 0.6299212598425197
          },
          {
            "duration": 0.35312476458333464,
            "durationTicks": 113,
            "midi": 46,
            "name": "A#2",
            "ticks": 17880,
            "time": 55.87496275,
            "velocity": 0.6299212598425197
          },
          {
            "duration": 0.7093745270833409,
            "durationTicks": 227,
            "midi": 39,
            "name": "D#2",
            "ticks": 18000,
            "time": 56.2499625,
            "velocity": 0.6299212598425197
          },
          {
            "duration": 0.35312476458333464,
            "durationTicks": 113,
            "midi": 46,
            "name": "A#2",
            "ticks": 18000,
            "time": 56.2499625,
            "velocity": 0.6299212598425197
          },
          {
            "duration": 0.35312476458333464,
            "durationTicks": 113,
            "midi": 46,
            "name": "A#2",
            "ticks": 18120,
            "time": 56.62496225,
            "velocity": 0.6299212598425197
          },
          {
            "duration": 0.7093745270833409,
            "durationTicks": 227,
            "midi": 36,
            "name": "C2",
            "ticks": 18240,
            "time": 56.999962000000004,
            "velocity": 0.6299212598425197
          },
          {
            "duration": 0.35312476458333464,
            "durationTicks": 113,
            "midi": 44,
            "name": "G#2",
            "ticks": 18240,
            "time": 56.999962000000004,
            "velocity": 0.6299212598425197
          },
          {
            "duration": 0.35312476458332753,
            "durationTicks": 113,
            "midi": 44,
            "name": "G#2",
            "ticks": 18360,
            "time": 57.374961750000004,
            "velocity": 0.6299212598425197
          },
          {
            "duration": 0.7093745270833338,
            "durationTicks": 227,
            "midi": 36,
            "name": "C2",
            "ticks": 18480,
            "time": 57.749961500000005,
            "velocity": 0.6299212598425197
          },
          {
            "duration": 0.35312476458332753,
            "durationTicks": 113,
            "midi": 44,
            "name": "G#2",
            "ticks": 18480,
            "time": 57.749961500000005,
            "velocity": 0.6299212598425197
          },
          {
            "duration": 0.35312476458332753,
            "durationTicks": 113,
            "midi": 44,
            "name": "G#2",
            "ticks": 18600,
            "time": 58.124961250000005,
            "velocity": 0.6299212598425197
          },
          {
            "duration": 0.7093745270833338,
            "durationTicks": 227,
            "midi": 36,
            "name": "C2",
            "ticks": 18720,
            "time": 58.499961000000006,
            "velocity": 0.6299212598425197
          },
          {
            "duration": 0.35312476458332753,
            "durationTicks": 113,
            "midi": 44,
            "name": "G#2",
            "ticks": 18720,
            "time": 58.499961000000006,
            "velocity": 0.6299212598425197
          },
          {
            "duration": 0.35312476458332753,
            "durationTicks": 113,
            "midi": 44,
            "name": "G#2",
            "ticks": 18840,
            "time": 58.87496075000001,
            "velocity": 0.6299212598425197
          },
          {
            "duration": 0.7093745270833409,
            "durationTicks": 227,
            "midi": 36,
            "name": "C2",
            "ticks": 18960,
            "time": 59.2499605,
            "velocity": 0.6299212598425197
          },
          {
            "duration": 0.35312476458333464,
            "durationTicks": 113,
            "midi": 44,
            "name": "G#2",
            "ticks": 18960,
            "time": 59.2499605,
            "velocity": 0.6299212598425197
          },
          {
            "duration": 0.35312476458333464,
            "durationTicks": 113,
            "midi": 44,
            "name": "G#2",
            "ticks": 19080,
            "time": 59.62496025,
            "velocity": 0.6299212598425197
          },
          {
            "duration": 0.7093745270833409,
            "durationTicks": 227,
            "midi": 37,
            "name": "C#2",
            "ticks": 19200,
            "time": 59.99996,
            "velocity": 0.6299212598425197
          },
          {
            "duration": 0.35312476458333464,
            "durationTicks": 113,
            "midi": 44,
            "name": "G#2",
            "ticks": 19200,
            "time": 59.99996,
            "velocity": 0.6299212598425197
          },
          {
            "duration": 0.35312476458333464,
            "durationTicks": 113,
            "midi": 44,
            "name": "G#2",
            "ticks": 19320,
            "time": 60.37495975,
            "velocity": 0.6299212598425197
          },
          {
            "duration": 0.7093745270833409,
            "durationTicks": 227,
            "midi": 37,
            "name": "C#2",
            "ticks": 19440,
            "time": 60.7499595,
            "velocity": 0.6299212598425197
          },
          {
            "duration": 0.35312476458333464,
            "durationTicks": 113,
            "midi": 44,
            "name": "G#2",
            "ticks": 19440,
            "time": 60.7499595,
            "velocity": 0.6299212598425197
          },
          {
            "duration": 0.35312476458333464,
            "durationTicks": 113,
            "midi": 44,
            "name": "G#2",
            "ticks": 19560,
            "time": 61.12495925,
            "velocity": 0.6299212598425197
          },
          {
            "duration": 0.7093745270833409,
            "durationTicks": 227,
            "midi": 37,
            "name": "C#2",
            "ticks": 19680,
            "time": 61.499959000000004,
            "velocity": 0.6299212598425197
          },
          {
            "duration": 0.35312476458333464,
            "durationTicks": 113,
            "midi": 44,
            "name": "G#2",
            "ticks": 19680,
            "time": 61.499959000000004,
            "velocity": 0.6299212598425197
          },
          {
            "duration": 0.35312476458332753,
            "durationTicks": 113,
            "midi": 44,
            "name": "G#2",
            "ticks": 19800,
            "time": 61.874958750000005,
            "velocity": 0.6299212598425197
          },
          {
            "duration": 0.7093745270833338,
            "durationTicks": 227,
            "midi": 37,
            "name": "C#2",
            "ticks": 19920,
            "time": 62.249958500000005,
            "velocity": 0.6299212598425197
          },
          {
            "duration": 0.35312476458332753,
            "durationTicks": 113,
            "midi": 44,
            "name": "G#2",
            "ticks": 19920,
            "time": 62.249958500000005,
            "velocity": 0.6299212598425197
          },
          {
            "duration": 0.35312476458332753,
            "durationTicks": 113,
            "midi": 44,
            "name": "G#2",
            "ticks": 20040,
            "time": 62.624958250000006,
            "velocity": 0.6299212598425197
          },
          {
            "duration": 0.7093745270833338,
            "durationTicks": 227,
            "midi": 34,
            "name": "A#1",
            "ticks": 20160,
            "time": 62.99995800000001,
            "velocity": 0.6299212598425197
          },
          {
            "duration": 0.35312476458332753,
            "durationTicks": 113,
            "midi": 43,
            "name": "G2",
            "ticks": 20160,
            "time": 62.99995800000001,
            "velocity": 0.6299212598425197
          },
          {
            "duration": 0.35312476458333464,
            "durationTicks": 113,
            "midi": 43,
            "name": "G2",
            "ticks": 20280,
            "time": 63.37495775,
            "velocity": 0.6299212598425197
          },
          {
            "duration": 0.709374527083348,
            "durationTicks": 227,
            "midi": 34,
            "name": "A#1",
            "ticks": 20400,
            "time": 63.7499575,
            "velocity": 0.6299212598425197
          },
          {
            "duration": 0.35312476458333464,
            "durationTicks": 113,
            "midi": 43,
            "name": "G2",
            "ticks": 20400,
            "time": 63.7499575,
            "velocity": 0.6299212598425197
          },
          {
            "duration": 0.35312476458332753,
            "durationTicks": 113,
            "midi": 43,
            "name": "G2",
            "ticks": 20520,
            "time": 64.12495725000001,
            "velocity": 0.6299212598425197
          },
          {
            "duration": 0.7093745270833267,
            "durationTicks": 227,
            "midi": 34,
            "name": "A#1",
            "ticks": 20640,
            "time": 64.49995700000001,
            "velocity": 0.6299212598425197
          },
          {
            "duration": 0.35312476458332753,
            "durationTicks": 113,
            "midi": 43,
            "name": "G2",
            "ticks": 20640,
            "time": 64.49995700000001,
            "velocity": 0.6299212598425197
          },
          {
            "duration": 0.35312476458332753,
            "durationTicks": 113,
            "midi": 43,
            "name": "G2",
            "ticks": 20760,
            "time": 64.87495675000001,
            "velocity": 0.6299212598425197
          },
          {
            "duration": 0.7093745270833267,
            "durationTicks": 227,
            "midi": 34,
            "name": "A#1",
            "ticks": 20880,
            "time": 65.24995650000001,
            "velocity": 0.6299212598425197
          },
          {
            "duration": 0.35312476458332753,
            "durationTicks": 113,
            "midi": 43,
            "name": "G2",
            "ticks": 20880,
            "time": 65.24995650000001,
            "velocity": 0.6299212598425197
          },
          {
            "duration": 0.35312476458334174,
            "durationTicks": 113,
            "midi": 43,
            "name": "G2",
            "ticks": 21000,
            "time": 65.62495625,
            "velocity": 0.6299212598425197
          },
          {
            "duration": 0.7093745270833409,
            "durationTicks": 227,
            "midi": 35,
            "name": "B1",
            "ticks": 21120,
            "time": 65.999956,
            "velocity": 0.6299212598425197
          },
          {
            "duration": 0.35312476458334174,
            "durationTicks": 113,
            "midi": 43,
            "name": "G2",
            "ticks": 21120,
            "time": 65.999956,
            "velocity": 0.6299212598425197
          },
          {
            "duration": 0.35312476458334174,
            "durationTicks": 113,
            "midi": 43,
            "name": "G2",
            "ticks": 21240,
            "time": 66.37495575,
            "velocity": 0.6299212598425197
          },
          {
            "duration": 0.7093745270833409,
            "durationTicks": 227,
            "midi": 35,
            "name": "B1",
            "ticks": 21360,
            "time": 66.7499555,
            "velocity": 0.6299212598425197
          },
          {
            "duration": 0.35312476458334174,
            "durationTicks": 113,
            "midi": 43,
            "name": "G2",
            "ticks": 21360,
            "time": 66.7499555,
            "velocity": 0.6299212598425197
          },
          {
            "duration": 0.35312476458334174,
            "durationTicks": 113,
            "midi": 43,
            "name": "G2",
            "ticks": 21480,
            "time": 67.12495525,
            "velocity": 0.6299212598425197
          },
          {
            "duration": 0.7093745270833409,
            "durationTicks": 227,
            "midi": 35,
            "name": "B1",
            "ticks": 21600,
            "time": 67.499955,
            "velocity": 0.6299212598425197
          },
          {
            "duration": 0.35312476458334174,
            "durationTicks": 113,
            "midi": 43,
            "name": "G2",
            "ticks": 21600,
            "time": 67.499955,
            "velocity": 0.6299212598425197
          },
          {
            "duration": 0.35312476458334174,
            "durationTicks": 113,
            "midi": 43,
            "name": "G2",
            "ticks": 21720,
            "time": 67.87495475,
            "velocity": 0.6299212598425197
          },
          {
            "duration": 0.7093745270833409,
            "durationTicks": 227,
            "midi": 35,
            "name": "B1",
            "ticks": 21840,
            "time": 68.2499545,
            "velocity": 0.6299212598425197
          },
          {
            "duration": 0.35312476458332753,
            "durationTicks": 113,
            "midi": 43,
            "name": "G2",
            "ticks": 21840,
            "time": 68.2499545,
            "velocity": 0.6299212598425197
          },
          {
            "duration": 0.35312476458332753,
            "durationTicks": 113,
            "midi": 43,
            "name": "G2",
            "ticks": 21960,
            "time": 68.62495425,
            "velocity": 0.6299212598425197
          },
          {
            "duration": 0.7093745270833409,
            "durationTicks": 227,
            "midi": 36,
            "name": "C2",
            "ticks": 22080,
            "time": 68.999954,
            "velocity": 0.6299212598425197
          },
          {
            "duration": 0.35312476458332753,
            "durationTicks": 113,
            "midi": 43,
            "name": "G2",
            "ticks": 22080,
            "time": 68.999954,
            "velocity": 0.6299212598425197
          },
          {
            "duration": 0.35312476458332753,
            "durationTicks": 113,
            "midi": 43,
            "name": "G2",
            "ticks": 22200,
            "time": 69.37495375,
            "velocity": 0.6299212598425197
          },
          {
            "duration": 0.7093745270833409,
            "durationTicks": 227,
            "midi": 36,
            "name": "C2",
            "ticks": 22320,
            "time": 69.7499535,
            "velocity": 0.6299212598425197
          },
          {
            "duration": 0.35312476458332753,
            "durationTicks": 113,
            "midi": 43,
            "name": "G2",
            "ticks": 22320,
            "time": 69.7499535,
            "velocity": 0.6299212598425197
          },
          {
            "duration": 0.35312476458332753,
            "durationTicks": 113,
            "midi": 43,
            "name": "G2",
            "ticks": 22440,
            "time": 70.12495325,
            "velocity": 0.6299212598425197
          },
          {
            "duration": 0.7093745270833409,
            "durationTicks": 227,
            "midi": 36,
            "name": "C2",
            "ticks": 22560,
            "time": 70.499953,
            "velocity": 0.6299212598425197
          },
          {
            "duration": 0.35312476458332753,
            "durationTicks": 113,
            "midi": 43,
            "name": "G2",
            "ticks": 22560,
            "time": 70.499953,
            "velocity": 0.6299212598425197
          },
          {
            "duration": 0.35312476458332753,
            "durationTicks": 113,
            "midi": 43,
            "name": "G2",
            "ticks": 22680,
            "time": 70.87495275,
            "velocity": 0.6299212598425197
          },
          {
            "duration": 0.7093745270833409,
            "durationTicks": 227,
            "midi": 36,
            "name": "C2",
            "ticks": 22800,
            "time": 71.2499525,
            "velocity": 0.6299212598425197
          },
          {
            "duration": 0.35312476458332753,
            "durationTicks": 113,
            "midi": 43,
            "name": "G2",
            "ticks": 22800,
            "time": 71.2499525,
            "velocity": 0.6299212598425197
          },
          {
            "duration": 0.35312476458332753,
            "durationTicks": 113,
            "midi": 43,
            "name": "G2",
            "ticks": 22920,
            "time": 71.62495225,
            "velocity": 0.6299212598425197
          },
          {
            "duration": 0.7468745020833296,
            "durationTicks": 239,
            "midi": 41,
            "name": "F2",
            "ticks": 23040,
            "time": 71.99995200000001,
            "velocity": 0.6299212598425197
          },
          {
            "duration": 1.4968740020833309,
            "durationTicks": 479,
            "midi": 53,
            "name": "F3",
            "ticks": 23040,
            "time": 71.99995200000001,
            "velocity": 0.6299212598425197
          },
          {
            "duration": 0.7468745020833296,
            "durationTicks": 239,
            "midi": 41,
            "name": "F2",
            "ticks": 23280,
            "time": 72.74995150000001,
            "velocity": 0.6299212598425197
          },
          {
            "duration": 0.7093745270833267,
            "durationTicks": 227,
            "midi": 53,
            "name": "F3",
            "ticks": 23520,
            "time": 73.49995100000001,
            "velocity": 0.6299212598425197
          },
          {
            "duration": 1.421874052083325,
            "durationTicks": 455,
            "midi": 55,
            "name": "G3",
            "ticks": 23520,
            "time": 73.49995100000001,
            "velocity": 0.6299212598425197
          },
          {
            "duration": 0.7093745270833409,
            "durationTicks": 227,
            "midi": 53,
            "name": "F3",
            "ticks": 23760,
            "time": 74.2499505,
            "velocity": 0.6299212598425197
          },
          {
            "duration": 0.7093745270833409,
            "durationTicks": 227,
            "midi": 49,
            "name": "C#3",
            "ticks": 24000,
            "time": 74.99995,
            "velocity": 0.6299212598425197
          },
          {
            "duration": 1.4218740520833393,
            "durationTicks": 455,
            "midi": 56,
            "name": "G#3",
            "ticks": 24000,
            "time": 74.99995,
            "velocity": 0.6299212598425197
          },
          {
            "duration": 0.7093745270833409,
            "durationTicks": 227,
            "midi": 49,
            "name": "C#3",
            "ticks": 24240,
            "time": 75.7499495,
            "velocity": 0.6299212598425197
          },
          {
            "duration": 0.7093745270833409,
            "durationTicks": 227,
            "midi": 49,
            "name": "C#3",
            "ticks": 24480,
            "time": 76.499949,
            "velocity": 0.6299212598425197
          },
          {
            "duration": 1.4218740520833393,
            "durationTicks": 455,
            "midi": 58,
            "name": "A#3",
            "ticks": 24480,
            "time": 76.499949,
            "velocity": 0.6299212598425197
          },
          {
            "duration": 0.7093745270833409,
            "durationTicks": 227,
            "midi": 49,
            "name": "C#3",
            "ticks": 24720,
            "time": 77.2499485,
            "velocity": 0.6299212598425197
          },
          {
            "duration": 0.7468745020833438,
            "durationTicks": 239,
            "midi": 51,
            "name": "D#3",
            "ticks": 24960,
            "time": 77.999948,
            "velocity": 0.6299212598425197
          },
          {
            "duration": 1.4968740020833309,
            "durationTicks": 479,
            "midi": 55,
            "name": "G3",
            "ticks": 24960,
            "time": 77.999948,
            "velocity": 0.6299212598425197
          },
          {
            "duration": 0.7468745020833296,
            "durationTicks": 239,
            "midi": 51,
            "name": "D#3",
            "ticks": 25200,
            "time": 78.7499475,
            "velocity": 0.6299212598425197
          },
          {
            "duration": 0.7093745270833409,
            "durationTicks": 227,
            "midi": 51,
            "name": "D#3",
            "ticks": 25440,
            "time": 79.499947,
            "velocity": 0.6299212598425197
          },
          {
            "duration": 1.421874052083325,
            "durationTicks": 455,
            "midi": 56,
            "name": "G#3",
            "ticks": 25440,
            "time": 79.499947,
            "velocity": 0.6299212598425197
          },
          {
            "duration": 0.7093745270833409,
            "durationTicks": 227,
            "midi": 51,
            "name": "D#3",
            "ticks": 25680,
            "time": 80.24994650000001,
            "velocity": 0.6299212598425197
          },
          {
            "duration": 0.7093745270833409,
            "durationTicks": 227,
            "midi": 48,
            "name": "C3",
            "ticks": 25920,
            "time": 80.99994600000001,
            "velocity": 0.6299212598425197
          },
          {
            "duration": 1.421874052083325,
            "durationTicks": 455,
            "midi": 58,
            "name": "A#3",
            "ticks": 25920,
            "time": 80.99994600000001,
            "velocity": 0.6299212598425197
          },
          {
            "duration": 0.7093745270833267,
            "durationTicks": 227,
            "midi": 48,
            "name": "C3",
            "ticks": 26160,
            "time": 81.74994550000001,
            "velocity": 0.6299212598425197
          },
          {
            "duration": 0.7093745270833267,
            "durationTicks": 227,
            "midi": 48,
            "name": "C3",
            "ticks": 26400,
            "time": 82.49994500000001,
            "velocity": 0.6299212598425197
          },
          {
            "duration": 1.421874052083325,
            "durationTicks": 455,
            "midi": 60,
            "name": "C4",
            "ticks": 26400,
            "time": 82.49994500000001,
            "velocity": 0.6299212598425197
          },
          {
            "duration": 0.7093745270833409,
            "durationTicks": 227,
            "midi": 48,
            "name": "C3",
            "ticks": 26640,
            "time": 83.2499445,
            "velocity": 0.6299212598425197
          },
          {
            "duration": 0.7093745270833409,
            "durationTicks": 227,
            "midi": 49,
            "name": "C#3",
            "ticks": 26880,
            "time": 83.999944,
            "velocity": 0.6299212598425197
          },
          {
            "duration": 0.7093745270833409,
            "durationTicks": 227,
            "midi": 53,
            "name": "F3",
            "ticks": 26880,
            "time": 83.999944,
            "velocity": 0.6299212598425197
          },
          {
            "duration": 0.7093745270833409,
            "durationTicks": 227,
            "midi": 56,
            "name": "G#3",
            "ticks": 26880,
            "time": 83.999944,
            "velocity": 0.6299212598425197
          },
          {
            "duration": 0.7093745270833409,
            "durationTicks": 227,
            "midi": 49,
            "name": "C#3",
            "ticks": 27120,
            "time": 84.7499435,
            "velocity": 0.6299212598425197
          },
          {
            "duration": 0.7093745270833409,
            "durationTicks": 227,
            "midi": 53,
            "name": "F3",
            "ticks": 27120,
            "time": 84.7499435,
            "velocity": 0.6299212598425197
          },
          {
            "duration": 0.7093745270833409,
            "durationTicks": 227,
            "midi": 56,
            "name": "G#3",
            "ticks": 27120,
            "time": 84.7499435,
            "velocity": 0.6299212598425197
          },
          {
            "duration": 0.7093745270833409,
            "durationTicks": 227,
            "midi": 49,
            "name": "C#3",
            "ticks": 27360,
            "time": 85.499943,
            "velocity": 0.6299212598425197
          },
          {
            "duration": 0.7093745270833409,
            "durationTicks": 227,
            "midi": 53,
            "name": "F3",
            "ticks": 27360,
            "time": 85.499943,
            "velocity": 0.6299212598425197
          },
          {
            "duration": 0.7093745270833409,
            "durationTicks": 227,
            "midi": 56,
            "name": "G#3",
            "ticks": 27360,
            "time": 85.499943,
            "velocity": 0.6299212598425197
          },
          {
            "duration": 0.7093745270833409,
            "durationTicks": 227,
            "midi": 49,
            "name": "C#3",
            "ticks": 27600,
            "time": 86.2499425,
            "velocity": 0.6299212598425197
          },
          {
            "duration": 0.7093745270833409,
            "durationTicks": 227,
            "midi": 53,
            "name": "F3",
            "ticks": 27600,
            "time": 86.2499425,
            "velocity": 0.6299212598425197
          },
          {
            "duration": 0.7093745270833409,
            "durationTicks": 227,
            "midi": 56,
            "name": "G#3",
            "ticks": 27600,
            "time": 86.2499425,
            "velocity": 0.6299212598425197
          },
          {
            "duration": 0.7093745270833409,
            "durationTicks": 227,
            "midi": 46,
            "name": "A#2",
            "ticks": 27840,
            "time": 86.999942,
            "velocity": 0.6299212598425197
          },
          {
            "duration": 0.7093745270833409,
            "durationTicks": 227,
            "midi": 49,
            "name": "C#3",
            "ticks": 27840,
            "time": 86.999942,
            "velocity": 0.6299212598425197
          },
          {
            "duration": 0.7093745270833409,
            "durationTicks": 227,
            "midi": 53,
            "name": "F3",
            "ticks": 27840,
            "time": 86.999942,
            "velocity": 0.6299212598425197
          },
          {
            "duration": 0.7093745270833409,
            "durationTicks": 227,
            "midi": 55,
            "name": "G3",
            "ticks": 27840,
            "time": 86.999942,
            "velocity": 0.6299212598425197
          },
          {
            "duration": 0.7093745270833409,
            "durationTicks": 227,
            "midi": 46,
            "name": "A#2",
            "ticks": 28080,
            "time": 87.7499415,
            "velocity": 0.6299212598425197
          },
          {
            "duration": 0.7093745270833409,
            "durationTicks": 227,
            "midi": 49,
            "name": "C#3",
            "ticks": 28080,
            "time": 87.7499415,
            "velocity": 0.6299212598425197
          },
          {
            "duration": 0.7093745270833409,
            "durationTicks": 227,
            "midi": 53,
            "name": "F3",
            "ticks": 28080,
            "time": 87.7499415,
            "velocity": 0.6299212598425197
          },
          {
            "duration": 0.7093745270833409,
            "durationTicks": 227,
            "midi": 55,
            "name": "G3",
            "ticks": 28080,
            "time": 87.7499415,
            "velocity": 0.6299212598425197
          },
          {
            "duration": 0.7093745270833409,
            "durationTicks": 227,
            "midi": 46,
            "name": "A#2",
            "ticks": 28320,
            "time": 88.499941,
            "velocity": 0.6299212598425197
          },
          {
            "duration": 0.7093745270833409,
            "durationTicks": 227,
            "midi": 49,
            "name": "C#3",
            "ticks": 28320,
            "time": 88.499941,
            "velocity": 0.6299212598425197
          },
          {
            "duration": 0.7093745270833409,
            "durationTicks": 227,
            "midi": 53,
            "name": "F3",
            "ticks": 28320,
            "time": 88.499941,
            "velocity": 0.6299212598425197
          },
          {
            "duration": 0.7093745270833409,
            "durationTicks": 227,
            "midi": 55,
            "name": "G3",
            "ticks": 28320,
            "time": 88.499941,
            "velocity": 0.6299212598425197
          },
          {
            "duration": 0.7093745270833409,
            "durationTicks": 227,
            "midi": 46,
            "name": "A#2",
            "ticks": 28560,
            "time": 89.24994050000001,
            "velocity": 0.6299212598425197
          },
          {
            "duration": 0.7093745270833409,
            "durationTicks": 227,
            "midi": 49,
            "name": "C#3",
            "ticks": 28560,
            "time": 89.24994050000001,
            "velocity": 0.6299212598425197
          },
          {
            "duration": 0.7093745270833409,
            "durationTicks": 227,
            "midi": 53,
            "name": "F3",
            "ticks": 28560,
            "time": 89.24994050000001,
            "velocity": 0.6299212598425197
          },
          {
            "duration": 0.7093745270833409,
            "durationTicks": 227,
            "midi": 55,
            "name": "G3",
            "ticks": 28560,
            "time": 89.24994050000001,
            "velocity": 0.6299212598425197
          },
          {
            "duration": 0.7093745270833409,
            "durationTicks": 227,
            "midi": 47,
            "name": "B2",
            "ticks": 28800,
            "time": 89.99994000000001,
            "velocity": 0.6299212598425197
          },
          {
            "duration": 0.7093745270833409,
            "durationTicks": 227,
            "midi": 50,
            "name": "D3",
            "ticks": 28800,
            "time": 89.99994000000001,
            "velocity": 0.6299212598425197
          },
          {
            "duration": 0.7093745270833409,
            "durationTicks": 227,
            "midi": 53,
            "name": "F3",
            "ticks": 28800,
            "time": 89.99994000000001,
            "velocity": 0.6299212598425197
          },
          {
            "duration": 0.7093745270833409,
            "durationTicks": 227,
            "midi": 55,
            "name": "G3",
            "ticks": 28800,
            "time": 89.99994000000001,
            "velocity": 0.6299212598425197
          },
          {
            "duration": 0.7093745270833267,
            "durationTicks": 227,
            "midi": 47,
            "name": "B2",
            "ticks": 29040,
            "time": 90.74993950000001,
            "velocity": 0.6299212598425197
          },
          {
            "duration": 0.7093745270833267,
            "durationTicks": 227,
            "midi": 50,
            "name": "D3",
            "ticks": 29040,
            "time": 90.74993950000001,
            "velocity": 0.6299212598425197
          },
          {
            "duration": 0.7093745270833267,
            "durationTicks": 227,
            "midi": 53,
            "name": "F3",
            "ticks": 29040,
            "time": 90.74993950000001,
            "velocity": 0.6299212598425197
          },
          {
            "duration": 0.7093745270833267,
            "durationTicks": 227,
            "midi": 55,
            "name": "G3",
            "ticks": 29040,
            "time": 90.74993950000001,
            "velocity": 0.6299212598425197
          },
          {
            "duration": 0.7093745270833267,
            "durationTicks": 227,
            "midi": 47,
            "name": "B2",
            "ticks": 29280,
            "time": 91.49993900000001,
            "velocity": 0.6299212598425197
          },
          {
            "duration": 0.7093745270833267,
            "durationTicks": 227,
            "midi": 50,
            "name": "D3",
            "ticks": 29280,
            "time": 91.49993900000001,
            "velocity": 0.6299212598425197
          },
          {
            "duration": 0.7093745270833267,
            "durationTicks": 227,
            "midi": 53,
            "name": "F3",
            "ticks": 29280,
            "time": 91.49993900000001,
            "velocity": 0.6299212598425197
          },
          {
            "duration": 0.7093745270833267,
            "durationTicks": 227,
            "midi": 55,
            "name": "G3",
            "ticks": 29280,
            "time": 91.49993900000001,
            "velocity": 0.6299212598425197
          },
          {
            "duration": 0.7093745270833409,
            "durationTicks": 227,
            "midi": 47,
            "name": "B2",
            "ticks": 29520,
            "time": 92.2499385,
            "velocity": 0.6299212598425197
          },
          {
            "duration": 0.7093745270833409,
            "durationTicks": 227,
            "midi": 50,
            "name": "D3",
            "ticks": 29520,
            "time": 92.2499385,
            "velocity": 0.6299212598425197
          },
          {
            "duration": 0.7093745270833409,
            "durationTicks": 227,
            "midi": 53,
            "name": "F3",
            "ticks": 29520,
            "time": 92.2499385,
            "velocity": 0.6299212598425197
          },
          {
            "duration": 0.7093745270833409,
            "durationTicks": 227,
            "midi": 55,
            "name": "G3",
            "ticks": 29520,
            "time": 92.2499385,
            "velocity": 0.6299212598425197
          },
          {
            "duration": 0.7093745270833409,
            "durationTicks": 227,
            "midi": 48,
            "name": "C3",
            "ticks": 29760,
            "time": 92.999938,
            "velocity": 0.6299212598425197
          },
          {
            "duration": 0.7093745270833409,
            "durationTicks": 227,
            "midi": 53,
            "name": "F3",
            "ticks": 29760,
            "time": 92.999938,
            "velocity": 0.6299212598425197
          },
          {
            "duration": 0.7093745270833409,
            "durationTicks": 227,
            "midi": 55,
            "name": "G3",
            "ticks": 29760,
            "time": 92.999938,
            "velocity": 0.6299212598425197
          },
          {
            "duration": 0.7093745270833409,
            "durationTicks": 227,
            "midi": 48,
            "name": "C3",
            "ticks": 30000,
            "time": 93.7499375,
            "velocity": 0.6299212598425197
          },
          {
            "duration": 0.7093745270833409,
            "durationTicks": 227,
            "midi": 53,
            "name": "F3",
            "ticks": 30000,
            "time": 93.7499375,
            "velocity": 0.6299212598425197
          },
          {
            "duration": 0.7093745270833409,
            "durationTicks": 227,
            "midi": 55,
            "name": "G3",
            "ticks": 30000,
            "time": 93.7499375,
            "velocity": 0.6299212598425197
          },
          {
            "duration": 0.7093745270833409,
            "durationTicks": 227,
            "midi": 48,
            "name": "C3",
            "ticks": 30240,
            "time": 94.499937,
            "velocity": 0.6299212598425197
          },
          {
            "duration": 0.7093745270833409,
            "durationTicks": 227,
            "midi": 52,
            "name": "E3",
            "ticks": 30240,
            "time": 94.499937,
            "velocity": 0.6299212598425197
          },
          {
            "duration": 0.7093745270833409,
            "durationTicks": 227,
            "midi": 55,
            "name": "G3",
            "ticks": 30240,
            "time": 94.499937,
            "velocity": 0.6299212598425197
          },
          {
            "duration": 0.7093745270833409,
            "durationTicks": 227,
            "midi": 48,
            "name": "C3",
            "ticks": 30480,
            "time": 95.2499365,
            "velocity": 0.6299212598425197
          },
          {
            "duration": 0.7093745270833409,
            "durationTicks": 227,
            "midi": 52,
            "name": "E3",
            "ticks": 30480,
            "time": 95.2499365,
            "velocity": 0.6299212598425197
          },
          {
            "duration": 0.7093745270833409,
            "durationTicks": 227,
            "midi": 55,
            "name": "G3",
            "ticks": 30480,
            "time": 95.2499365,
            "velocity": 0.6299212598425197
          },
          {
            "duration": 0.7093745270833267,
            "durationTicks": 227,
            "midi": 41,
            "name": "F2",
            "ticks": 30720,
            "time": 95.999936,
            "velocity": 0.6299212598425197
          },
          {
            "duration": 0.7093745270833267,
            "durationTicks": 227,
            "midi": 48,
            "name": "C3",
            "ticks": 30720,
            "time": 95.999936,
            "velocity": 0.6299212598425197
          },
          {
            "duration": 0.7093745270833267,
            "durationTicks": 227,
            "midi": 53,
            "name": "F3",
            "ticks": 30720,
            "time": 95.999936,
            "velocity": 0.6299212598425197
          },
          {
            "duration": 0.7093745270833267,
            "durationTicks": 227,
            "midi": 41,
            "name": "F2",
            "ticks": 30960,
            "time": 96.7499355,
            "velocity": 0.6299212598425197
          },
          {
            "duration": 0.7093745270833267,
            "durationTicks": 227,
            "midi": 48,
            "name": "C3",
            "ticks": 30960,
            "time": 96.7499355,
            "velocity": 0.6299212598425197
          },
          {
            "duration": 0.7093745270833267,
            "durationTicks": 227,
            "midi": 53,
            "name": "F3",
            "ticks": 30960,
            "time": 96.7499355,
            "velocity": 0.6299212598425197
          },
          {
            "duration": 0.7093745270833267,
            "durationTicks": 227,
            "midi": 41,
            "name": "F2",
            "ticks": 31200,
            "time": 97.49993500000001,
            "velocity": 0.6299212598425197
          },
          {
            "duration": 0.7093745270833267,
            "durationTicks": 227,
            "midi": 48,
            "name": "C3",
            "ticks": 31200,
            "time": 97.49993500000001,
            "velocity": 0.6299212598425197
          },
          {
            "duration": 0.7093745270833267,
            "durationTicks": 227,
            "midi": 53,
            "name": "F3",
            "ticks": 31200,
            "time": 97.49993500000001,
            "velocity": 0.6299212598425197
          },
          {
            "duration": 0.7093745270833267,
            "durationTicks": 227,
            "midi": 41,
            "name": "F2",
            "ticks": 31440,
            "time": 98.24993450000001,
            "velocity": 0.6299212598425197
          },
          {
            "duration": 0.7093745270833267,
            "durationTicks": 227,
            "midi": 48,
            "name": "C3",
            "ticks": 31440,
            "time": 98.24993450000001,
            "velocity": 0.6299212598425197
          },
          {
            "duration": 0.7093745270833267,
            "durationTicks": 227,
            "midi": 53,
            "name": "F3",
            "ticks": 31440,
            "time": 98.24993450000001,
            "velocity": 0.6299212598425197
          },
          {
            "duration": 0.7093745270833267,
            "durationTicks": 227,
            "midi": 37,
            "name": "C#2",
            "ticks": 31680,
            "time": 98.99993400000001,
            "velocity": 0.6299212598425197
          },
          {
            "duration": 0.7093745270833267,
            "durationTicks": 227,
            "midi": 41,
            "name": "F2",
            "ticks": 31680,
            "time": 98.99993400000001,
            "velocity": 0.6299212598425197
          },
          {
            "duration": 0.7093745270833267,
            "durationTicks": 227,
            "midi": 46,
            "name": "A#2",
            "ticks": 31680,
            "time": 98.99993400000001,
            "velocity": 0.6299212598425197
          },
          {
            "duration": 0.7093745270833267,
            "durationTicks": 227,
            "midi": 37,
            "name": "C#2",
            "ticks": 31920,
            "time": 99.74993350000001,
            "velocity": 0.6299212598425197
          },
          {
            "duration": 0.7093745270833267,
            "durationTicks": 227,
            "midi": 41,
            "name": "F2",
            "ticks": 31920,
            "time": 99.74993350000001,
            "velocity": 0.6299212598425197
          },
          {
            "duration": 0.7093745270833267,
            "durationTicks": 227,
            "midi": 46,
            "name": "A#2",
            "ticks": 31920,
            "time": 99.74993350000001,
            "velocity": 0.6299212598425197
          },
          {
            "duration": 0.7093745270833409,
            "durationTicks": 227,
            "midi": 37,
            "name": "C#2",
            "ticks": 32160,
            "time": 100.499933,
            "velocity": 0.6299212598425197
          },
          {
            "duration": 0.7093745270833409,
            "durationTicks": 227,
            "midi": 41,
            "name": "F2",
            "ticks": 32160,
            "time": 100.499933,
            "velocity": 0.6299212598425197
          },
          {
            "duration": 0.7093745270833409,
            "durationTicks": 227,
            "midi": 46,
            "name": "A#2",
            "ticks": 32160,
            "time": 100.499933,
            "velocity": 0.6299212598425197
          },
          {
            "duration": 0.7093745270833267,
            "durationTicks": 227,
            "midi": 37,
            "name": "C#2",
            "ticks": 32400,
            "time": 101.2499325,
            "velocity": 0.6299212598425197
          },
          {
            "duration": 0.7093745270833267,
            "durationTicks": 227,
            "midi": 41,
            "name": "F2",
            "ticks": 32400,
            "time": 101.2499325,
            "velocity": 0.6299212598425197
          },
          {
            "duration": 0.7093745270833267,
            "durationTicks": 227,
            "midi": 46,
            "name": "A#2",
            "ticks": 32400,
            "time": 101.2499325,
            "velocity": 0.6299212598425197
          },
          {
            "duration": 0.7093745270833267,
            "durationTicks": 227,
            "midi": 39,
            "name": "D#2",
            "ticks": 32640,
            "time": 101.999932,
            "velocity": 0.6299212598425197
          },
          {
            "duration": 0.7093745270833267,
            "durationTicks": 227,
            "midi": 43,
            "name": "G2",
            "ticks": 32640,
            "time": 101.999932,
            "velocity": 0.6299212598425197
          },
          {
            "duration": 0.7093745270833267,
            "durationTicks": 227,
            "midi": 46,
            "name": "A#2",
            "ticks": 32640,
            "time": 101.999932,
            "velocity": 0.6299212598425197
          },
          {
            "duration": 0.7093745270833267,
            "durationTicks": 227,
            "midi": 39,
            "name": "D#2",
            "ticks": 32880,
            "time": 102.7499315,
            "velocity": 0.6299212598425197
          },
          {
            "duration": 0.7093745270833267,
            "durationTicks": 227,
            "midi": 43,
            "name": "G2",
            "ticks": 32880,
            "time": 102.7499315,
            "velocity": 0.6299212598425197
          },
          {
            "duration": 0.7093745270833267,
            "durationTicks": 227,
            "midi": 46,
            "name": "A#2",
            "ticks": 32880,
            "time": 102.7499315,
            "velocity": 0.6299212598425197
          },
          {
            "duration": 0.7093745270833267,
            "durationTicks": 227,
            "midi": 39,
            "name": "D#2",
            "ticks": 33120,
            "time": 103.499931,
            "velocity": 0.6299212598425197
          },
          {
            "duration": 0.7093745270833267,
            "durationTicks": 227,
            "midi": 43,
            "name": "G2",
            "ticks": 33120,
            "time": 103.499931,
            "velocity": 0.6299212598425197
          },
          {
            "duration": 0.7093745270833267,
            "durationTicks": 227,
            "midi": 46,
            "name": "A#2",
            "ticks": 33120,
            "time": 103.499931,
            "velocity": 0.6299212598425197
          },
          {
            "duration": 0.7093745270833267,
            "durationTicks": 227,
            "midi": 39,
            "name": "D#2",
            "ticks": 33360,
            "time": 104.2499305,
            "velocity": 0.6299212598425197
          },
          {
            "duration": 0.7093745270833267,
            "durationTicks": 227,
            "midi": 43,
            "name": "G2",
            "ticks": 33360,
            "time": 104.2499305,
            "velocity": 0.6299212598425197
          },
          {
            "duration": 0.7093745270833267,
            "durationTicks": 227,
            "midi": 46,
            "name": "A#2",
            "ticks": 33360,
            "time": 104.2499305,
            "velocity": 0.6299212598425197
          },
          {
            "duration": 0.7093745270833267,
            "durationTicks": 227,
            "midi": 36,
            "name": "C2",
            "ticks": 33600,
            "time": 104.99993,
            "velocity": 0.6299212598425197
          },
          {
            "duration": 0.7093745270833267,
            "durationTicks": 227,
            "midi": 39,
            "name": "D#2",
            "ticks": 33600,
            "time": 104.99993,
            "velocity": 0.6299212598425197
          },
          {
            "duration": 0.7093745270833267,
            "durationTicks": 227,
            "midi": 44,
            "name": "G#2",
            "ticks": 33600,
            "time": 104.99993,
            "velocity": 0.6299212598425197
          },
          {
            "duration": 0.7093745270833267,
            "durationTicks": 227,
            "midi": 36,
            "name": "C2",
            "ticks": 33840,
            "time": 105.74992950000001,
            "velocity": 0.6299212598425197
          },
          {
            "duration": 0.7093745270833267,
            "durationTicks": 227,
            "midi": 39,
            "name": "D#2",
            "ticks": 33840,
            "time": 105.74992950000001,
            "velocity": 0.6299212598425197
          },
          {
            "duration": 0.7093745270833267,
            "durationTicks": 227,
            "midi": 44,
            "name": "G#2",
            "ticks": 33840,
            "time": 105.74992950000001,
            "velocity": 0.6299212598425197
          },
          {
            "duration": 0.7093745270833267,
            "durationTicks": 227,
            "midi": 36,
            "name": "C2",
            "ticks": 34080,
            "time": 106.49992900000001,
            "velocity": 0.6299212598425197
          },
          {
            "duration": 0.7093745270833267,
            "durationTicks": 227,
            "midi": 39,
            "name": "D#2",
            "ticks": 34080,
            "time": 106.49992900000001,
            "velocity": 0.6299212598425197
          },
          {
            "duration": 0.7093745270833267,
            "durationTicks": 227,
            "midi": 44,
            "name": "G#2",
            "ticks": 34080,
            "time": 106.49992900000001,
            "velocity": 0.6299212598425197
          },
          {
            "duration": 0.7093745270833267,
            "durationTicks": 227,
            "midi": 36,
            "name": "C2",
            "ticks": 34320,
            "time": 107.24992850000001,
            "velocity": 0.6299212598425197
          },
          {
            "duration": 0.7093745270833267,
            "durationTicks": 227,
            "midi": 39,
            "name": "D#2",
            "ticks": 34320,
            "time": 107.24992850000001,
            "velocity": 0.6299212598425197
          },
          {
            "duration": 0.7093745270833267,
            "durationTicks": 227,
            "midi": 44,
            "name": "G#2",
            "ticks": 34320,
            "time": 107.24992850000001,
            "velocity": 0.6299212598425197
          },
          {
            "duration": 0.7093745270833267,
            "durationTicks": 227,
            "midi": 37,
            "name": "C#2",
            "ticks": 34560,
            "time": 107.99992800000001,
            "velocity": 0.6299212598425197
          },
          {
            "duration": 0.7093745270833267,
            "durationTicks": 227,
            "midi": 41,
            "name": "F2",
            "ticks": 34560,
            "time": 107.99992800000001,
            "velocity": 0.6299212598425197
          },
          {
            "duration": 0.7093745270833267,
            "durationTicks": 227,
            "midi": 44,
            "name": "G#2",
            "ticks": 34560,
            "time": 107.99992800000001,
            "velocity": 0.6299212598425197
          },
          {
            "duration": 0.7093745270833267,
            "durationTicks": 227,
            "midi": 37,
            "name": "C#2",
            "ticks": 34800,
            "time": 108.74992750000001,
            "velocity": 0.6299212598425197
          },
          {
            "duration": 0.7093745270833267,
            "durationTicks": 227,
            "midi": 41,
            "name": "F2",
            "ticks": 34800,
            "time": 108.74992750000001,
            "velocity": 0.6299212598425197
          },
          {
            "duration": 0.7093745270833267,
            "durationTicks": 227,
            "midi": 44,
            "name": "G#2",
            "ticks": 34800,
            "time": 108.74992750000001,
            "velocity": 0.6299212598425197
          },
          {
            "duration": 0.7093745270833409,
            "durationTicks": 227,
            "midi": 37,
            "name": "C#2",
            "ticks": 35040,
            "time": 109.499927,
            "velocity": 0.6299212598425197
          },
          {
            "duration": 0.7093745270833409,
            "durationTicks": 227,
            "midi": 41,
            "name": "F2",
            "ticks": 35040,
            "time": 109.499927,
            "velocity": 0.6299212598425197
          },
          {
            "duration": 0.7093745270833409,
            "durationTicks": 227,
            "midi": 44,
            "name": "G#2",
            "ticks": 35040,
            "time": 109.499927,
            "velocity": 0.6299212598425197
          },
          {
            "duration": 0.7093745270833267,
            "durationTicks": 227,
            "midi": 37,
            "name": "C#2",
            "ticks": 35280,
            "time": 110.2499265,
            "velocity": 0.6299212598425197
          },
          {
            "duration": 0.7093745270833267,
            "durationTicks": 227,
            "midi": 41,
            "name": "F2",
            "ticks": 35280,
            "time": 110.2499265,
            "velocity": 0.6299212598425197
          },
          {
            "duration": 0.7093745270833267,
            "durationTicks": 227,
            "midi": 44,
            "name": "G#2",
            "ticks": 35280,
            "time": 110.2499265,
            "velocity": 0.6299212598425197
          },
          {
            "duration": 0.7093745270833267,
            "durationTicks": 227,
            "midi": 34,
            "name": "A#1",
            "ticks": 35520,
            "time": 110.999926,
            "velocity": 0.6299212598425197
          },
          {
            "duration": 0.7093745270833267,
            "durationTicks": 227,
            "midi": 41,
            "name": "F2",
            "ticks": 35520,
            "time": 110.999926,
            "velocity": 0.6299212598425197
          },
          {
            "duration": 0.7093745270833267,
            "durationTicks": 227,
            "midi": 43,
            "name": "G2",
            "ticks": 35520,
            "time": 110.999926,
            "velocity": 0.6299212598425197
          },
          {
            "duration": 0.7093745270833267,
            "durationTicks": 227,
            "midi": 34,
            "name": "A#1",
            "ticks": 35760,
            "time": 111.7499255,
            "velocity": 0.6299212598425197
          },
          {
            "duration": 0.7093745270833267,
            "durationTicks": 227,
            "midi": 41,
            "name": "F2",
            "ticks": 35760,
            "time": 111.7499255,
            "velocity": 0.6299212598425197
          },
          {
            "duration": 0.7093745270833267,
            "durationTicks": 227,
            "midi": 43,
            "name": "G2",
            "ticks": 35760,
            "time": 111.7499255,
            "velocity": 0.6299212598425197
          },
          {
            "duration": 0.7093745270833267,
            "durationTicks": 227,
            "midi": 34,
            "name": "A#1",
            "ticks": 36000,
            "time": 112.499925,
            "velocity": 0.6299212598425197
          },
          {
            "duration": 0.7093745270833267,
            "durationTicks": 227,
            "midi": 41,
            "name": "F2",
            "ticks": 36000,
            "time": 112.499925,
            "velocity": 0.6299212598425197
          },
          {
            "duration": 0.7093745270833267,
            "durationTicks": 227,
            "midi": 43,
            "name": "G2",
            "ticks": 36000,
            "time": 112.499925,
            "velocity": 0.6299212598425197
          },
          {
            "duration": 0.7093745270833267,
            "durationTicks": 227,
            "midi": 34,
            "name": "A#1",
            "ticks": 36240,
            "time": 113.2499245,
            "velocity": 0.6299212598425197
          },
          {
            "duration": 0.7093745270833267,
            "durationTicks": 227,
            "midi": 41,
            "name": "F2",
            "ticks": 36240,
            "time": 113.2499245,
            "velocity": 0.6299212598425197
          },
          {
            "duration": 0.7093745270833267,
            "durationTicks": 227,
            "midi": 43,
            "name": "G2",
            "ticks": 36240,
            "time": 113.2499245,
            "velocity": 0.6299212598425197
          },
          {
            "duration": 0.7093745270833267,
            "durationTicks": 227,
            "midi": 34,
            "name": "A#1",
            "ticks": 36480,
            "time": 113.99992400000001,
            "velocity": 0.6299212598425197
          },
          {
            "duration": 0.7093745270833267,
            "durationTicks": 227,
            "midi": 41,
            "name": "F2",
            "ticks": 36480,
            "time": 113.99992400000001,
            "velocity": 0.6299212598425197
          },
          {
            "duration": 0.7093745270833267,
            "durationTicks": 227,
            "midi": 43,
            "name": "G2",
            "ticks": 36480,
            "time": 113.99992400000001,
            "velocity": 0.6299212598425197
          },
          {
            "duration": 0.7093745270833267,
            "durationTicks": 227,
            "midi": 34,
            "name": "A#1",
            "ticks": 36720,
            "time": 114.74992350000001,
            "velocity": 0.6299212598425197
          },
          {
            "duration": 0.7093745270833267,
            "durationTicks": 227,
            "midi": 41,
            "name": "F2",
            "ticks": 36720,
            "time": 114.74992350000001,
            "velocity": 0.6299212598425197
          },
          {
            "duration": 0.7093745270833267,
            "durationTicks": 227,
            "midi": 43,
            "name": "G2",
            "ticks": 36720,
            "time": 114.74992350000001,
            "velocity": 0.6299212598425197
          },
          {
            "duration": 0.7093745270833267,
            "durationTicks": 227,
            "midi": 34,
            "name": "A#1",
            "ticks": 36960,
            "time": 115.49992300000001,
            "velocity": 0.6299212598425197
          },
          {
            "duration": 0.7093745270833267,
            "durationTicks": 227,
            "midi": 41,
            "name": "F2",
            "ticks": 36960,
            "time": 115.49992300000001,
            "velocity": 0.6299212598425197
          },
          {
            "duration": 0.7093745270833267,
            "durationTicks": 227,
            "midi": 43,
            "name": "G2",
            "ticks": 36960,
            "time": 115.49992300000001,
            "velocity": 0.6299212598425197
          },
          {
            "duration": 0.7093745270833267,
            "durationTicks": 227,
            "midi": 34,
            "name": "A#1",
            "ticks": 37200,
            "time": 116.24992250000001,
            "velocity": 0.6299212598425197
          },
          {
            "duration": 0.7093745270833267,
            "durationTicks": 227,
            "midi": 41,
            "name": "F2",
            "ticks": 37200,
            "time": 116.24992250000001,
            "velocity": 0.6299212598425197
          },
          {
            "duration": 0.7093745270833267,
            "durationTicks": 227,
            "midi": 43,
            "name": "G2",
            "ticks": 37200,
            "time": 116.24992250000001,
            "velocity": 0.6299212598425197
          },
          {
            "duration": 0.7093745270833267,
            "durationTicks": 227,
            "midi": 36,
            "name": "C2",
            "ticks": 37440,
            "time": 116.99992200000001,
            "velocity": 0.6299212598425197
          },
          {
            "duration": 0.7093745270833267,
            "durationTicks": 227,
            "midi": 43,
            "name": "G2",
            "ticks": 37440,
            "time": 116.99992200000001,
            "velocity": 0.6299212598425197
          },
          {
            "duration": 0.7093745270833267,
            "durationTicks": 227,
            "midi": 36,
            "name": "C2",
            "ticks": 37680,
            "time": 117.74992150000001,
            "velocity": 0.6299212598425197
          },
          {
            "duration": 0.7093745270833267,
            "durationTicks": 227,
            "midi": 43,
            "name": "G2",
            "ticks": 37680,
            "time": 117.74992150000001,
            "velocity": 0.6299212598425197
          },
          {
            "duration": 0.7093745270833267,
            "durationTicks": 227,
            "midi": 36,
            "name": "C2",
            "ticks": 37920,
            "time": 118.499921,
            "velocity": 0.6299212598425197
          },
          {
            "duration": 0.7093745270833267,
            "durationTicks": 227,
            "midi": 43,
            "name": "G2",
            "ticks": 37920,
            "time": 118.499921,
            "velocity": 0.6299212598425197
          },
          {
            "duration": 0.7093745270833267,
            "durationTicks": 227,
            "midi": 36,
            "name": "C2",
            "ticks": 38160,
            "time": 119.2499205,
            "velocity": 0.6299212598425197
          },
          {
            "duration": 0.7093745270833267,
            "durationTicks": 227,
            "midi": 43,
            "name": "G2",
            "ticks": 38160,
            "time": 119.2499205,
            "velocity": 0.6299212598425197
          },
          {
            "duration": 0.7093745270833267,
            "durationTicks": 227,
            "midi": 41,
            "name": "F2",
            "ticks": 38400,
            "time": 119.99992,
            "velocity": 0.6299212598425197
          },
          {
            "duration": 0.7093745270833267,
            "durationTicks": 227,
            "midi": 48,
            "name": "C3",
            "ticks": 38400,
            "time": 119.99992,
            "velocity": 0.6299212598425197
          },
          {
            "duration": 0.7093745270833267,
            "durationTicks": 227,
            "midi": 53,
            "name": "F3",
            "ticks": 38400,
            "time": 119.99992,
            "velocity": 0.6299212598425197
          },
          {
            "duration": 0.7093745270833267,
            "durationTicks": 227,
            "midi": 41,
            "name": "F2",
            "ticks": 38640,
            "time": 120.7499195,
            "velocity": 0.6299212598425197
          },
          {
            "duration": 0.7093745270833267,
            "durationTicks": 227,
            "midi": 48,
            "name": "C3",
            "ticks": 38640,
            "time": 120.7499195,
            "velocity": 0.6299212598425197
          },
          {
            "duration": 0.7093745270833267,
            "durationTicks": 227,
            "midi": 53,
            "name": "F3",
            "ticks": 38640,
            "time": 120.7499195,
            "velocity": 0.6299212598425197
          },
          {
            "duration": 0.7093745270833267,
            "durationTicks": 227,
            "midi": 41,
            "name": "F2",
            "ticks": 38880,
            "time": 121.499919,
            "velocity": 0.6299212598425197
          },
          {
            "duration": 0.7093745270833267,
            "durationTicks": 227,
            "midi": 48,
            "name": "C3",
            "ticks": 38880,
            "time": 121.499919,
            "velocity": 0.6299212598425197
          },
          {
            "duration": 0.7093745270833267,
            "durationTicks": 227,
            "midi": 53,
            "name": "F3",
            "ticks": 38880,
            "time": 121.499919,
            "velocity": 0.6299212598425197
          },
          {
            "duration": 0.7093745270833267,
            "durationTicks": 227,
            "midi": 41,
            "name": "F2",
            "ticks": 39120,
            "time": 122.2499185,
            "velocity": 0.6299212598425197
          },
          {
            "duration": 0.7093745270833267,
            "durationTicks": 227,
            "midi": 48,
            "name": "C3",
            "ticks": 39120,
            "time": 122.2499185,
            "velocity": 0.6299212598425197
          },
          {
            "duration": 0.7093745270833267,
            "durationTicks": 227,
            "midi": 53,
            "name": "F3",
            "ticks": 39120,
            "time": 122.2499185,
            "velocity": 0.6299212598425197
          },
          {
            "duration": 0.7093745270833267,
            "durationTicks": 227,
            "midi": 37,
            "name": "C#2",
            "ticks": 39360,
            "time": 122.99991800000001,
            "velocity": 0.6299212598425197
          },
          {
            "duration": 0.7093745270833267,
            "durationTicks": 227,
            "midi": 44,
            "name": "G#2",
            "ticks": 39360,
            "time": 122.99991800000001,
            "velocity": 0.6299212598425197
          },
          {
            "duration": 0.7093745270833267,
            "durationTicks": 227,
            "midi": 46,
            "name": "A#2",
            "ticks": 39360,
            "time": 122.99991800000001,
            "velocity": 0.6299212598425197
          },
          {
            "duration": 0.7093745270833267,
            "durationTicks": 227,
            "midi": 37,
            "name": "C#2",
            "ticks": 39600,
            "time": 123.74991750000001,
            "velocity": 0.6299212598425197
          },
          {
            "duration": 0.7093745270833267,
            "durationTicks": 227,
            "midi": 44,
            "name": "G#2",
            "ticks": 39600,
            "time": 123.74991750000001,
            "velocity": 0.6299212598425197
          },
          {
            "duration": 0.7093745270833267,
            "durationTicks": 227,
            "midi": 46,
            "name": "A#2",
            "ticks": 39600,
            "time": 123.74991750000001,
            "velocity": 0.6299212598425197
          },
          {
            "duration": 0.7093745270833267,
            "durationTicks": 227,
            "midi": 37,
            "name": "C#2",
            "ticks": 39840,
            "time": 124.49991700000001,
            "velocity": 0.6299212598425197
          },
          {
            "duration": 0.7093745270833267,
            "durationTicks": 227,
            "midi": 44,
            "name": "G#2",
            "ticks": 39840,
            "time": 124.49991700000001,
            "velocity": 0.6299212598425197
          },
          {
            "duration": 0.7093745270833267,
            "durationTicks": 227,
            "midi": 46,
            "name": "A#2",
            "ticks": 39840,
            "time": 124.49991700000001,
            "velocity": 0.6299212598425197
          },
          {
            "duration": 0.7093745270833267,
            "durationTicks": 227,
            "midi": 37,
            "name": "C#2",
            "ticks": 40080,
            "time": 125.24991650000001,
            "velocity": 0.6299212598425197
          },
          {
            "duration": 0.7093745270833267,
            "durationTicks": 227,
            "midi": 44,
            "name": "G#2",
            "ticks": 40080,
            "time": 125.24991650000001,
            "velocity": 0.6299212598425197
          },
          {
            "duration": 0.7093745270833267,
            "durationTicks": 227,
            "midi": 46,
            "name": "A#2",
            "ticks": 40080,
            "time": 125.24991650000001,
            "velocity": 0.6299212598425197
          },
          {
            "duration": 0.7093745270833267,
            "durationTicks": 227,
            "midi": 39,
            "name": "D#2",
            "ticks": 40320,
            "time": 125.99991600000001,
            "velocity": 0.6299212598425197
          },
          {
            "duration": 0.7093745270833267,
            "durationTicks": 227,
            "midi": 43,
            "name": "G2",
            "ticks": 40320,
            "time": 125.99991600000001,
            "velocity": 0.6299212598425197
          },
          {
            "duration": 0.7093745270833267,
            "durationTicks": 227,
            "midi": 46,
            "name": "A#2",
            "ticks": 40320,
            "time": 125.99991600000001,
            "velocity": 0.6299212598425197
          },
          {
            "duration": 0.7093745270833409,
            "durationTicks": 227,
            "midi": 39,
            "name": "D#2",
            "ticks": 40560,
            "time": 126.7499155,
            "velocity": 0.6299212598425197
          },
          {
            "duration": 0.7093745270833409,
            "durationTicks": 227,
            "midi": 43,
            "name": "G2",
            "ticks": 40560,
            "time": 126.7499155,
            "velocity": 0.6299212598425197
          },
          {
            "duration": 0.7093745270833409,
            "durationTicks": 227,
            "midi": 46,
            "name": "A#2",
            "ticks": 40560,
            "time": 126.7499155,
            "velocity": 0.6299212598425197
          },
          {
            "duration": 0.7093745270833409,
            "durationTicks": 227,
            "midi": 39,
            "name": "D#2",
            "ticks": 40800,
            "time": 127.499915,
            "velocity": 0.6299212598425197
          },
          {
            "duration": 0.7093745270833409,
            "durationTicks": 227,
            "midi": 43,
            "name": "G2",
            "ticks": 40800,
            "time": 127.499915,
            "velocity": 0.6299212598425197
          },
          {
            "duration": 0.7093745270833409,
            "durationTicks": 227,
            "midi": 46,
            "name": "A#2",
            "ticks": 40800,
            "time": 127.499915,
            "velocity": 0.6299212598425197
          },
          {
            "duration": 0.7093745270833267,
            "durationTicks": 227,
            "midi": 39,
            "name": "D#2",
            "ticks": 41040,
            "time": 128.24991450000002,
            "velocity": 0.6299212598425197
          },
          {
            "duration": 0.7093745270833267,
            "durationTicks": 227,
            "midi": 43,
            "name": "G2",
            "ticks": 41040,
            "time": 128.24991450000002,
            "velocity": 0.6299212598425197
          },
          {
            "duration": 0.7093745270833267,
            "durationTicks": 227,
            "midi": 46,
            "name": "A#2",
            "ticks": 41040,
            "time": 128.24991450000002,
            "velocity": 0.6299212598425197
          },
          {
            "duration": 0.7093745270833267,
            "durationTicks": 227,
            "midi": 36,
            "name": "C2",
            "ticks": 41280,
            "time": 128.99991400000002,
            "velocity": 0.6299212598425197
          },
          {
            "duration": 0.7093745270833267,
            "durationTicks": 227,
            "midi": 43,
            "name": "G2",
            "ticks": 41280,
            "time": 128.99991400000002,
            "velocity": 0.6299212598425197
          },
          {
            "duration": 0.7093745270833267,
            "durationTicks": 227,
            "midi": 44,
            "name": "G#2",
            "ticks": 41280,
            "time": 128.99991400000002,
            "velocity": 0.6299212598425197
          },
          {
            "duration": 0.7093745270833267,
            "durationTicks": 227,
            "midi": 36,
            "name": "C2",
            "ticks": 41520,
            "time": 129.74991350000002,
            "velocity": 0.6299212598425197
          },
          {
            "duration": 0.7093745270833267,
            "durationTicks": 227,
            "midi": 43,
            "name": "G2",
            "ticks": 41520,
            "time": 129.74991350000002,
            "velocity": 0.6299212598425197
          },
          {
            "duration": 0.7093745270833267,
            "durationTicks": 227,
            "midi": 44,
            "name": "G#2",
            "ticks": 41520,
            "time": 129.74991350000002,
            "velocity": 0.6299212598425197
          },
          {
            "duration": 0.7093745270833267,
            "durationTicks": 227,
            "midi": 36,
            "name": "C2",
            "ticks": 41760,
            "time": 130.49991300000002,
            "velocity": 0.6299212598425197
          },
          {
            "duration": 0.7093745270833267,
            "durationTicks": 227,
            "midi": 43,
            "name": "G2",
            "ticks": 41760,
            "time": 130.49991300000002,
            "velocity": 0.6299212598425197
          },
          {
            "duration": 0.7093745270833267,
            "durationTicks": 227,
            "midi": 44,
            "name": "G#2",
            "ticks": 41760,
            "time": 130.49991300000002,
            "velocity": 0.6299212598425197
          },
          {
            "duration": 0.7093745270833551,
            "durationTicks": 227,
            "midi": 36,
            "name": "C2",
            "ticks": 42000,
            "time": 131.2499125,
            "velocity": 0.6299212598425197
          },
          {
            "duration": 0.7093745270833551,
            "durationTicks": 227,
            "midi": 43,
            "name": "G2",
            "ticks": 42000,
            "time": 131.2499125,
            "velocity": 0.6299212598425197
          },
          {
            "duration": 0.7093745270833551,
            "durationTicks": 227,
            "midi": 44,
            "name": "G#2",
            "ticks": 42000,
            "time": 131.2499125,
            "velocity": 0.6299212598425197
          },
          {
            "duration": 0.7093745270833267,
            "durationTicks": 227,
            "midi": 37,
            "name": "C#2",
            "ticks": 42240,
            "time": 131.999912,
            "velocity": 0.6299212598425197
          },
          {
            "duration": 0.7093745270833267,
            "durationTicks": 227,
            "midi": 41,
            "name": "F2",
            "ticks": 42240,
            "time": 131.999912,
            "velocity": 0.6299212598425197
          },
          {
            "duration": 0.7093745270833267,
            "durationTicks": 227,
            "midi": 44,
            "name": "G#2",
            "ticks": 42240,
            "time": 131.999912,
            "velocity": 0.6299212598425197
          },
          {
            "duration": 0.7093745270833267,
            "durationTicks": 227,
            "midi": 37,
            "name": "C#2",
            "ticks": 42480,
            "time": 132.7499115,
            "velocity": 0.6299212598425197
          },
          {
            "duration": 0.7093745270833267,
            "durationTicks": 227,
            "midi": 41,
            "name": "F2",
            "ticks": 42480,
            "time": 132.7499115,
            "velocity": 0.6299212598425197
          },
          {
            "duration": 0.7093745270833267,
            "durationTicks": 227,
            "midi": 44,
            "name": "G#2",
            "ticks": 42480,
            "time": 132.7499115,
            "velocity": 0.6299212598425197
          },
          {
            "duration": 0.7093745270833267,
            "durationTicks": 227,
            "midi": 37,
            "name": "C#2",
            "ticks": 42720,
            "time": 133.499911,
            "velocity": 0.6299212598425197
          },
          {
            "duration": 0.7093745270833267,
            "durationTicks": 227,
            "midi": 41,
            "name": "F2",
            "ticks": 42720,
            "time": 133.499911,
            "velocity": 0.6299212598425197
          },
          {
            "duration": 0.7093745270833267,
            "durationTicks": 227,
            "midi": 44,
            "name": "G#2",
            "ticks": 42720,
            "time": 133.499911,
            "velocity": 0.6299212598425197
          },
          {
            "duration": 0.7093745270833267,
            "durationTicks": 227,
            "midi": 37,
            "name": "C#2",
            "ticks": 42960,
            "time": 134.2499105,
            "velocity": 0.6299212598425197
          },
          {
            "duration": 0.7093745270833267,
            "durationTicks": 227,
            "midi": 41,
            "name": "F2",
            "ticks": 42960,
            "time": 134.2499105,
            "velocity": 0.6299212598425197
          },
          {
            "duration": 0.7093745270833267,
            "durationTicks": 227,
            "midi": 44,
            "name": "G#2",
            "ticks": 42960,
            "time": 134.2499105,
            "velocity": 0.6299212598425197
          },
          {
            "duration": 0.7093745270833267,
            "durationTicks": 227,
            "midi": 34,
            "name": "A#1",
            "ticks": 43200,
            "time": 134.99991,
            "velocity": 0.6299212598425197
          },
          {
            "duration": 0.7093745270833267,
            "durationTicks": 227,
            "midi": 41,
            "name": "F2",
            "ticks": 43200,
            "time": 134.99991,
            "velocity": 0.6299212598425197
          },
          {
            "duration": 0.7093745270833267,
            "durationTicks": 227,
            "midi": 43,
            "name": "G2",
            "ticks": 43200,
            "time": 134.99991,
            "velocity": 0.6299212598425197
          },
          {
            "duration": 0.7093745270833267,
            "durationTicks": 227,
            "midi": 34,
            "name": "A#1",
            "ticks": 43440,
            "time": 135.7499095,
            "velocity": 0.6299212598425197
          },
          {
            "duration": 0.7093745270833267,
            "durationTicks": 227,
            "midi": 41,
            "name": "F2",
            "ticks": 43440,
            "time": 135.7499095,
            "velocity": 0.6299212598425197
          },
          {
            "duration": 0.7093745270833267,
            "durationTicks": 227,
            "midi": 43,
            "name": "G2",
            "ticks": 43440,
            "time": 135.7499095,
            "velocity": 0.6299212598425197
          },
          {
            "duration": 0.7093745270833267,
            "durationTicks": 227,
            "midi": 34,
            "name": "A#1",
            "ticks": 43680,
            "time": 136.499909,
            "velocity": 0.6299212598425197
          },
          {
            "duration": 0.7093745270833267,
            "durationTicks": 227,
            "midi": 41,
            "name": "F2",
            "ticks": 43680,
            "time": 136.499909,
            "velocity": 0.6299212598425197
          },
          {
            "duration": 0.7093745270833267,
            "durationTicks": 227,
            "midi": 43,
            "name": "G2",
            "ticks": 43680,
            "time": 136.499909,
            "velocity": 0.6299212598425197
          },
          {
            "duration": 0.7093745270833267,
            "durationTicks": 227,
            "midi": 34,
            "name": "A#1",
            "ticks": 43920,
            "time": 137.2499085,
            "velocity": 0.6299212598425197
          },
          {
            "duration": 0.7093745270833267,
            "durationTicks": 227,
            "midi": 41,
            "name": "F2",
            "ticks": 43920,
            "time": 137.2499085,
            "velocity": 0.6299212598425197
          },
          {
            "duration": 0.7093745270833267,
            "durationTicks": 227,
            "midi": 43,
            "name": "G2",
            "ticks": 43920,
            "time": 137.2499085,
            "velocity": 0.6299212598425197
          },
          {
            "duration": 0.7093745270833267,
            "durationTicks": 227,
            "midi": 35,
            "name": "B1",
            "ticks": 44160,
            "time": 137.999908,
            "velocity": 0.6299212598425197
          },
          {
            "duration": 0.7093745270833267,
            "durationTicks": 227,
            "midi": 41,
            "name": "F2",
            "ticks": 44160,
            "time": 137.999908,
            "velocity": 0.6299212598425197
          },
          {
            "duration": 0.7093745270833267,
            "durationTicks": 227,
            "midi": 43,
            "name": "G2",
            "ticks": 44160,
            "time": 137.999908,
            "velocity": 0.6299212598425197
          },
          {
            "duration": 0.7093745270833267,
            "durationTicks": 227,
            "midi": 35,
            "name": "B1",
            "ticks": 44400,
            "time": 138.7499075,
            "velocity": 0.6299212598425197
          },
          {
            "duration": 0.7093745270833267,
            "durationTicks": 227,
            "midi": 41,
            "name": "F2",
            "ticks": 44400,
            "time": 138.7499075,
            "velocity": 0.6299212598425197
          },
          {
            "duration": 0.7093745270833267,
            "durationTicks": 227,
            "midi": 43,
            "name": "G2",
            "ticks": 44400,
            "time": 138.7499075,
            "velocity": 0.6299212598425197
          },
          {
            "duration": 0.7093745270833267,
            "durationTicks": 227,
            "midi": 35,
            "name": "B1",
            "ticks": 44640,
            "time": 139.499907,
            "velocity": 0.6299212598425197
          },
          {
            "duration": 0.7093745270833267,
            "durationTicks": 227,
            "midi": 41,
            "name": "F2",
            "ticks": 44640,
            "time": 139.499907,
            "velocity": 0.6299212598425197
          },
          {
            "duration": 0.7093745270833267,
            "durationTicks": 227,
            "midi": 43,
            "name": "G2",
            "ticks": 44640,
            "time": 139.499907,
            "velocity": 0.6299212598425197
          },
          {
            "duration": 0.7093745270833267,
            "durationTicks": 227,
            "midi": 35,
            "name": "B1",
            "ticks": 44880,
            "time": 140.2499065,
            "velocity": 0.6299212598425197
          },
          {
            "duration": 0.7093745270833267,
            "durationTicks": 227,
            "midi": 41,
            "name": "F2",
            "ticks": 44880,
            "time": 140.2499065,
            "velocity": 0.6299212598425197
          },
          {
            "duration": 0.7093745270833267,
            "durationTicks": 227,
            "midi": 43,
            "name": "G2",
            "ticks": 44880,
            "time": 140.2499065,
            "velocity": 0.6299212598425197
          },
          {
            "duration": 0.7093745270833267,
            "durationTicks": 227,
            "midi": 36,
            "name": "C2",
            "ticks": 45120,
            "time": 140.999906,
            "velocity": 0.6299212598425197
          },
          {
            "duration": 0.7093745270833267,
            "durationTicks": 227,
            "midi": 43,
            "name": "G2",
            "ticks": 45120,
            "time": 140.999906,
            "velocity": 0.6299212598425197
          },
          {
            "duration": 0.7093745270833267,
            "durationTicks": 227,
            "midi": 48,
            "name": "C3",
            "ticks": 45120,
            "time": 140.999906,
            "velocity": 0.6299212598425197
          },
          {
            "duration": 0.7093745270833267,
            "durationTicks": 227,
            "midi": 36,
            "name": "C2",
            "ticks": 45360,
            "time": 141.7499055,
            "velocity": 0.6299212598425197
          },
          {
            "duration": 0.7093745270833267,
            "durationTicks": 227,
            "midi": 43,
            "name": "G2",
            "ticks": 45360,
            "time": 141.7499055,
            "velocity": 0.6299212598425197
          },
          {
            "duration": 0.7093745270833267,
            "durationTicks": 227,
            "midi": 48,
            "name": "C3",
            "ticks": 45360,
            "time": 141.7499055,
            "velocity": 0.6299212598425197
          },
          {
            "duration": 0.7093745270833267,
            "durationTicks": 227,
            "midi": 36,
            "name": "C2",
            "ticks": 45600,
            "time": 142.499905,
            "velocity": 0.6299212598425197
          },
          {
            "duration": 0.7093745270833267,
            "durationTicks": 227,
            "midi": 43,
            "name": "G2",
            "ticks": 45600,
            "time": 142.499905,
            "velocity": 0.6299212598425197
          },
          {
            "duration": 0.7093745270833267,
            "durationTicks": 227,
            "midi": 48,
            "name": "C3",
            "ticks": 45600,
            "time": 142.499905,
            "velocity": 0.6299212598425197
          },
          {
            "duration": 0.7093745270833267,
            "durationTicks": 227,
            "midi": 36,
            "name": "C2",
            "ticks": 45840,
            "time": 143.2499045,
            "velocity": 0.6299212598425197
          },
          {
            "duration": 0.7093745270833267,
            "durationTicks": 227,
            "midi": 43,
            "name": "G2",
            "ticks": 45840,
            "time": 143.2499045,
            "velocity": 0.6299212598425197
          },
          {
            "duration": 0.7093745270833267,
            "durationTicks": 227,
            "midi": 48,
            "name": "C3",
            "ticks": 45840,
            "time": 143.2499045,
            "velocity": 0.6299212598425197
          },
          {
            "duration": 0.7093745270833267,
            "durationTicks": 227,
            "midi": 41,
            "name": "F2",
            "ticks": 46080,
            "time": 143.99990400000002,
            "velocity": 0.6299212598425197
          },
          {
            "duration": 0.7093745270833267,
            "durationTicks": 227,
            "midi": 48,
            "name": "C3",
            "ticks": 46080,
            "time": 143.99990400000002,
            "velocity": 0.6299212598425197
          },
          {
            "duration": 0.7093745270833267,
            "durationTicks": 227,
            "midi": 53,
            "name": "F3",
            "ticks": 46080,
            "time": 143.99990400000002,
            "velocity": 0.6299212598425197
          },
          {
            "duration": 0.7093745270833267,
            "durationTicks": 227,
            "midi": 41,
            "name": "F2",
            "ticks": 46320,
            "time": 144.74990350000002,
            "velocity": 0.6299212598425197
          },
          {
            "duration": 0.7093745270833267,
            "durationTicks": 227,
            "midi": 48,
            "name": "C3",
            "ticks": 46320,
            "time": 144.74990350000002,
            "velocity": 0.6299212598425197
          },
          {
            "duration": 0.7093745270833267,
            "durationTicks": 227,
            "midi": 53,
            "name": "F3",
            "ticks": 46320,
            "time": 144.74990350000002,
            "velocity": 0.6299212598425197
          },
          {
            "duration": 0.7093745270833267,
            "durationTicks": 227,
            "midi": 41,
            "name": "F2",
            "ticks": 46560,
            "time": 145.49990300000002,
            "velocity": 0.6299212598425197
          },
          {
            "duration": 0.7093745270833267,
            "durationTicks": 227,
            "midi": 48,
            "name": "C3",
            "ticks": 46560,
            "time": 145.49990300000002,
            "velocity": 0.6299212598425197
          },
          {
            "duration": 0.7093745270833267,
            "durationTicks": 227,
            "midi": 53,
            "name": "F3",
            "ticks": 46560,
            "time": 145.49990300000002,
            "velocity": 0.6299212598425197
          },
          {
            "duration": 0.7093745270833267,
            "durationTicks": 227,
            "midi": 41,
            "name": "F2",
            "ticks": 46800,
            "time": 146.24990250000002,
            "velocity": 0.6299212598425197
          },
          {
            "duration": 0.7093745270833267,
            "durationTicks": 227,
            "midi": 48,
            "name": "C3",
            "ticks": 46800,
            "time": 146.24990250000002,
            "velocity": 0.6299212598425197
          },
          {
            "duration": 0.7093745270833267,
            "durationTicks": 227,
            "midi": 53,
            "name": "F3",
            "ticks": 46800,
            "time": 146.24990250000002,
            "velocity": 0.6299212598425197
          },
          {
            "duration": 0.7093745270833267,
            "durationTicks": 227,
            "midi": 37,
            "name": "C#2",
            "ticks": 47040,
            "time": 146.99990200000002,
            "velocity": 0.6299212598425197
          },
          {
            "duration": 0.7093745270833267,
            "durationTicks": 227,
            "midi": 44,
            "name": "G#2",
            "ticks": 47040,
            "time": 146.99990200000002,
            "velocity": 0.6299212598425197
          },
          {
            "duration": 0.7093745270833267,
            "durationTicks": 227,
            "midi": 46,
            "name": "A#2",
            "ticks": 47040,
            "time": 146.99990200000002,
            "velocity": 0.6299212598425197
          },
          {
            "duration": 0.7093745270833267,
            "durationTicks": 227,
            "midi": 37,
            "name": "C#2",
            "ticks": 47280,
            "time": 147.74990150000002,
            "velocity": 0.6299212598425197
          },
          {
            "duration": 0.7093745270833267,
            "durationTicks": 227,
            "midi": 44,
            "name": "G#2",
            "ticks": 47280,
            "time": 147.74990150000002,
            "velocity": 0.6299212598425197
          },
          {
            "duration": 0.7093745270833267,
            "durationTicks": 227,
            "midi": 46,
            "name": "A#2",
            "ticks": 47280,
            "time": 147.74990150000002,
            "velocity": 0.6299212598425197
          },
          {
            "duration": 0.7093745270833551,
            "durationTicks": 227,
            "midi": 37,
            "name": "C#2",
            "ticks": 47520,
            "time": 148.499901,
            "velocity": 0.6299212598425197
          },
          {
            "duration": 0.7093745270833551,
            "durationTicks": 227,
            "midi": 44,
            "name": "G#2",
            "ticks": 47520,
            "time": 148.499901,
            "velocity": 0.6299212598425197
          },
          {
            "duration": 0.7093745270833551,
            "durationTicks": 227,
            "midi": 46,
            "name": "A#2",
            "ticks": 47520,
            "time": 148.499901,
            "velocity": 0.6299212598425197
          },
          {
            "duration": 0.7093745270833267,
            "durationTicks": 227,
            "midi": 37,
            "name": "C#2",
            "ticks": 47760,
            "time": 149.2499005,
            "velocity": 0.6299212598425197
          },
          {
            "duration": 0.7093745270833267,
            "durationTicks": 227,
            "midi": 44,
            "name": "G#2",
            "ticks": 47760,
            "time": 149.2499005,
            "velocity": 0.6299212598425197
          },
          {
            "duration": 0.7093745270833267,
            "durationTicks": 227,
            "midi": 46,
            "name": "A#2",
            "ticks": 47760,
            "time": 149.2499005,
            "velocity": 0.6299212598425197
          },
          {
            "duration": 0.7093745270833267,
            "durationTicks": 227,
            "midi": 39,
            "name": "D#2",
            "ticks": 48000,
            "time": 149.9999,
            "velocity": 0.6299212598425197
          },
          {
            "duration": 0.7093745270833267,
            "durationTicks": 227,
            "midi": 43,
            "name": "G2",
            "ticks": 48000,
            "time": 149.9999,
            "velocity": 0.6299212598425197
          },
          {
            "duration": 0.7093745270833267,
            "durationTicks": 227,
            "midi": 46,
            "name": "A#2",
            "ticks": 48000,
            "time": 149.9999,
            "velocity": 0.6299212598425197
          },
          {
            "duration": 0.7093745270833267,
            "durationTicks": 227,
            "midi": 39,
            "name": "D#2",
            "ticks": 48240,
            "time": 150.7498995,
            "velocity": 0.6299212598425197
          },
          {
            "duration": 0.7093745270833267,
            "durationTicks": 227,
            "midi": 43,
            "name": "G2",
            "ticks": 48240,
            "time": 150.7498995,
            "velocity": 0.6299212598425197
          },
          {
            "duration": 0.7093745270833267,
            "durationTicks": 227,
            "midi": 46,
            "name": "A#2",
            "ticks": 48240,
            "time": 150.7498995,
            "velocity": 0.6299212598425197
          },
          {
            "duration": 0.7093745270833267,
            "durationTicks": 227,
            "midi": 39,
            "name": "D#2",
            "ticks": 48480,
            "time": 151.499899,
            "velocity": 0.6299212598425197
          },
          {
            "duration": 0.7093745270833267,
            "durationTicks": 227,
            "midi": 43,
            "name": "G2",
            "ticks": 48480,
            "time": 151.499899,
            "velocity": 0.6299212598425197
          },
          {
            "duration": 0.7093745270833267,
            "durationTicks": 227,
            "midi": 46,
            "name": "A#2",
            "ticks": 48480,
            "time": 151.499899,
            "velocity": 0.6299212598425197
          },
          {
            "duration": 0.7093745270833267,
            "durationTicks": 227,
            "midi": 39,
            "name": "D#2",
            "ticks": 48720,
            "time": 152.2498985,
            "velocity": 0.6299212598425197
          },
          {
            "duration": 0.7093745270833267,
            "durationTicks": 227,
            "midi": 43,
            "name": "G2",
            "ticks": 48720,
            "time": 152.2498985,
            "velocity": 0.6299212598425197
          },
          {
            "duration": 0.7093745270833267,
            "durationTicks": 227,
            "midi": 46,
            "name": "A#2",
            "ticks": 48720,
            "time": 152.2498985,
            "velocity": 0.6299212598425197
          },
          {
            "duration": 0.7093745270833267,
            "durationTicks": 227,
            "midi": 36,
            "name": "C2",
            "ticks": 48960,
            "time": 152.999898,
            "velocity": 0.6299212598425197
          },
          {
            "duration": 0.7093745270833267,
            "durationTicks": 227,
            "midi": 43,
            "name": "G2",
            "ticks": 48960,
            "time": 152.999898,
            "velocity": 0.6299212598425197
          },
          {
            "duration": 0.7093745270833267,
            "durationTicks": 227,
            "midi": 44,
            "name": "G#2",
            "ticks": 48960,
            "time": 152.999898,
            "velocity": 0.6299212598425197
          },
          {
            "duration": 0.7093745270833267,
            "durationTicks": 227,
            "midi": 36,
            "name": "C2",
            "ticks": 49200,
            "time": 153.7498975,
            "velocity": 0.6299212598425197
          },
          {
            "duration": 0.7093745270833267,
            "durationTicks": 227,
            "midi": 43,
            "name": "G2",
            "ticks": 49200,
            "time": 153.7498975,
            "velocity": 0.6299212598425197
          },
          {
            "duration": 0.7093745270833267,
            "durationTicks": 227,
            "midi": 44,
            "name": "G#2",
            "ticks": 49200,
            "time": 153.7498975,
            "velocity": 0.6299212598425197
          },
          {
            "duration": 0.7093745270833267,
            "durationTicks": 227,
            "midi": 36,
            "name": "C2",
            "ticks": 49440,
            "time": 154.499897,
            "velocity": 0.6299212598425197
          },
          {
            "duration": 0.7093745270833267,
            "durationTicks": 227,
            "midi": 43,
            "name": "G2",
            "ticks": 49440,
            "time": 154.499897,
            "velocity": 0.6299212598425197
          },
          {
            "duration": 0.7093745270833267,
            "durationTicks": 227,
            "midi": 44,
            "name": "G#2",
            "ticks": 49440,
            "time": 154.499897,
            "velocity": 0.6299212598425197
          },
          {
            "duration": 0.7093745270833267,
            "durationTicks": 227,
            "midi": 36,
            "name": "C2",
            "ticks": 49680,
            "time": 155.2498965,
            "velocity": 0.6299212598425197
          },
          {
            "duration": 0.7093745270833267,
            "durationTicks": 227,
            "midi": 43,
            "name": "G2",
            "ticks": 49680,
            "time": 155.2498965,
            "velocity": 0.6299212598425197
          },
          {
            "duration": 0.7093745270833267,
            "durationTicks": 227,
            "midi": 44,
            "name": "G#2",
            "ticks": 49680,
            "time": 155.2498965,
            "velocity": 0.6299212598425197
          },
          {
            "duration": 0.7093745270833267,
            "durationTicks": 227,
            "midi": 37,
            "name": "C#2",
            "ticks": 49920,
            "time": 155.999896,
            "velocity": 0.6299212598425197
          },
          {
            "duration": 0.7093745270833267,
            "durationTicks": 227,
            "midi": 41,
            "name": "F2",
            "ticks": 49920,
            "time": 155.999896,
            "velocity": 0.6299212598425197
          },
          {
            "duration": 0.7093745270833267,
            "durationTicks": 227,
            "midi": 44,
            "name": "G#2",
            "ticks": 49920,
            "time": 155.999896,
            "velocity": 0.6299212598425197
          },
          {
            "duration": 0.7093745270833267,
            "durationTicks": 227,
            "midi": 37,
            "name": "C#2",
            "ticks": 50160,
            "time": 156.7498955,
            "velocity": 0.6299212598425197
          },
          {
            "duration": 0.7093745270833267,
            "durationTicks": 227,
            "midi": 41,
            "name": "F2",
            "ticks": 50160,
            "time": 156.7498955,
            "velocity": 0.6299212598425197
          },
          {
            "duration": 0.7093745270833267,
            "durationTicks": 227,
            "midi": 44,
            "name": "G#2",
            "ticks": 50160,
            "time": 156.7498955,
            "velocity": 0.6299212598425197
          },
          {
            "duration": 0.7093745270833267,
            "durationTicks": 227,
            "midi": 37,
            "name": "C#2",
            "ticks": 50400,
            "time": 157.499895,
            "velocity": 0.6299212598425197
          },
          {
            "duration": 0.7093745270833267,
            "durationTicks": 227,
            "midi": 41,
            "name": "F2",
            "ticks": 50400,
            "time": 157.499895,
            "velocity": 0.6299212598425197
          },
          {
            "duration": 0.7093745270833267,
            "durationTicks": 227,
            "midi": 44,
            "name": "G#2",
            "ticks": 50400,
            "time": 157.499895,
            "velocity": 0.6299212598425197
          },
          {
            "duration": 0.7093745270833267,
            "durationTicks": 227,
            "midi": 37,
            "name": "C#2",
            "ticks": 50640,
            "time": 158.2498945,
            "velocity": 0.6299212598425197
          },
          {
            "duration": 0.7093745270833267,
            "durationTicks": 227,
            "midi": 41,
            "name": "F2",
            "ticks": 50640,
            "time": 158.2498945,
            "velocity": 0.6299212598425197
          },
          {
            "duration": 0.7093745270833267,
            "durationTicks": 227,
            "midi": 44,
            "name": "G#2",
            "ticks": 50640,
            "time": 158.2498945,
            "velocity": 0.6299212598425197
          },
          {
            "duration": 0.7093745270833267,
            "durationTicks": 227,
            "midi": 34,
            "name": "A#1",
            "ticks": 50880,
            "time": 158.999894,
            "velocity": 0.6299212598425197
          },
          {
            "duration": 0.7093745270833267,
            "durationTicks": 227,
            "midi": 41,
            "name": "F2",
            "ticks": 50880,
            "time": 158.999894,
            "velocity": 0.6299212598425197
          },
          {
            "duration": 0.7093745270833267,
            "durationTicks": 227,
            "midi": 43,
            "name": "G2",
            "ticks": 50880,
            "time": 158.999894,
            "velocity": 0.6299212598425197
          },
          {
            "duration": 0.7093745270833267,
            "durationTicks": 227,
            "midi": 34,
            "name": "A#1",
            "ticks": 51120,
            "time": 159.7498935,
            "velocity": 0.6299212598425197
          },
          {
            "duration": 0.7093745270833267,
            "durationTicks": 227,
            "midi": 41,
            "name": "F2",
            "ticks": 51120,
            "time": 159.7498935,
            "velocity": 0.6299212598425197
          },
          {
            "duration": 0.7093745270833267,
            "durationTicks": 227,
            "midi": 43,
            "name": "G2",
            "ticks": 51120,
            "time": 159.7498935,
            "velocity": 0.6299212598425197
          },
          {
            "duration": 0.7093745270833267,
            "durationTicks": 227,
            "midi": 34,
            "name": "A#1",
            "ticks": 51360,
            "time": 160.49989300000001,
            "velocity": 0.6299212598425197
          },
          {
            "duration": 0.7093745270833267,
            "durationTicks": 227,
            "midi": 41,
            "name": "F2",
            "ticks": 51360,
            "time": 160.49989300000001,
            "velocity": 0.6299212598425197
          },
          {
            "duration": 0.7093745270833267,
            "durationTicks": 227,
            "midi": 43,
            "name": "G2",
            "ticks": 51360,
            "time": 160.49989300000001,
            "velocity": 0.6299212598425197
          },
          {
            "duration": 0.7093745270833267,
            "durationTicks": 227,
            "midi": 34,
            "name": "A#1",
            "ticks": 51600,
            "time": 161.24989250000002,
            "velocity": 0.6299212598425197
          },
          {
            "duration": 0.7093745270833267,
            "durationTicks": 227,
            "midi": 41,
            "name": "F2",
            "ticks": 51600,
            "time": 161.24989250000002,
            "velocity": 0.6299212598425197
          },
          {
            "duration": 0.7093745270833267,
            "durationTicks": 227,
            "midi": 43,
            "name": "G2",
            "ticks": 51600,
            "time": 161.24989250000002,
            "velocity": 0.6299212598425197
          },
          {
            "duration": 0.7093745270833267,
            "durationTicks": 227,
            "midi": 35,
            "name": "B1",
            "ticks": 51840,
            "time": 161.99989200000002,
            "velocity": 0.6299212598425197
          },
          {
            "duration": 0.7093745270833267,
            "durationTicks": 227,
            "midi": 41,
            "name": "F2",
            "ticks": 51840,
            "time": 161.99989200000002,
            "velocity": 0.6299212598425197
          },
          {
            "duration": 0.7093745270833267,
            "durationTicks": 227,
            "midi": 43,
            "name": "G2",
            "ticks": 51840,
            "time": 161.99989200000002,
            "velocity": 0.6299212598425197
          },
          {
            "duration": 0.7093745270833267,
            "durationTicks": 227,
            "midi": 35,
            "name": "B1",
            "ticks": 52080,
            "time": 162.74989150000002,
            "velocity": 0.6299212598425197
          },
          {
            "duration": 0.7093745270833267,
            "durationTicks": 227,
            "midi": 41,
            "name": "F2",
            "ticks": 52080,
            "time": 162.74989150000002,
            "velocity": 0.6299212598425197
          },
          {
            "duration": 0.7093745270833267,
            "durationTicks": 227,
            "midi": 43,
            "name": "G2",
            "ticks": 52080,
            "time": 162.74989150000002,
            "velocity": 0.6299212598425197
          },
          {
            "duration": 0.7093745270833267,
            "durationTicks": 227,
            "midi": 35,
            "name": "B1",
            "ticks": 52320,
            "time": 163.49989100000002,
            "velocity": 0.6299212598425197
          },
          {
            "duration": 0.7093745270833267,
            "durationTicks": 227,
            "midi": 41,
            "name": "F2",
            "ticks": 52320,
            "time": 163.49989100000002,
            "velocity": 0.6299212598425197
          },
          {
            "duration": 0.7093745270833267,
            "durationTicks": 227,
            "midi": 43,
            "name": "G2",
            "ticks": 52320,
            "time": 163.49989100000002,
            "velocity": 0.6299212598425197
          },
          {
            "duration": 0.7093745270833267,
            "durationTicks": 227,
            "midi": 35,
            "name": "B1",
            "ticks": 52560,
            "time": 164.24989050000002,
            "velocity": 0.6299212598425197
          },
          {
            "duration": 0.7093745270833267,
            "durationTicks": 227,
            "midi": 41,
            "name": "F2",
            "ticks": 52560,
            "time": 164.24989050000002,
            "velocity": 0.6299212598425197
          },
          {
            "duration": 0.7093745270833267,
            "durationTicks": 227,
            "midi": 43,
            "name": "G2",
            "ticks": 52560,
            "time": 164.24989050000002,
            "velocity": 0.6299212598425197
          },
          {
            "duration": 0.7093745270833267,
            "durationTicks": 227,
            "midi": 36,
            "name": "C2",
            "ticks": 52800,
            "time": 164.99989000000002,
            "velocity": 0.6299212598425197
          },
          {
            "duration": 0.7093745270833267,
            "durationTicks": 227,
            "midi": 43,
            "name": "G2",
            "ticks": 52800,
            "time": 164.99989000000002,
            "velocity": 0.6299212598425197
          },
          {
            "duration": 0.7093745270833267,
            "durationTicks": 227,
            "midi": 48,
            "name": "C3",
            "ticks": 52800,
            "time": 164.99989000000002,
            "velocity": 0.6299212598425197
          },
          {
            "duration": 0.7093745270833267,
            "durationTicks": 227,
            "midi": 36,
            "name": "C2",
            "ticks": 53040,
            "time": 165.74988950000002,
            "velocity": 0.6299212598425197
          },
          {
            "duration": 0.7093745270833267,
            "durationTicks": 227,
            "midi": 43,
            "name": "G2",
            "ticks": 53040,
            "time": 165.74988950000002,
            "velocity": 0.6299212598425197
          },
          {
            "duration": 0.7093745270833267,
            "durationTicks": 227,
            "midi": 48,
            "name": "C3",
            "ticks": 53040,
            "time": 165.74988950000002,
            "velocity": 0.6299212598425197
          },
          {
            "duration": 0.7093745270833267,
            "durationTicks": 227,
            "midi": 36,
            "name": "C2",
            "ticks": 53280,
            "time": 166.499889,
            "velocity": 0.6299212598425197
          },
          {
            "duration": 0.7093745270833267,
            "durationTicks": 227,
            "midi": 43,
            "name": "G2",
            "ticks": 53280,
            "time": 166.499889,
            "velocity": 0.6299212598425197
          },
          {
            "duration": 0.7093745270833267,
            "durationTicks": 227,
            "midi": 48,
            "name": "C3",
            "ticks": 53280,
            "time": 166.499889,
            "velocity": 0.6299212598425197
          },
          {
            "duration": 0.7093745270833267,
            "durationTicks": 227,
            "midi": 36,
            "name": "C2",
            "ticks": 53520,
            "time": 167.2498885,
            "velocity": 0.6299212598425197
          },
          {
            "duration": 0.7093745270833267,
            "durationTicks": 227,
            "midi": 43,
            "name": "G2",
            "ticks": 53520,
            "time": 167.2498885,
            "velocity": 0.6299212598425197
          },
          {
            "duration": 0.7093745270833267,
            "durationTicks": 227,
            "midi": 48,
            "name": "C3",
            "ticks": 53520,
            "time": 167.2498885,
            "velocity": 0.6299212598425197
          },
          {
            "duration": 0.35312476458335595,
            "durationTicks": 113,
            "midi": 41,
            "name": "F2",
            "ticks": 53760,
            "time": 167.999888,
            "velocity": 0.6299212598425197
          },
          {
            "duration": 0.35312476458335595,
            "durationTicks": 113,
            "midi": 48,
            "name": "C3",
            "ticks": 53760,
            "time": 167.999888,
            "velocity": 0.6299212598425197
          },
          {
            "duration": 0.7093745270833267,
            "durationTicks": 227,
            "midi": 53,
            "name": "F3",
            "ticks": 53760,
            "time": 167.999888,
            "velocity": 0.6299212598425197
          },
          {
            "duration": 0.35312476458335595,
            "durationTicks": 113,
            "midi": 41,
            "name": "F2",
            "ticks": 53880,
            "time": 168.37488775,
            "velocity": 0.6299212598425197
          },
          {
            "duration": 0.35312476458335595,
            "durationTicks": 113,
            "midi": 48,
            "name": "C3",
            "ticks": 53880,
            "time": 168.37488775,
            "velocity": 0.6299212598425197
          },
          {
            "duration": 0.35312476458332753,
            "durationTicks": 113,
            "midi": 41,
            "name": "F2",
            "ticks": 54000,
            "time": 168.7498875,
            "velocity": 0.6299212598425197
          },
          {
            "duration": 0.35312476458332753,
            "durationTicks": 113,
            "midi": 48,
            "name": "C3",
            "ticks": 54000,
            "time": 168.7498875,
            "velocity": 0.6299212598425197
          },
          {
            "duration": 0.7093745270833267,
            "durationTicks": 227,
            "midi": 53,
            "name": "F3",
            "ticks": 54000,
            "time": 168.7498875,
            "velocity": 0.6299212598425197
          },
          {
            "duration": 0.35312476458332753,
            "durationTicks": 113,
            "midi": 41,
            "name": "F2",
            "ticks": 54120,
            "time": 169.12488725,
            "velocity": 0.6299212598425197
          },
          {
            "duration": 0.35312476458332753,
            "durationTicks": 113,
            "midi": 48,
            "name": "C3",
            "ticks": 54120,
            "time": 169.12488725,
            "velocity": 0.6299212598425197
          },
          {
            "duration": 0.35312476458332753,
            "durationTicks": 113,
            "midi": 41,
            "name": "F2",
            "ticks": 54240,
            "time": 169.499887,
            "velocity": 0.6299212598425197
          },
          {
            "duration": 0.35312476458332753,
            "durationTicks": 113,
            "midi": 48,
            "name": "C3",
            "ticks": 54240,
            "time": 169.499887,
            "velocity": 0.6299212598425197
          },
          {
            "duration": 0.7093745270833267,
            "durationTicks": 227,
            "midi": 53,
            "name": "F3",
            "ticks": 54240,
            "time": 169.499887,
            "velocity": 0.6299212598425197
          },
          {
            "duration": 0.35312476458332753,
            "durationTicks": 113,
            "midi": 41,
            "name": "F2",
            "ticks": 54360,
            "time": 169.87488675,
            "velocity": 0.6299212598425197
          },
          {
            "duration": 0.35312476458332753,
            "durationTicks": 113,
            "midi": 48,
            "name": "C3",
            "ticks": 54360,
            "time": 169.87488675,
            "velocity": 0.6299212598425197
          },
          {
            "duration": 0.35312476458332753,
            "durationTicks": 113,
            "midi": 41,
            "name": "F2",
            "ticks": 54480,
            "time": 170.2498865,
            "velocity": 0.6299212598425197
          },
          {
            "duration": 0.35312476458332753,
            "durationTicks": 113,
            "midi": 48,
            "name": "C3",
            "ticks": 54480,
            "time": 170.2498865,
            "velocity": 0.6299212598425197
          },
          {
            "duration": 0.7093745270833267,
            "durationTicks": 227,
            "midi": 53,
            "name": "F3",
            "ticks": 54480,
            "time": 170.2498865,
            "velocity": 0.6299212598425197
          },
          {
            "duration": 0.35312476458332753,
            "durationTicks": 113,
            "midi": 41,
            "name": "F2",
            "ticks": 54600,
            "time": 170.62488625,
            "velocity": 0.6299212598425197
          },
          {
            "duration": 0.35312476458332753,
            "durationTicks": 113,
            "midi": 48,
            "name": "C3",
            "ticks": 54600,
            "time": 170.62488625,
            "velocity": 0.6299212598425197
          },
          {
            "duration": 0.35312476458332753,
            "durationTicks": 113,
            "midi": 37,
            "name": "C#2",
            "ticks": 54720,
            "time": 170.999886,
            "velocity": 0.6299212598425197
          },
          {
            "duration": 0.35312476458332753,
            "durationTicks": 113,
            "midi": 44,
            "name": "G#2",
            "ticks": 54720,
            "time": 170.999886,
            "velocity": 0.6299212598425197
          },
          {
            "duration": 0.7093745270833267,
            "durationTicks": 227,
            "midi": 46,
            "name": "A#2",
            "ticks": 54720,
            "time": 170.999886,
            "velocity": 0.6299212598425197
          },
          {
            "duration": 0.35312476458332753,
            "durationTicks": 113,
            "midi": 37,
            "name": "C#2",
            "ticks": 54840,
            "time": 171.37488575,
            "velocity": 0.6299212598425197
          },
          {
            "duration": 0.35312476458332753,
            "durationTicks": 113,
            "midi": 44,
            "name": "G#2",
            "ticks": 54840,
            "time": 171.37488575,
            "velocity": 0.6299212598425197
          },
          {
            "duration": 0.35312476458332753,
            "durationTicks": 113,
            "midi": 37,
            "name": "C#2",
            "ticks": 54960,
            "time": 171.7498855,
            "velocity": 0.6299212598425197
          },
          {
            "duration": 0.35312476458332753,
            "durationTicks": 113,
            "midi": 44,
            "name": "G#2",
            "ticks": 54960,
            "time": 171.7498855,
            "velocity": 0.6299212598425197
          },
          {
            "duration": 0.7093745270833267,
            "durationTicks": 227,
            "midi": 46,
            "name": "A#2",
            "ticks": 54960,
            "time": 171.7498855,
            "velocity": 0.6299212598425197
          },
          {
            "duration": 0.35312476458332753,
            "durationTicks": 113,
            "midi": 37,
            "name": "C#2",
            "ticks": 55080,
            "time": 172.12488525,
            "velocity": 0.6299212598425197
          },
          {
            "duration": 0.35312476458332753,
            "durationTicks": 113,
            "midi": 44,
            "name": "G#2",
            "ticks": 55080,
            "time": 172.12488525,
            "velocity": 0.6299212598425197
          },
          {
            "duration": 0.35312476458332753,
            "durationTicks": 113,
            "midi": 37,
            "name": "C#2",
            "ticks": 55200,
            "time": 172.499885,
            "velocity": 0.6299212598425197
          },
          {
            "duration": 0.35312476458332753,
            "durationTicks": 113,
            "midi": 44,
            "name": "G#2",
            "ticks": 55200,
            "time": 172.499885,
            "velocity": 0.6299212598425197
          },
          {
            "duration": 0.7093745270833267,
            "durationTicks": 227,
            "midi": 46,
            "name": "A#2",
            "ticks": 55200,
            "time": 172.499885,
            "velocity": 0.6299212598425197
          },
          {
            "duration": 0.35312476458332753,
            "durationTicks": 113,
            "midi": 37,
            "name": "C#2",
            "ticks": 55320,
            "time": 172.87488475,
            "velocity": 0.6299212598425197
          },
          {
            "duration": 0.35312476458332753,
            "durationTicks": 113,
            "midi": 44,
            "name": "G#2",
            "ticks": 55320,
            "time": 172.87488475,
            "velocity": 0.6299212598425197
          },
          {
            "duration": 0.35312476458332753,
            "durationTicks": 113,
            "midi": 37,
            "name": "C#2",
            "ticks": 55440,
            "time": 173.2498845,
            "velocity": 0.6299212598425197
          },
          {
            "duration": 0.35312476458332753,
            "durationTicks": 113,
            "midi": 44,
            "name": "G#2",
            "ticks": 55440,
            "time": 173.2498845,
            "velocity": 0.6299212598425197
          },
          {
            "duration": 0.7093745270833267,
            "durationTicks": 227,
            "midi": 46,
            "name": "A#2",
            "ticks": 55440,
            "time": 173.2498845,
            "velocity": 0.6299212598425197
          },
          {
            "duration": 0.35312476458332753,
            "durationTicks": 113,
            "midi": 37,
            "name": "C#2",
            "ticks": 55560,
            "time": 173.62488425,
            "velocity": 0.6299212598425197
          },
          {
            "duration": 0.35312476458332753,
            "durationTicks": 113,
            "midi": 44,
            "name": "G#2",
            "ticks": 55560,
            "time": 173.62488425,
            "velocity": 0.6299212598425197
          },
          {
            "duration": 0.35312476458332753,
            "durationTicks": 113,
            "midi": 39,
            "name": "D#2",
            "ticks": 55680,
            "time": 173.999884,
            "velocity": 0.6299212598425197
          },
          {
            "duration": 0.35312476458332753,
            "durationTicks": 113,
            "midi": 43,
            "name": "G2",
            "ticks": 55680,
            "time": 173.999884,
            "velocity": 0.6299212598425197
          },
          {
            "duration": 0.7093745270833267,
            "durationTicks": 227,
            "midi": 46,
            "name": "A#2",
            "ticks": 55680,
            "time": 173.999884,
            "velocity": 0.6299212598425197
          },
          {
            "duration": 0.35312476458332753,
            "durationTicks": 113,
            "midi": 39,
            "name": "D#2",
            "ticks": 55800,
            "time": 174.37488375,
            "velocity": 0.6299212598425197
          },
          {
            "duration": 0.35312476458332753,
            "durationTicks": 113,
            "midi": 43,
            "name": "G2",
            "ticks": 55800,
            "time": 174.37488375,
            "velocity": 0.6299212598425197
          },
          {
            "duration": 0.35312476458332753,
            "durationTicks": 113,
            "midi": 39,
            "name": "D#2",
            "ticks": 55920,
            "time": 174.7498835,
            "velocity": 0.6299212598425197
          },
          {
            "duration": 0.35312476458332753,
            "durationTicks": 113,
            "midi": 43,
            "name": "G2",
            "ticks": 55920,
            "time": 174.7498835,
            "velocity": 0.6299212598425197
          },
          {
            "duration": 0.7093745270833267,
            "durationTicks": 227,
            "midi": 46,
            "name": "A#2",
            "ticks": 55920,
            "time": 174.7498835,
            "velocity": 0.6299212598425197
          },
          {
            "duration": 0.35312476458332753,
            "durationTicks": 113,
            "midi": 39,
            "name": "D#2",
            "ticks": 56040,
            "time": 175.12488325,
            "velocity": 0.6299212598425197
          },
          {
            "duration": 0.35312476458332753,
            "durationTicks": 113,
            "midi": 43,
            "name": "G2",
            "ticks": 56040,
            "time": 175.12488325,
            "velocity": 0.6299212598425197
          },
          {
            "duration": 0.35312476458332753,
            "durationTicks": 113,
            "midi": 39,
            "name": "D#2",
            "ticks": 56160,
            "time": 175.499883,
            "velocity": 0.6299212598425197
          },
          {
            "duration": 0.35312476458332753,
            "durationTicks": 113,
            "midi": 43,
            "name": "G2",
            "ticks": 56160,
            "time": 175.499883,
            "velocity": 0.6299212598425197
          },
          {
            "duration": 0.7093745270833267,
            "durationTicks": 227,
            "midi": 46,
            "name": "A#2",
            "ticks": 56160,
            "time": 175.499883,
            "velocity": 0.6299212598425197
          },
          {
            "duration": 0.35312476458332753,
            "durationTicks": 113,
            "midi": 39,
            "name": "D#2",
            "ticks": 56280,
            "time": 175.87488275,
            "velocity": 0.6299212598425197
          },
          {
            "duration": 0.35312476458332753,
            "durationTicks": 113,
            "midi": 43,
            "name": "G2",
            "ticks": 56280,
            "time": 175.87488275,
            "velocity": 0.6299212598425197
          },
          {
            "duration": 0.35312476458332753,
            "durationTicks": 113,
            "midi": 39,
            "name": "D#2",
            "ticks": 56400,
            "time": 176.2498825,
            "velocity": 0.6299212598425197
          },
          {
            "duration": 0.35312476458332753,
            "durationTicks": 113,
            "midi": 43,
            "name": "G2",
            "ticks": 56400,
            "time": 176.2498825,
            "velocity": 0.6299212598425197
          },
          {
            "duration": 0.7093745270833267,
            "durationTicks": 227,
            "midi": 46,
            "name": "A#2",
            "ticks": 56400,
            "time": 176.2498825,
            "velocity": 0.6299212598425197
          },
          {
            "duration": 0.35312476458332753,
            "durationTicks": 113,
            "midi": 39,
            "name": "D#2",
            "ticks": 56520,
            "time": 176.62488225,
            "velocity": 0.6299212598425197
          },
          {
            "duration": 0.35312476458332753,
            "durationTicks": 113,
            "midi": 43,
            "name": "G2",
            "ticks": 56520,
            "time": 176.62488225,
            "velocity": 0.6299212598425197
          },
          {
            "duration": 0.35312476458332753,
            "durationTicks": 113,
            "midi": 36,
            "name": "C2",
            "ticks": 56640,
            "time": 176.999882,
            "velocity": 0.6299212598425197
          },
          {
            "duration": 0.35312476458332753,
            "durationTicks": 113,
            "midi": 43,
            "name": "G2",
            "ticks": 56640,
            "time": 176.999882,
            "velocity": 0.6299212598425197
          },
          {
            "duration": 0.7093745270833267,
            "durationTicks": 227,
            "midi": 44,
            "name": "G#2",
            "ticks": 56640,
            "time": 176.999882,
            "velocity": 0.6299212598425197
          },
          {
            "duration": 0.35312476458332753,
            "durationTicks": 113,
            "midi": 36,
            "name": "C2",
            "ticks": 56760,
            "time": 177.37488175000001,
            "velocity": 0.6299212598425197
          },
          {
            "duration": 0.35312476458332753,
            "durationTicks": 113,
            "midi": 43,
            "name": "G2",
            "ticks": 56760,
            "time": 177.37488175000001,
            "velocity": 0.6299212598425197
          },
          {
            "duration": 0.35312476458332753,
            "durationTicks": 113,
            "midi": 36,
            "name": "C2",
            "ticks": 56880,
            "time": 177.74988150000001,
            "velocity": 0.6299212598425197
          },
          {
            "duration": 0.35312476458332753,
            "durationTicks": 113,
            "midi": 43,
            "name": "G2",
            "ticks": 56880,
            "time": 177.74988150000001,
            "velocity": 0.6299212598425197
          },
          {
            "duration": 0.7093745270833267,
            "durationTicks": 227,
            "midi": 44,
            "name": "G#2",
            "ticks": 56880,
            "time": 177.74988150000001,
            "velocity": 0.6299212598425197
          },
          {
            "duration": 0.35312476458332753,
            "durationTicks": 113,
            "midi": 36,
            "name": "C2",
            "ticks": 57000,
            "time": 178.12488125000002,
            "velocity": 0.6299212598425197
          },
          {
            "duration": 0.35312476458332753,
            "durationTicks": 113,
            "midi": 43,
            "name": "G2",
            "ticks": 57000,
            "time": 178.12488125000002,
            "velocity": 0.6299212598425197
          },
          {
            "duration": 0.35312476458332753,
            "durationTicks": 113,
            "midi": 36,
            "name": "C2",
            "ticks": 57120,
            "time": 178.49988100000002,
            "velocity": 0.6299212598425197
          },
          {
            "duration": 0.35312476458332753,
            "durationTicks": 113,
            "midi": 43,
            "name": "G2",
            "ticks": 57120,
            "time": 178.49988100000002,
            "velocity": 0.6299212598425197
          },
          {
            "duration": 0.7093745270833267,
            "durationTicks": 227,
            "midi": 44,
            "name": "G#2",
            "ticks": 57120,
            "time": 178.49988100000002,
            "velocity": 0.6299212598425197
          },
          {
            "duration": 0.35312476458332753,
            "durationTicks": 113,
            "midi": 36,
            "name": "C2",
            "ticks": 57240,
            "time": 178.87488075000002,
            "velocity": 0.6299212598425197
          },
          {
            "duration": 0.35312476458332753,
            "durationTicks": 113,
            "midi": 43,
            "name": "G2",
            "ticks": 57240,
            "time": 178.87488075000002,
            "velocity": 0.6299212598425197
          },
          {
            "duration": 0.35312476458332753,
            "durationTicks": 113,
            "midi": 36,
            "name": "C2",
            "ticks": 57360,
            "time": 179.24988050000002,
            "velocity": 0.6299212598425197
          },
          {
            "duration": 0.35312476458332753,
            "durationTicks": 113,
            "midi": 43,
            "name": "G2",
            "ticks": 57360,
            "time": 179.24988050000002,
            "velocity": 0.6299212598425197
          },
          {
            "duration": 0.7093745270833267,
            "durationTicks": 227,
            "midi": 44,
            "name": "G#2",
            "ticks": 57360,
            "time": 179.24988050000002,
            "velocity": 0.6299212598425197
          },
          {
            "duration": 0.35312476458332753,
            "durationTicks": 113,
            "midi": 36,
            "name": "C2",
            "ticks": 57480,
            "time": 179.62488025000002,
            "velocity": 0.6299212598425197
          },
          {
            "duration": 0.35312476458332753,
            "durationTicks": 113,
            "midi": 43,
            "name": "G2",
            "ticks": 57480,
            "time": 179.62488025000002,
            "velocity": 0.6299212598425197
          },
          {
            "duration": 0.35312476458332753,
            "durationTicks": 113,
            "midi": 37,
            "name": "C#2",
            "ticks": 57600,
            "time": 179.99988000000002,
            "velocity": 0.6299212598425197
          },
          {
            "duration": 0.35312476458332753,
            "durationTicks": 113,
            "midi": 41,
            "name": "F2",
            "ticks": 57600,
            "time": 179.99988000000002,
            "velocity": 0.6299212598425197
          },
          {
            "duration": 0.7093745270833267,
            "durationTicks": 227,
            "midi": 44,
            "name": "G#2",
            "ticks": 57600,
            "time": 179.99988000000002,
            "velocity": 0.6299212598425197
          },
          {
            "duration": 0.35312476458332753,
            "durationTicks": 113,
            "midi": 37,
            "name": "C#2",
            "ticks": 57720,
            "time": 180.37487975000002,
            "velocity": 0.6299212598425197
          },
          {
            "duration": 0.35312476458332753,
            "durationTicks": 113,
            "midi": 41,
            "name": "F2",
            "ticks": 57720,
            "time": 180.37487975000002,
            "velocity": 0.6299212598425197
          },
          {
            "duration": 0.35312476458332753,
            "durationTicks": 113,
            "midi": 37,
            "name": "C#2",
            "ticks": 57840,
            "time": 180.74987950000002,
            "velocity": 0.6299212598425197
          },
          {
            "duration": 0.35312476458332753,
            "durationTicks": 113,
            "midi": 41,
            "name": "F2",
            "ticks": 57840,
            "time": 180.74987950000002,
            "velocity": 0.6299212598425197
          },
          {
            "duration": 0.7093745270833267,
            "durationTicks": 227,
            "midi": 44,
            "name": "G#2",
            "ticks": 57840,
            "time": 180.74987950000002,
            "velocity": 0.6299212598425197
          },
          {
            "duration": 0.35312476458332753,
            "durationTicks": 113,
            "midi": 37,
            "name": "C#2",
            "ticks": 57960,
            "time": 181.12487925000002,
            "velocity": 0.6299212598425197
          },
          {
            "duration": 0.35312476458332753,
            "durationTicks": 113,
            "midi": 41,
            "name": "F2",
            "ticks": 57960,
            "time": 181.12487925000002,
            "velocity": 0.6299212598425197
          },
          {
            "duration": 0.35312476458332753,
            "durationTicks": 113,
            "midi": 37,
            "name": "C#2",
            "ticks": 58080,
            "time": 181.49987900000002,
            "velocity": 0.6299212598425197
          },
          {
            "duration": 0.35312476458332753,
            "durationTicks": 113,
            "midi": 41,
            "name": "F2",
            "ticks": 58080,
            "time": 181.49987900000002,
            "velocity": 0.6299212598425197
          },
          {
            "duration": 0.7093745270833267,
            "durationTicks": 227,
            "midi": 44,
            "name": "G#2",
            "ticks": 58080,
            "time": 181.49987900000002,
            "velocity": 0.6299212598425197
          },
          {
            "duration": 0.35312476458332753,
            "durationTicks": 113,
            "midi": 37,
            "name": "C#2",
            "ticks": 58200,
            "time": 181.87487875000002,
            "velocity": 0.6299212598425197
          },
          {
            "duration": 0.35312476458332753,
            "durationTicks": 113,
            "midi": 41,
            "name": "F2",
            "ticks": 58200,
            "time": 181.87487875000002,
            "velocity": 0.6299212598425197
          },
          {
            "duration": 0.35312476458332753,
            "durationTicks": 113,
            "midi": 37,
            "name": "C#2",
            "ticks": 58320,
            "time": 182.24987850000002,
            "velocity": 0.6299212598425197
          },
          {
            "duration": 0.35312476458332753,
            "durationTicks": 113,
            "midi": 41,
            "name": "F2",
            "ticks": 58320,
            "time": 182.24987850000002,
            "velocity": 0.6299212598425197
          },
          {
            "duration": 0.7093745270833267,
            "durationTicks": 227,
            "midi": 44,
            "name": "G#2",
            "ticks": 58320,
            "time": 182.24987850000002,
            "velocity": 0.6299212598425197
          },
          {
            "duration": 0.35312476458332753,
            "durationTicks": 113,
            "midi": 37,
            "name": "C#2",
            "ticks": 58440,
            "time": 182.62487825000002,
            "velocity": 0.6299212598425197
          },
          {
            "duration": 0.35312476458332753,
            "durationTicks": 113,
            "midi": 41,
            "name": "F2",
            "ticks": 58440,
            "time": 182.62487825000002,
            "velocity": 0.6299212598425197
          },
          {
            "duration": 0.35312476458332753,
            "durationTicks": 113,
            "midi": 34,
            "name": "A#1",
            "ticks": 58560,
            "time": 182.99987800000002,
            "velocity": 0.6299212598425197
          },
          {
            "duration": 0.35312476458332753,
            "durationTicks": 113,
            "midi": 41,
            "name": "F2",
            "ticks": 58560,
            "time": 182.99987800000002,
            "velocity": 0.6299212598425197
          },
          {
            "duration": 0.7093745270833267,
            "durationTicks": 227,
            "midi": 43,
            "name": "G2",
            "ticks": 58560,
            "time": 182.99987800000002,
            "velocity": 0.6299212598425197
          },
          {
            "duration": 0.35312476458335595,
            "durationTicks": 113,
            "midi": 34,
            "name": "A#1",
            "ticks": 58680,
            "time": 183.37487775,
            "velocity": 0.6299212598425197
          },
          {
            "duration": 0.35312476458335595,
            "durationTicks": 113,
            "midi": 41,
            "name": "F2",
            "ticks": 58680,
            "time": 183.37487775,
            "velocity": 0.6299212598425197
          },
          {
            "duration": 0.35312476458335595,
            "durationTicks": 113,
            "midi": 34,
            "name": "A#1",
            "ticks": 58800,
            "time": 183.7498775,
            "velocity": 0.6299212598425197
          },
          {
            "duration": 0.35312476458335595,
            "durationTicks": 113,
            "midi": 41,
            "name": "F2",
            "ticks": 58800,
            "time": 183.7498775,
            "velocity": 0.6299212598425197
          },
          {
            "duration": 0.7093745270833551,
            "durationTicks": 227,
            "midi": 43,
            "name": "G2",
            "ticks": 58800,
            "time": 183.7498775,
            "velocity": 0.6299212598425197
          },
          {
            "duration": 0.35312476458335595,
            "durationTicks": 113,
            "midi": 34,
            "name": "A#1",
            "ticks": 58920,
            "time": 184.12487725,
            "velocity": 0.6299212598425197
          },
          {
            "duration": 0.35312476458335595,
            "durationTicks": 113,
            "midi": 41,
            "name": "F2",
            "ticks": 58920,
            "time": 184.12487725,
            "velocity": 0.6299212598425197
          },
          {
            "duration": 0.35312476458335595,
            "durationTicks": 113,
            "midi": 34,
            "name": "A#1",
            "ticks": 59040,
            "time": 184.499877,
            "velocity": 0.6299212598425197
          },
          {
            "duration": 0.35312476458335595,
            "durationTicks": 113,
            "midi": 41,
            "name": "F2",
            "ticks": 59040,
            "time": 184.499877,
            "velocity": 0.6299212598425197
          },
          {
            "duration": 0.7093745270833267,
            "durationTicks": 227,
            "midi": 43,
            "name": "G2",
            "ticks": 59040,
            "time": 184.499877,
            "velocity": 0.6299212598425197
          },
          {
            "duration": 0.35312476458335595,
            "durationTicks": 113,
            "midi": 34,
            "name": "A#1",
            "ticks": 59160,
            "time": 184.87487675,
            "velocity": 0.6299212598425197
          },
          {
            "duration": 0.35312476458335595,
            "durationTicks": 113,
            "midi": 41,
            "name": "F2",
            "ticks": 59160,
            "time": 184.87487675,
            "velocity": 0.6299212598425197
          },
          {
            "duration": 0.35312476458335595,
            "durationTicks": 113,
            "midi": 34,
            "name": "A#1",
            "ticks": 59280,
            "time": 185.2498765,
            "velocity": 0.6299212598425197
          },
          {
            "duration": 0.35312476458335595,
            "durationTicks": 113,
            "midi": 41,
            "name": "F2",
            "ticks": 59280,
            "time": 185.2498765,
            "velocity": 0.6299212598425197
          },
          {
            "duration": 0.7093745270833267,
            "durationTicks": 227,
            "midi": 43,
            "name": "G2",
            "ticks": 59280,
            "time": 185.2498765,
            "velocity": 0.6299212598425197
          },
          {
            "duration": 0.35312476458335595,
            "durationTicks": 113,
            "midi": 34,
            "name": "A#1",
            "ticks": 59400,
            "time": 185.62487625,
            "velocity": 0.6299212598425197
          },
          {
            "duration": 0.35312476458335595,
            "durationTicks": 113,
            "midi": 41,
            "name": "F2",
            "ticks": 59400,
            "time": 185.62487625,
            "velocity": 0.6299212598425197
          },
          {
            "duration": 0.35312476458332753,
            "durationTicks": 113,
            "midi": 34,
            "name": "A#1",
            "ticks": 59520,
            "time": 185.999876,
            "velocity": 0.6299212598425197
          },
          {
            "duration": 0.35312476458332753,
            "durationTicks": 113,
            "midi": 41,
            "name": "F2",
            "ticks": 59520,
            "time": 185.999876,
            "velocity": 0.6299212598425197
          },
          {
            "duration": 0.7093745270833267,
            "durationTicks": 227,
            "midi": 43,
            "name": "G2",
            "ticks": 59520,
            "time": 185.999876,
            "velocity": 0.6299212598425197
          },
          {
            "duration": 0.35312476458332753,
            "durationTicks": 113,
            "midi": 34,
            "name": "A#1",
            "ticks": 59640,
            "time": 186.37487575,
            "velocity": 0.6299212598425197
          },
          {
            "duration": 0.35312476458332753,
            "durationTicks": 113,
            "midi": 41,
            "name": "F2",
            "ticks": 59640,
            "time": 186.37487575,
            "velocity": 0.6299212598425197
          },
          {
            "duration": 0.35312476458332753,
            "durationTicks": 113,
            "midi": 34,
            "name": "A#1",
            "ticks": 59760,
            "time": 186.7498755,
            "velocity": 0.6299212598425197
          },
          {
            "duration": 0.35312476458332753,
            "durationTicks": 113,
            "midi": 41,
            "name": "F2",
            "ticks": 59760,
            "time": 186.7498755,
            "velocity": 0.6299212598425197
          },
          {
            "duration": 0.7093745270833267,
            "durationTicks": 227,
            "midi": 43,
            "name": "G2",
            "ticks": 59760,
            "time": 186.7498755,
            "velocity": 0.6299212598425197
          },
          {
            "duration": 0.35312476458332753,
            "durationTicks": 113,
            "midi": 34,
            "name": "A#1",
            "ticks": 59880,
            "time": 187.12487525,
            "velocity": 0.6299212598425197
          },
          {
            "duration": 0.35312476458332753,
            "durationTicks": 113,
            "midi": 41,
            "name": "F2",
            "ticks": 59880,
            "time": 187.12487525,
            "velocity": 0.6299212598425197
          },
          {
            "duration": 0.35312476458332753,
            "durationTicks": 113,
            "midi": 34,
            "name": "A#1",
            "ticks": 60000,
            "time": 187.499875,
            "velocity": 0.6299212598425197
          },
          {
            "duration": 0.35312476458332753,
            "durationTicks": 113,
            "midi": 41,
            "name": "F2",
            "ticks": 60000,
            "time": 187.499875,
            "velocity": 0.6299212598425197
          },
          {
            "duration": 0.7093745270833267,
            "durationTicks": 227,
            "midi": 43,
            "name": "G2",
            "ticks": 60000,
            "time": 187.499875,
            "velocity": 0.6299212598425197
          },
          {
            "duration": 0.35312476458332753,
            "durationTicks": 113,
            "midi": 34,
            "name": "A#1",
            "ticks": 60120,
            "time": 187.87487475,
            "velocity": 0.6299212598425197
          },
          {
            "duration": 0.35312476458332753,
            "durationTicks": 113,
            "midi": 41,
            "name": "F2",
            "ticks": 60120,
            "time": 187.87487475,
            "velocity": 0.6299212598425197
          },
          {
            "duration": 0.35312476458332753,
            "durationTicks": 113,
            "midi": 34,
            "name": "A#1",
            "ticks": 60240,
            "time": 188.2498745,
            "velocity": 0.6299212598425197
          },
          {
            "duration": 0.35312476458332753,
            "durationTicks": 113,
            "midi": 41,
            "name": "F2",
            "ticks": 60240,
            "time": 188.2498745,
            "velocity": 0.6299212598425197
          },
          {
            "duration": 0.7093745270833267,
            "durationTicks": 227,
            "midi": 43,
            "name": "G2",
            "ticks": 60240,
            "time": 188.2498745,
            "velocity": 0.6299212598425197
          },
          {
            "duration": 0.35312476458332753,
            "durationTicks": 113,
            "midi": 34,
            "name": "A#1",
            "ticks": 60360,
            "time": 188.62487425,
            "velocity": 0.6299212598425197
          },
          {
            "duration": 0.35312476458332753,
            "durationTicks": 113,
            "midi": 41,
            "name": "F2",
            "ticks": 60360,
            "time": 188.62487425,
            "velocity": 0.6299212598425197
          },
          {
            "duration": 0.35312476458332753,
            "durationTicks": 113,
            "midi": 43,
            "name": "G2",
            "ticks": 60480,
            "time": 188.999874,
            "velocity": 0.6299212598425197
          },
          {
            "duration": 0.7093745270833267,
            "durationTicks": 227,
            "midi": 36,
            "name": "C2",
            "ticks": 60480,
            "time": 188.999874,
            "velocity": 0.6299212598425197
          },
          {
            "duration": 0.35312476458332753,
            "durationTicks": 113,
            "midi": 48,
            "name": "C3",
            "ticks": 60600,
            "time": 189.37487375,
            "velocity": 0.6299212598425197
          },
          {
            "duration": 0.35312476458332753,
            "durationTicks": 113,
            "midi": 48,
            "name": "C3",
            "ticks": 60720,
            "time": 189.7498735,
            "velocity": 0.6299212598425197
          },
          {
            "duration": 0.7093745270833267,
            "durationTicks": 227,
            "midi": 36,
            "name": "C2",
            "ticks": 60720,
            "time": 189.7498735,
            "velocity": 0.6299212598425197
          },
          {
            "duration": 0.35312476458332753,
            "durationTicks": 113,
            "midi": 48,
            "name": "C3",
            "ticks": 60840,
            "time": 190.12487325,
            "velocity": 0.6299212598425197
          },
          {
            "duration": 0.35312476458332753,
            "durationTicks": 113,
            "midi": 48,
            "name": "C3",
            "ticks": 60960,
            "time": 190.499873,
            "velocity": 0.6299212598425197
          },
          {
            "duration": 0.7093745270833267,
            "durationTicks": 227,
            "midi": 36,
            "name": "C2",
            "ticks": 60960,
            "time": 190.499873,
            "velocity": 0.6299212598425197
          },
          {
            "duration": 0.35312476458332753,
            "durationTicks": 113,
            "midi": 48,
            "name": "C3",
            "ticks": 61080,
            "time": 190.87487275,
            "velocity": 0.6299212598425197
          },
          {
            "duration": 0.35312476458332753,
            "durationTicks": 113,
            "midi": 48,
            "name": "C3",
            "ticks": 61200,
            "time": 191.2498725,
            "velocity": 0.6299212598425197
          },
          {
            "duration": 0.7093745270833267,
            "durationTicks": 227,
            "midi": 36,
            "name": "C2",
            "ticks": 61200,
            "time": 191.2498725,
            "velocity": 0.6299212598425197
          },
          {
            "duration": 0.35312476458332753,
            "durationTicks": 113,
            "midi": 48,
            "name": "C3",
            "ticks": 61320,
            "time": 191.62487225,
            "velocity": 0.6299212598425197
          }
        ],
        "endOfTrackTicks": 61434
      }
    ]
  }